<svg version="1.1" xmlns="http://www.w3.org/2000/svg" viewBox="0 0 506.43229166666606 497.47395833333394" width="506.43229166666606" height="497.47395833333394">
  <!-- svg-source:excalidraw -->
  
  <defs>
    <style class="style-fonts">
      @font-face {
        font-family: "Virgil";
        src: url("https://excalidraw.com/Virgil.woff2");
      }
      @font-face {
        font-family: "Cascadia";
        src: url("https://excalidraw.com/Cascadia.woff2");
      }
    </style>
  </defs>
  <g transform="translate(486.9921875 243.29427083333394) rotate(0 -233.77604166666697 5.44270833333303)" stroke="none"><path fill="#1e1e20" d="M -9.94,-1.97 Q -9.94,-1.97 -9.46,-5.34 -8.97,-8.71 -8.53,-13.00 -8.08,-17.29 -8.04,-21.78 -8.01,-26.27 -8.31,-30.93 -8.61,-35.59 -8.85,-40.26 -9.08,-44.94 -9.73,-49.56 -10.38,-54.18 -12.16,-59.01 -13.94,-63.85 -15.26,-68.38 -16.59,-72.92 -17.90,-78.11 -19.22,-83.30 -20.23,-88.92 -21.23,-94.53 -22.94,-100.33 -24.64,-106.14 -25.73,-112.30 -26.82,-118.46 -27.56,-124.13 -28.30,-129.80 -29.91,-135.85 -31.51,-141.90 -32.44,-146.63 -33.38,-151.37 -35.64,-157.58 -37.90,-163.79 -39.45,-168.49 -41.00,-173.20 -43.26,-178.43 -45.52,-183.66 -46.80,-188.28 -48.07,-192.90 -53.19,-195.79 -58.30,-198.67 -62.69,-199.71 -67.08,-200.74 -73.69,-202.24 -80.29,-203.75 -85.60,-203.86 -90.91,-203.98 -96.22,-203.95 -101.54,-203.92 -106.04,-204.47 -110.55,-205.02 -115.40,-205.14 -120.25,-205.25 -124.93,-205.63 -129.61,-206.01 -137.79,-208.04 -145.97,-210.07 -151.10,-211.24 -156.24,-212.40 -160.80,-212.90 -165.36,-213.40 -169.97,-213.36 -174.57,-213.32 -179.55,-213.36 -184.52,-213.40 -191.70,-213.47 -198.88,-213.54 -206.80,-213.03 -214.71,-212.52 -219.25,-212.08 -223.78,-211.64 -228.26,-211.50 -232.75,-211.36 -237.35,-211.16 -241.95,-210.96 -246.68,-210.79 -251.42,-210.61 -257.40,-210.02 -263.38,-209.44 -267.86,-209.26 -272.35,-209.08 -276.72,-208.75 -281.10,-208.42 -286.08,-208.07 -291.07,-207.72 -296.06,-207.36 -301.05,-207.01 -307.45,-205.85 -313.85,-204.69 -320.89,-204.16 -327.94,-203.63 -333.44,-203.54 -338.93,-203.45 -344.91,-203.35 -350.89,-203.25 -356.42,-203.12 -361.96,-202.98 -366.32,-202.91 -370.68,-202.85 -375.30,-202.81 -379.92,-202.77 -384.24,-202.73 -388.56,-202.69 -393.30,-202.10 -398.04,-201.50 -403.57,-200.26 -409.09,-199.02 -413.26,-197.60 -417.43,-196.18 -420.00,-192.14 -422.57,-188.11 -425.14,-182.35 -427.71,-176.60 -430.22,-172.04 -432.73,-167.49 -433.36,-163.03 -433.99,-158.58 -436.12,-152.23 -438.26,-145.87 -440.15,-139.73 -442.03,-133.59 -443.25,-128.04 -444.47,-122.48 -445.43,-117.31 -446.39,-112.15 -447.60,-108.05 -448.80,-103.96 -449.84,-99.26 -450.88,-94.57 -452.12,-87.71 -453.36,-80.85 -453.52,-76.38 -453.69,-71.90 -453.76,-66.43 -453.83,-60.97 -453.84,-56.27 -453.85,-51.57 -453.80,-47.08 -453.75,-42.60 -454.58,-35.32 -455.41,-28.05 -456.99,-23.47 -458.57,-18.90 -459.73,-11.93 -460.90,-4.97 -461.00,-0.62 -461.11,3.72 -461.09,8.96 -461.08,14.21 -461.61,19.30 -462.15,24.39 -462.22,29.53 -462.29,34.67 -462.32,40.21 -462.36,45.74 -462.37,50.16 -462.39,54.57 -462.47,60.33 -462.54,66.09 -462.51,70.62 -462.47,75.15 -462.51,79.86 -462.55,84.57 -461.83,90.09 -461.11,95.61 -460.81,100.00 -460.52,104.39 -460.08,109.32 -459.65,114.25 -458.99,118.67 -458.32,123.09 -456.16,129.51 -453.99,135.92 -451.91,141.08 -449.84,146.24 -447.62,151.29 -445.41,156.33 -443.17,161.97 -440.92,167.62 -439.55,172.42 -438.18,177.21 -435.77,181.60 -433.37,185.99 -430.20,189.41 -427.04,192.83 -423.07,195.67 -419.10,198.51 -409.46,198.13 -399.82,197.75 -393.07,197.79 -386.32,197.83 -380.63,197.72 -374.93,197.60 -370.29,197.52 -365.66,197.44 -360.80,197.30 -355.94,197.16 -351.31,197.05 -346.68,196.93 -340.98,197.35 -335.28,197.77 -327.68,199.18 -320.09,200.59 -313.30,202.51 -306.52,204.43 -301.96,204.77 -297.39,205.12 -291.21,206.20 -285.03,207.28 -280.15,208.56 -275.27,209.83 -270.19,211.35 -265.10,212.87 -257.93,213.62 -250.75,214.37 -245.06,214.73 -239.37,215.10 -231.12,216.47 -222.87,217.84 -215.87,218.01 -208.87,218.18 -204.19,217.94 -199.52,217.70 -194.27,217.02 -189.02,216.34 -184.38,216.13 -179.75,215.92 -174.07,215.73 -168.40,215.54 -162.32,215.42 -156.24,215.29 -150.56,215.17 -144.88,215.06 -139.11,214.46 -133.34,213.85 -127.59,213.63 -121.84,213.41 -116.99,212.80 -112.14,212.19 -104.55,210.95 -96.96,209.71 -91.91,208.65 -86.86,207.59 -81.82,207.31 -76.79,207.02 -72.22,205.29 -67.65,203.57 -62.64,201.80 -57.62,200.04 -52.15,197.97 -46.68,195.89 -42.14,194.26 -37.59,192.62 -33.92,188.91 -30.26,185.19 -28.38,181.32 -26.51,177.44 -24.81,172.54 -23.11,167.63 -22.41,162.79 -21.71,157.95 -20.30,151.54 -18.89,145.14 -17.94,140.68 -16.98,136.23 -16.89,131.44 -16.80,126.66 -16.25,120.63 -15.70,114.60 -15.56,108.56 -15.42,102.52 -15.39,98.13 -15.36,93.74 -15.36,88.33 -15.36,82.91 -15.38,77.91 -15.39,72.90 -14.26,67.19 -13.13,61.48 -12.71,56.71 -12.29,51.95 -12.21,46.23 -12.13,40.51 -11.60,33.06 -11.06,25.61 -10.83,21.00 -10.60,16.39 -10.45,10.05 -10.30,3.71 -10.34,-1.91 -10.37,-7.54 -10.80,-13.64 -11.23,-19.74 -11.74,-24.55 -12.25,-29.36 -12.88,-34.13 -13.51,-38.89 -15.02,-46.16 -16.53,-53.43 -16.70,-59.17 -16.88,-64.90 -16.87,-70.93 -16.87,-76.95 -16.86,-82.56 -16.86,-88.16 -16.46,-92.54 -16.05,-96.92 -14.36,-104.12 -12.68,-111.32 -11.41,-117.08 -10.15,-122.84 -6.42,-127.26 -2.68,-131.68 -5.07,-136.64 -7.45,-141.60 -8.40,-147.09 -9.35,-152.58 -11.13,-158.06 -12.91,-163.54 -14.25,-169.19 -15.58,-174.84 -16.26,-179.21 -16.94,-183.58 -17.50,-189.00 -18.06,-194.42 -21.80,-198.38 -25.53,-202.33 -29.47,-203.99 -33.40,-205.65 -37.68,-208.21 -41.95,-210.78 -46.17,-212.51 -50.38,-214.24 -54.79,-214.98 -59.20,-215.73 -63.57,-216.85 -67.94,-217.98 -72.32,-217.94 -76.70,-217.90 -81.53,-217.93 -86.35,-217.96 -93.23,-218.17 -100.12,-218.37 -105.21,-218.37 -110.31,-218.38 -114.58,-218.42 -118.85,-218.47 -123.84,-218.47 -128.82,-218.47 -133.59,-218.46 -138.37,-218.46 -144.67,-218.48 -150.98,-218.50 -155.72,-218.55 -160.45,-218.60 -165.06,-218.62 -169.67,-218.65 -174.49,-218.68 -179.31,-218.71 -184.16,-218.66 -189.02,-218.61 -193.33,-218.55 -197.65,-218.49 -202.86,-218.49 -208.07,-218.49 -213.52,-218.56 -218.96,-218.64 -223.98,-218.68 -228.99,-218.72 -234.42,-218.70 -239.86,-218.68 -244.97,-218.66 -250.07,-218.65 -254.47,-218.66 -258.87,-218.68 -264.43,-218.67 -269.98,-218.66 -275.06,-218.65 -280.14,-218.63 -284.90,-218.58 -289.66,-218.53 -296.70,-218.56 -303.73,-218.59 -308.47,-218.80 -313.21,-219.02 -319.79,-219.01 -326.37,-219.00 -331.09,-219.01 -335.80,-219.01 -340.57,-218.96 -345.33,-218.91 -351.43,-218.29 -357.52,-217.68 -363.31,-217.07 -369.09,-216.47 -374.94,-216.39 -380.80,-216.30 -384.69,-214.58 -388.58,-212.85 -392.94,-210.41 -397.29,-207.96 -400.50,-204.32 -403.71,-200.67 -407.06,-196.89 -410.40,-193.10 -414.81,-190.20 -419.22,-187.29 -423.23,-184.93 -427.24,-182.57 -430.80,-179.39 -434.36,-176.21 -437.70,-173.34 -441.03,-170.48 -444.17,-167.32 -447.31,-164.17 -450.56,-160.16 -453.82,-156.15 -454.55,-151.52 -455.29,-146.89 -454.82,-141.60 -454.35,-136.32 -454.32,-131.57 -454.28,-126.83 -454.27,-122.34 -454.25,-117.84 -454.25,-113.42 -454.25,-109.00 -454.26,-104.09 -454.26,-99.17 -454.28,-94.84 -454.29,-90.51 -454.34,-85.05 -454.38,-79.59 -454.41,-74.35 -454.44,-69.10 -454.46,-63.97 -454.48,-58.84 -454.48,-53.31 -454.47,-47.78 -454.44,-43.17 -454.41,-38.56 -454.39,-34.13 -454.36,-29.71 -454.35,-25.38 -454.33,-21.04 -453.44,-15.97 -452.54,-10.89 -452.31,-5.59 -452.07,-0.28 -451.57,6.13 -451.08,12.54 -450.92,17.65 -450.76,22.75 -450.73,28.03 -450.71,33.31 -450.70,38.36 -450.68,43.41 -449.53,49.38 -448.37,55.35 -448.16,59.90 -447.95,64.44 -447.93,69.48 -447.91,74.51 -447.96,79.93 -448.00,85.36 -448.01,89.91 -448.02,94.46 -448.04,99.66 -448.06,104.86 -448.09,110.21 -448.11,115.57 -447.79,120.11 -447.47,124.65 -445.69,129.27 -443.91,133.90 -442.75,138.86 -441.59,143.83 -439.44,148.35 -437.30,152.88 -435.55,157.10 -433.80,161.31 -431.15,165.54 -428.51,169.78 -425.14,175.67 -421.77,181.57 -419.50,185.38 -417.23,189.20 -414.21,192.84 -411.20,196.48 -405.30,199.23 -399.41,201.98 -394.47,203.83 -389.53,205.69 -384.70,207.80 -379.87,209.92 -374.50,212.98 -369.12,216.05 -364.05,217.08 -358.98,218.11 -353.76,219.53 -348.55,220.94 -343.46,221.70 -338.36,222.46 -333.04,224.38 -327.72,226.31 -323.35,227.24 -318.98,228.17 -314.59,228.64 -310.19,229.12 -305.45,229.16 -300.71,229.21 -295.12,229.23 -289.53,229.25 -284.34,228.51 -279.15,227.77 -274.20,227.22 -269.26,226.66 -264.96,226.47 -260.65,226.29 -255.79,225.58 -250.93,224.87 -245.10,224.62 -239.27,224.37 -233.53,224.45 -227.78,224.53 -223.06,224.48 -218.34,224.43 -213.48,224.42 -208.61,224.41 -203.97,224.40 -199.32,224.38 -194.65,225.01 -189.98,225.63 -185.49,225.71 -181.01,225.80 -176.16,225.76 -171.32,225.73 -165.92,225.68 -160.53,225.64 -155.49,225.59 -150.45,225.55 -146.16,225.52 -141.87,225.50 -137.17,225.48 -132.47,225.46 -126.86,225.00 -121.25,224.55 -115.63,224.49 -110.00,224.44 -104.22,223.95 -98.43,223.45 -92.48,221.46 -86.53,219.47 -81.29,218.03 -76.05,216.60 -70.42,215.87 -64.80,215.15 -59.52,212.79 -54.23,210.42 -50.40,205.84 -46.56,201.27 -44.36,196.84 -42.17,192.40 -39.42,188.49 -36.68,184.57 -34.43,180.92 -32.18,177.26 -29.31,172.92 -26.44,168.58 -21.50,162.55 -16.56,156.53 -14.38,152.68 -12.20,148.84 -12.12,144.53 -12.05,140.22 -11.94,135.43 -11.83,130.63 -11.83,125.98 -11.83,121.32 -11.85,116.52 -11.86,111.72 -11.87,107.21 -11.87,102.70 -11.87,97.54 -11.86,92.39 -11.86,88.08 -11.86,83.77 -11.87,79.39 -11.89,75.01 -11.90,70.35 -11.91,65.70 -11.88,60.37 -11.85,55.04 -11.82,49.78 -11.80,44.53 -11.79,39.36 -11.77,34.20 -11.77,29.89 -11.77,25.58 -11.77,20.97 -11.77,16.36 -11.78,11.54 -11.78,6.73 -11.76,1.42 -11.74,-3.87 -11.72,-8.40 -11.70,-12.93 -11.71,-17.20 -11.72,-21.48 -12.03,-26.48 -12.35,-31.48 -12.50,-36.61 -12.64,-41.75 -12.66,-46.91 -12.67,-52.07 -12.67,-56.78 -12.67,-61.49 -12.67,-65.80 -12.67,-70.11 -12.64,-74.82 -12.61,-79.52 -12.63,-84.24 -12.65,-88.95 -12.66,-93.92 -12.67,-98.88 -12.68,-103.36 -12.70,-107.84 -12.70,-112.12 -12.70,-116.41 -12.72,-121.37 -12.74,-126.34 -12.75,-131.14 -12.77,-135.95 -13.52,-140.71 -14.28,-145.47 -15.50,-149.82 -16.72,-154.18 -19.37,-157.52 -22.01,-160.86 -26.22,-164.02 -30.44,-167.17 -34.61,-170.86 -38.79,-174.54 -42.16,-177.36 -45.53,-180.19 -50.42,-183.71 -55.31,-187.22 -58.62,-190.05 -61.92,-192.87 -65.59,-195.62 -69.26,-198.37 -72.77,-201.21 -76.28,-204.05 -80.34,-206.48 -84.39,-208.92 -88.88,-210.11 -93.37,-211.30 -100.39,-212.88 -107.42,-214.46 -114.93,-215.19 -122.45,-215.91 -126.87,-215.99 -131.29,-216.07 -133.13,-216.30 -134.97,-216.53 -137.27,-215.56 -139.56,-214.59 -142.05,-214.40 -144.53,-214.21 -146.95,-214.83 -149.36,-215.44 -151.45,-216.80 -153.54,-218.15 -155.09,-220.10 -156.64,-222.05 -157.49,-224.40 -158.33,-226.74 -158.38,-229.23 -158.44,-231.72 -157.69,-234.10 -156.95,-236.48 -155.48,-238.49 -154.02,-240.51 -151.98,-241.95 -149.95,-243.39 -147.56,-244.11 -145.18,-244.82 -142.69,-244.74 -140.20,-244.66 -137.87,-243.78 -135.53,-242.91 -133.60,-241.34 -131.67,-239.77 -130.34,-237.66 -129.01,-235.55 -128.42,-233.13 -127.84,-230.71 -128.05,-228.23 -128.27,-225.75 -129.27,-223.46 -130.27,-221.18 -131.94,-219.34 -133.62,-217.49 -135.79,-216.28 -137.97,-215.07 -140.42,-214.61 -142.87,-214.16 -145.34,-214.51 -147.80,-214.86 -150.03,-215.98 -152.25,-217.10 -154.00,-218.87 -155.75,-220.65 -156.85,-222.88 -157.94,-225.12 -158.26,-227.59 -158.58,-230.06 -158.10,-232.51 -157.61,-234.95 -156.37,-237.11 -155.13,-239.27 -153.27,-240.93 -151.40,-242.58 -151.41,-242.58 -151.41,-242.58 -144.11,-244.68 -136.82,-246.79 -132.25,-246.76 -127.69,-246.74 -123.12,-246.49 -118.55,-246.25 -114.05,-245.74 -109.55,-245.23 -104.02,-244.51 -98.50,-243.78 -92.86,-242.53 -87.23,-241.28 -82.40,-240.70 -77.56,-240.13 -72.76,-237.59 -67.95,-235.04 -63.92,-232.69 -59.89,-230.33 -56.27,-227.70 -52.66,-225.08 -49.22,-222.16 -45.78,-219.24 -40.85,-215.28 -35.92,-211.31 -32.07,-208.32 -28.22,-205.33 -23.29,-201.46 -18.36,-197.58 -14.89,-194.46 -11.41,-191.33 -7.23,-188.23 -3.06,-185.14 0.08,-182.20 3.24,-179.27 6.09,-175.58 8.94,-171.89 11.20,-166.91 13.46,-161.94 14.76,-157.85 16.06,-153.75 16.65,-149.41 17.23,-145.06 17.67,-140.50 18.11,-135.95 18.09,-131.14 18.07,-126.34 18.06,-121.37 18.04,-116.41 18.04,-112.12 18.04,-107.84 18.02,-103.36 18.01,-98.88 18.00,-93.92 17.98,-88.95 17.97,-84.24 17.95,-79.52 17.98,-73.41 18.02,-67.30 18.00,-62.60 17.99,-57.90 17.99,-53.09 18.00,-48.27 18.00,-43.33 18.00,-38.40 18.46,-33.49 18.92,-28.57 18.92,-23.20 18.92,-17.83 18.93,-12.45 18.94,-7.08 18.97,-1.33 19.00,4.41 19.00,8.86 19.00,13.30 18.99,18.25 18.98,23.20 18.99,27.72 18.99,32.25 18.99,36.86 19.00,41.48 19.02,46.94 19.05,52.41 19.08,56.72 19.10,61.03 19.11,66.51 19.11,72.00 19.09,76.36 19.08,80.72 19.08,85.54 19.08,90.36 19.08,95.51 19.08,100.67 19.08,105.28 19.08,109.89 19.07,114.90 19.05,119.90 19.03,124.72 19.01,129.54 18.53,134.48 18.05,139.42 17.71,143.75 17.36,148.09 16.54,152.34 15.72,156.59 13.77,161.42 11.81,166.24 8.56,171.76 5.31,177.27 1.31,182.79 -2.68,188.30 -5.45,191.62 -8.22,194.93 -11.18,199.98 -14.14,205.03 -17.40,211.01 -20.66,216.99 -24.34,221.84 -28.02,226.69 -31.19,230.19 -34.35,233.70 -37.90,236.23 -41.44,238.76 -48.08,241.57 -54.72,244.38 -61.41,244.90 -68.09,245.42 -72.63,246.84 -77.17,248.26 -81.31,249.25 -85.45,250.24 -90.79,251.95 -96.14,253.67 -103.05,254.23 -109.97,254.78 -115.26,254.79 -120.55,254.80 -126.51,255.22 -132.47,255.64 -137.17,255.62 -141.87,255.60 -146.16,255.57 -150.45,255.55 -155.49,255.50 -160.53,255.46 -165.93,255.41 -171.33,255.37 -176.23,255.31 -181.14,255.26 -186.52,255.26 -191.90,255.26 -197.16,254.62 -202.42,253.97 -206.96,253.95 -211.50,253.93 -217.79,253.89 -224.07,253.85 -228.34,253.87 -232.60,253.89 -237.23,253.99 -241.86,254.08 -246.28,254.41 -250.69,254.75 -257.90,255.59 -265.10,256.42 -270.92,257.35 -276.73,258.28 -281.67,258.69 -286.61,259.11 -291.39,259.10 -296.18,259.10 -301.27,259.17 -306.36,259.25 -311.67,259.13 -316.99,259.01 -321.33,258.26 -325.68,257.51 -331.73,256.11 -337.78,254.70 -341.98,253.29 -346.19,251.88 -350.99,251.02 -355.80,250.17 -360.97,249.03 -366.13,247.89 -371.57,246.62 -377.01,245.35 -382.11,243.24 -387.22,241.13 -391.46,238.85 -395.70,236.57 -400.28,234.55 -404.86,232.53 -409.46,230.65 -414.06,228.77 -418.21,227.26 -422.36,225.76 -427.00,222.50 -431.65,219.23 -435.03,215.62 -438.42,212.00 -441.33,208.12 -444.23,204.23 -446.71,198.89 -449.18,193.55 -452.78,188.15 -456.37,182.75 -458.60,178.73 -460.82,174.71 -463.06,169.21 -465.31,163.71 -467.47,158.84 -469.63,153.97 -471.06,147.67 -472.49,141.38 -474.87,135.18 -477.25,128.98 -477.71,122.27 -478.16,115.57 -478.19,110.21 -478.22,104.86 -478.24,99.66 -478.26,94.46 -478.27,89.91 -478.28,85.36 -478.32,79.94 -478.37,74.53 -478.37,69.72 -478.38,64.91 -478.88,60.50 -479.39,56.09 -480.28,49.75 -481.17,43.41 -481.15,38.36 -481.14,33.31 -481.13,28.11 -481.11,22.91 -481.23,17.83 -481.35,12.74 -481.93,7.86 -482.52,2.98 -482.69,-2.62 -482.87,-8.23 -483.86,-14.57 -484.85,-20.91 -484.84,-25.31 -484.82,-29.71 -484.80,-34.13 -484.77,-38.56 -484.74,-43.17 -484.71,-47.78 -484.71,-53.31 -484.70,-58.84 -484.72,-63.97 -484.75,-69.10 -484.77,-74.35 -484.80,-79.59 -484.84,-85.05 -484.89,-90.51 -484.90,-94.84 -484.92,-99.17 -484.93,-104.09 -484.93,-109.00 -484.93,-113.42 -484.93,-117.84 -484.92,-122.33 -484.90,-126.82 -484.89,-131.65 -484.88,-136.48 -485.33,-140.87 -485.77,-145.26 -485.71,-149.69 -485.66,-154.12 -484.54,-159.17 -483.43,-164.22 -480.91,-168.80 -478.39,-173.38 -474.83,-177.55 -471.28,-181.73 -468.25,-185.05 -465.22,-188.36 -462.18,-191.36 -459.14,-194.36 -455.87,-197.26 -452.61,-200.16 -449.07,-203.23 -445.53,-206.29 -440.66,-208.98 -435.80,-211.68 -431.69,-214.89 -427.57,-218.10 -424.76,-221.62 -421.95,-225.14 -418.60,-228.06 -415.26,-230.98 -409.93,-234.36 -404.60,-237.74 -399.75,-239.65 -394.90,-241.56 -388.06,-243.23 -381.22,-244.91 -376.01,-245.07 -370.80,-245.23 -364.59,-245.96 -358.37,-246.69 -351.85,-247.18 -345.33,-247.67 -340.57,-247.62 -335.80,-247.57 -331.09,-247.57 -326.37,-247.58 -319.79,-247.57 -313.21,-247.56 -308.47,-247.77 -303.73,-247.99 -296.70,-248.02 -289.66,-248.05 -284.90,-248.00 -280.14,-247.95 -275.06,-247.93 -269.98,-247.91 -264.43,-247.90 -258.87,-247.90 -253.21,-247.90 -247.54,-247.90 -241.85,-247.90 -236.16,-247.89 -230.33,-247.88 -224.49,-247.87 -219.27,-247.93 -214.05,-247.98 -209.33,-248.03 -204.61,-248.09 -199.94,-248.08 -195.26,-248.07 -190.46,-247.99 -185.65,-247.91 -180.29,-247.89 -174.92,-247.88 -170.17,-247.91 -165.42,-247.94 -161.15,-247.96 -156.88,-247.98 -151.04,-248.08 -145.21,-248.18 -140.11,-248.15 -135.01,-248.12 -129.22,-248.10 -123.43,-248.08 -118.29,-248.14 -113.14,-248.21 -108.82,-248.19 -104.50,-248.18 -99.05,-248.28 -93.60,-248.38 -88.02,-248.52 -82.45,-248.66 -77.05,-248.65 -71.65,-248.64 -67.37,-248.45 -63.09,-248.25 -57.99,-247.00 -52.89,-245.75 -47.17,-244.52 -41.45,-243.29 -37.43,-241.31 -33.41,-239.33 -27.23,-236.35 -21.04,-233.37 -15.28,-230.88 -9.51,-228.40 -5.03,-224.97 -0.55,-221.55 3.74,-215.82 8.04,-210.08 9.85,-205.57 11.66,-201.06 11.87,-196.51 12.08,-191.96 12.96,-186.59 13.85,-181.23 15.22,-175.54 16.58,-169.86 18.24,-164.92 19.90,-159.98 20.84,-155.65 21.79,-151.32 22.64,-145.03 23.48,-138.73 23.94,-132.52 24.39,-126.31 23.42,-121.52 22.45,-116.72 19.74,-113.23 17.03,-109.73 15.68,-105.60 14.34,-101.46 13.69,-96.07 13.03,-90.68 12.84,-85.44 12.65,-80.20 12.65,-74.72 12.66,-69.24 12.21,-64.02 11.76,-58.80 13.26,-53.79 14.77,-48.77 15.31,-44.11 15.85,-39.46 16.34,-34.95 16.83,-30.45 17.21,-26.03 17.59,-21.60 17.94,-16.41 18.29,-11.21 18.24,-5.83 18.19,-0.46 18.20,4.85 18.22,10.16 18.26,17.77 18.30,25.39 17.77,30.76 17.24,36.13 17.27,41.14 17.31,46.16 17.19,50.87 17.07,55.58 16.54,60.12 16.01,64.67 15.05,68.83 14.09,72.99 14.07,77.95 14.06,82.91 14.06,88.33 14.05,93.75 14.08,98.18 14.10,102.61 13.91,108.79 13.73,114.97 13.23,120.89 12.74,126.81 12.61,131.45 12.49,136.08 11.97,140.81 11.44,145.55 9.62,152.38 7.81,159.20 7.07,164.63 6.33,170.05 5.53,174.25 4.74,178.45 2.62,183.74 0.50,189.03 -1.11,193.10 -2.72,197.17 -5.56,201.05 -8.41,204.93 -13.92,210.03 -19.44,215.13 -23.43,217.35 -27.42,219.57 -31.67,221.04 -35.91,222.50 -40.01,223.84 -44.11,225.18 -50.88,227.43 -57.65,229.68 -64.19,231.74 -70.73,233.80 -76.84,234.27 -82.95,234.74 -87.19,235.57 -91.43,236.40 -96.06,237.51 -100.69,238.62 -106.53,239.53 -112.37,240.43 -118.91,240.94 -125.46,241.45 -130.02,241.56 -134.59,241.67 -139.73,242.10 -144.88,242.53 -150.56,242.42 -156.24,242.31 -162.31,242.18 -168.38,242.05 -173.96,241.90 -179.53,241.74 -184.40,241.61 -189.26,241.49 -195.10,241.57 -200.94,241.66 -205.31,241.30 -209.68,240.93 -217.20,240.30 -224.71,239.66 -232.25,239.70 -239.78,239.74 -245.83,239.91 -251.88,240.08 -261.90,239.31 -271.92,238.54 -276.26,237.55 -280.59,236.57 -286.76,235.64 -292.92,234.72 -297.38,234.05 -301.83,233.38 -307.26,232.73 -312.69,232.07 -319.37,230.47 -326.04,228.86 -331.93,227.71 -337.81,226.57 -342.25,226.12 -346.68,225.67 -351.31,225.55 -355.94,225.43 -360.80,225.29 -365.66,225.16 -370.29,225.07 -374.93,224.99 -380.63,224.87 -386.33,224.76 -393.08,224.80 -399.83,224.84 -411.15,225.42 -422.47,226.01 -427.47,225.20 -432.48,224.39 -437.07,221.51 -441.65,218.64 -447.14,213.77 -452.62,208.91 -455.42,205.60 -458.22,202.29 -460.54,197.67 -462.87,193.06 -465.05,187.11 -467.23,181.15 -468.93,177.08 -470.62,173.01 -472.27,168.04 -473.92,163.06 -475.44,158.90 -476.97,154.74 -479.23,149.60 -481.49,144.47 -483.33,139.15 -485.17,133.84 -486.22,129.47 -487.26,125.11 -487.85,120.72 -488.44,116.33 -488.80,110.64 -489.17,104.95 -489.46,99.92 -489.75,94.89 -490.59,89.75 -491.43,84.62 -491.47,79.88 -491.50,75.15 -491.47,70.62 -491.43,66.09 -491.51,60.33 -491.59,54.57 -491.60,50.16 -491.62,45.74 -491.62,38.87 -491.63,31.99 -491.43,27.59 -491.24,23.18 -490.69,18.68 -490.14,14.18 -490.10,8.81 -490.05,3.44 -489.94,-1.21 -489.82,-5.87 -488.67,-10.26 -487.52,-14.64 -487.05,-20.08 -486.57,-25.52 -484.60,-30.76 -482.63,-36.01 -482.59,-40.43 -482.56,-44.84 -482.52,-50.37 -482.49,-55.90 -482.52,-61.36 -482.55,-66.81 -482.51,-72.23 -482.47,-77.64 -482.03,-82.12 -481.59,-86.59 -480.57,-91.77 -479.55,-96.94 -478.74,-101.87 -477.94,-106.80 -476.47,-112.03 -475.00,-117.26 -473.79,-124.67 -472.58,-132.07 -471.34,-137.48 -470.09,-142.88 -468.87,-147.30 -467.65,-151.72 -465.51,-156.96 -463.37,-162.19 -462.55,-167.37 -461.74,-172.54 -459.57,-178.01 -457.40,-183.49 -454.96,-187.96 -452.53,-192.43 -450.72,-196.47 -448.91,-200.51 -443.87,-206.65 -438.83,-212.80 -434.89,-217.07 -430.96,-221.34 -426.49,-222.97 -422.02,-224.59 -416.12,-226.57 -410.23,-228.54 -405.78,-229.68 -401.33,-230.81 -394.95,-231.22 -388.56,-231.63 -384.24,-231.60 -379.92,-231.56 -375.30,-231.52 -370.68,-231.48 -366.32,-231.41 -361.96,-231.34 -357.51,-231.24 -353.06,-231.14 -348.15,-231.06 -343.24,-230.98 -338.92,-230.95 -334.60,-230.93 -329.21,-231.06 -323.82,-231.20 -318.94,-231.97 -314.05,-232.75 -309.38,-233.74 -304.71,-234.73 -296.68,-235.28 -288.65,-235.84 -283.36,-236.41 -278.06,-236.98 -272.09,-237.02 -266.12,-237.06 -261.07,-237.62 -256.02,-238.18 -250.26,-238.05 -244.50,-237.93 -239.23,-237.93 -233.95,-237.93 -226.88,-238.58 -219.81,-239.23 -209.34,-240.76 -198.88,-242.29 -191.70,-242.36 -184.52,-242.43 -178.02,-242.45 -171.52,-242.47 -166.82,-242.24 -162.12,-242.01 -156.52,-241.28 -150.92,-240.55 -145.36,-239.44 -139.81,-238.34 -135.55,-237.60 -131.29,-236.86 -126.66,-236.11 -122.03,-235.36 -117.61,-235.26 -113.19,-235.17 -108.41,-234.56 -103.64,-233.95 -98.40,-233.91 -93.15,-233.87 -88.31,-233.81 -83.46,-233.76 -78.96,-233.40 -74.47,-233.05 -69.42,-232.26 -64.38,-231.48 -60.14,-230.14 -55.91,-228.81 -51.14,-227.72 -46.37,-226.62 -42.51,-224.84 -38.64,-223.06 -32.29,-218.47 -25.95,-213.88 -23.41,-209.42 -20.87,-204.96 -19.42,-200.87 -17.97,-196.77 -16.44,-192.48 -14.90,-188.19 -13.47,-182.80 -12.04,-177.41 -10.50,-172.81 -8.96,-168.21 -6.86,-163.00 -4.75,-157.79 -3.74,-152.65 -2.74,-147.52 -2.13,-143.23 -1.53,-138.95 -0.56,-134.17 0.39,-129.39 1.19,-124.43 2.00,-119.47 3.75,-112.83 5.50,-106.18 6.56,-99.89 7.61,-93.60 8.97,-87.80 10.32,-81.99 11.24,-77.53 12.15,-73.07 13.77,-69.12 15.39,-65.18 15.97,-60.36 16.55,-55.55 16.97,-50.24 17.40,-44.94 17.17,-40.26 16.93,-35.59 16.63,-30.90 16.32,-26.20 15.81,-21.40 15.30,-16.59 13.46,-10.61 11.62,-4.63 10.78,-1.32 9.94,1.97 9.56,3.13 9.18,4.29 8.54,5.33 7.89,6.36 7.01,7.22 6.14,8.07 5.08,8.69 4.02,9.30 2.85,9.65 1.68,10.00 0.46,10.05 -0.75,10.11 -1.95,9.87 -3.15,9.63 -4.26,9.12 -5.37,8.60 -6.32,7.83 -7.27,7.06 -8.01,6.09 -8.75,5.12 -9.24,3.99 -9.72,2.87 -9.92,1.67 -10.13,0.46 -10.04,-0.75 -9.94,-1.97 -9.94,-1.97 L -9.94,-1.97 Z"></path></g><g transform="translate(407.40885416666697 118.71744791666697) rotate(0 -16.34114583333303 -13.860677083333485)" stroke="none"><path fill="#1e1e20" d="M 4.93,8.92 Q 4.93,8.92 2.59,10.42 0.26,11.92 -4.34,14.31 -8.94,16.70 -13.01,18.56 -17.07,20.43 -22.74,20.47 -28.40,20.51 -33.30,18.38 -38.19,16.25 -42.32,13.30 -46.45,10.34 -50.59,5.98 -54.74,1.63 -56.15,-3.02 -57.55,-7.68 -57.74,-12.54 -57.92,-17.39 -57.21,-23.12 -56.51,-28.86 -54.12,-33.52 -51.74,-38.19 -48.14,-41.67 -44.54,-45.14 -39.01,-47.02 -33.48,-48.90 -29.13,-50.09 -24.77,-51.27 -20.17,-51.52 -15.56,-51.76 -10.58,-51.25 -5.60,-50.75 -1.15,-49.11 3.28,-47.48 7.36,-44.27 11.43,-41.05 15.81,-36.93 20.19,-32.80 22.25,-28.53 24.30,-24.25 25.33,-19.34 26.36,-14.43 25.90,-8.28 25.45,-2.12 23.14,2.80 20.83,7.73 16.97,11.08 13.11,14.43 8.85,15.69 4.59,16.95 -1.10,17.09 -6.81,17.22 -10.90,16.03 -15.00,14.84 -18.94,12.91 -22.88,10.98 -27.15,8.84 -31.43,6.71 -35.09,3.17 -38.75,-0.36 -40.92,-5.51 -43.08,-10.65 -42.11,-16.35 -41.14,-22.06 -36.68,-26.21 -32.23,-30.36 -27.82,-31.19 -23.41,-32.02 -18.86,-31.99 -14.30,-31.95 -10.18,-30.51 -6.05,-29.06 -3.05,-25.97 -0.04,-22.88 1.10,-18.43 2.25,-13.98 1.12,-8.60 0.00,-3.22 -5.14,1.26 -10.28,5.75 -18.81,4.75 -27.34,3.76 -30.24,0.64 -33.13,-2.47 -34.13,-6.80 -35.13,-11.13 -34.48,-15.38 -33.83,-19.64 -29.45,-24.74 -25.07,-29.84 -20.16,-31.01 -15.26,-32.18 -10.89,-31.52 -6.53,-30.86 -1.38,-26.73 3.76,-22.61 5.26,-14.44 6.76,-6.27 1.02,0.89 -4.70,8.06 -7.07,8.91 -9.45,9.76 -11.97,9.81 -14.49,9.86 -16.89,9.10 -19.29,8.34 -21.33,6.85 -23.36,5.37 -24.82,3.31 -26.27,1.25 -26.99,-1.15 -27.71,-3.57 -27.62,-6.09 -27.54,-8.61 -26.65,-10.97 -25.76,-13.32 -24.16,-15.28 -22.57,-17.23 -20.44,-18.57 -18.30,-19.91 -15.85,-20.50 -13.40,-21.08 -10.89,-20.86 -8.38,-20.64 -6.07,-19.62 -3.76,-18.61 -1.90,-16.91 -0.04,-15.21 1.17,-13.01 2.40,-10.80 2.85,-8.32 3.30,-5.84 2.94,-3.35 2.58,-0.85 1.45,1.38 0.31,3.63 -1.48,5.40 -3.28,7.17 -5.54,8.27 -7.81,9.37 -10.31,9.69 -12.81,10.01 -15.28,9.51 -17.75,9.02 -19.94,7.76 -22.12,6.50 -23.79,4.61 -25.46,2.72 -26.43,0.40 -27.41,-1.91 -27.59,-4.43 -27.78,-6.94 -27.15,-9.38 -26.52,-11.82 -25.14,-13.93 -23.77,-16.05 -21.79,-17.61 -19.82,-19.17 -19.82,-19.17 -19.82,-19.17 -21.52,-16.82 -23.22,-14.46 -21.22,-8.51 -19.23,-2.57 -14.60,-2.70 -9.97,-2.84 -7.14,-8.16 -4.32,-13.48 -7.46,-17.48 -10.60,-21.47 -17.56,-21.35 -24.51,-21.23 -26.55,-16.53 -28.59,-11.83 -25.58,-6.53 -22.58,-1.23 -18.18,-4.59 -13.78,-7.95 -13.69,-12.69 -13.60,-17.42 -9.01,-16.62 -4.42,-15.81 -8.04,-19.03 -11.67,-22.25 -16.48,-22.25 -21.29,-22.24 -25.64,-22.00 -30.00,-21.76 -31.27,-17.47 -32.55,-13.17 -29.68,-9.89 -26.80,-6.61 -22.75,-5.33 -18.70,-4.04 -14.32,-5.30 -9.95,-6.57 -7.44,-7.74 -4.93,-8.92 -3.79,-9.38 -2.65,-9.84 -1.43,-10.01 -0.21,-10.19 1.00,-10.07 2.22,-9.95 3.38,-9.53 4.54,-9.12 5.57,-8.45 6.59,-7.77 7.43,-6.87 8.26,-5.97 8.85,-4.89 9.45,-3.81 9.77,-2.63 10.09,-1.44 10.11,-0.21 10.14,1.01 9.87,2.21 9.60,3.41 9.06,4.51 8.51,5.61 7.71,6.54 6.92,7.48 5.92,8.20 4.93,8.92 4.93,8.92 L 4.93,8.92 Z"></path></g><g transform="translate(356.73177083333394 246.19140625) rotate(0 -104.86002604166697 -3.91927083333303)" stroke="none"><path fill="#1e1e20" d="M -10.05,0.00 Q -10.05,0.00 -10.24,-2.41 -10.43,-4.84 -11.32,-9.85 -12.21,-14.86 -13.56,-20.22 -14.91,-25.57 -17.09,-30.68 -19.26,-35.80 -22.16,-40.33 -25.05,-44.86 -27.15,-50.44 -29.25,-56.02 -31.55,-61.04 -33.85,-66.06 -37.39,-68.63 -40.93,-71.21 -44.94,-73.63 -48.96,-76.06 -53.39,-79.19 -57.82,-82.32 -62.58,-84.44 -67.34,-86.57 -71.73,-88.40 -76.11,-90.22 -81.18,-89.91 -86.26,-89.60 -92.68,-90.46 -99.10,-91.33 -104.25,-90.59 -109.39,-89.84 -114.11,-88.73 -118.83,-87.62 -122.93,-85.17 -127.04,-82.72 -130.79,-80.22 -134.55,-77.71 -138.52,-75.35 -142.49,-72.99 -147.12,-69.89 -151.76,-66.80 -156.19,-64.28 -160.61,-61.77 -165.08,-58.65 -169.55,-55.54 -171.96,-51.90 -174.38,-48.26 -176.55,-44.30 -178.73,-40.34 -181.29,-33.97 -183.86,-27.61 -184.74,-22.65 -185.63,-17.69 -185.65,-12.29 -185.68,-6.88 -185.69,-1.65 -185.70,3.57 -184.47,7.77 -183.23,11.97 -181.95,16.74 -180.66,21.50 -179.95,25.75 -179.24,30.00 -177.48,34.41 -175.72,38.82 -174.39,42.88 -173.06,46.94 -171.81,51.05 -170.56,55.16 -166.30,58.58 -162.05,62.00 -156.84,62.82 -151.64,63.63 -147.38,64.96 -143.13,66.29 -138.39,66.93 -133.66,67.56 -128.11,67.68 -122.56,67.79 -117.00,67.79 -111.45,67.78 -106.59,67.77 -101.73,67.75 -97.18,66.45 -92.63,65.16 -88.10,64.42 -83.56,63.68 -78.67,63.17 -73.78,62.65 -68.31,61.02 -62.85,59.39 -57.16,55.85 -51.47,52.31 -47.10,48.92 -42.72,45.54 -37.70,41.98 -32.69,38.43 -29.52,33.83 -26.34,29.22 -25.79,24.97 -25.23,20.73 -25.71,16.20 -26.19,11.67 -26.39,7.12 -26.60,2.57 -26.61,-2.09 -26.63,-6.77 -26.63,-11.91 -26.63,-17.05 -26.07,-21.74 -25.50,-26.42 -24.90,-30.79 -24.31,-35.15 -25.68,-40.53 -27.04,-45.91 -28.86,-49.95 -30.68,-53.98 -34.14,-58.89 -37.60,-63.79 -40.78,-66.78 -43.97,-69.76 -47.80,-72.31 -51.64,-74.86 -55.76,-76.72 -59.88,-78.58 -64.27,-81.50 -68.66,-84.43 -74.28,-86.63 -79.91,-88.82 -85.55,-91.16 -91.19,-93.49 -95.89,-94.18 -100.60,-94.86 -105.46,-95.53 -110.32,-96.20 -114.89,-96.66 -119.47,-97.13 -125.48,-96.63 -131.48,-96.14 -137.02,-94.81 -142.56,-93.48 -147.21,-91.74 -151.86,-90.00 -155.83,-87.57 -159.80,-85.14 -163.00,-82.23 -166.19,-79.32 -169.97,-76.04 -173.75,-72.77 -177.07,-67.82 -180.40,-62.88 -182.07,-58.18 -183.75,-53.48 -185.63,-48.77 -187.51,-44.05 -188.82,-39.88 -190.14,-35.71 -192.07,-30.60 -194.01,-25.49 -195.70,-20.22 -197.40,-14.95 -198.32,-10.75 -199.23,-6.55 -199.30,-2.24 -199.36,2.06 -197.34,6.62 -195.32,11.18 -192.72,14.96 -190.11,18.75 -187.79,22.78 -185.47,26.81 -183.10,31.45 -180.73,36.09 -179.15,40.24 -177.56,44.38 -175.36,49.24 -173.16,54.09 -168.92,57.93 -164.68,61.76 -161.47,64.55 -158.27,67.34 -154.76,70.28 -151.25,73.22 -147.28,75.58 -143.31,77.94 -139.60,80.09 -135.89,82.23 -131.80,84.18 -127.71,86.14 -123.36,87.34 -119.00,88.54 -114.06,88.92 -109.12,89.30 -104.39,89.41 -99.67,89.52 -94.25,88.48 -88.84,87.43 -83.87,86.52 -78.90,85.61 -72.97,83.96 -67.05,82.31 -62.82,81.75 -58.60,81.18 -53.94,78.92 -49.28,76.65 -45.52,74.39 -41.76,72.13 -38.48,68.24 -35.20,64.36 -32.40,60.90 -29.60,57.44 -26.79,53.23 -23.97,49.01 -22.80,43.00 -21.63,36.99 -20.08,33.01 -18.53,29.02 -16.99,24.54 -15.44,20.06 -13.15,13.97 -10.86,7.87 -10.76,3.60 -10.65,-0.67 -10.67,-5.62 -10.69,-10.58 -11.12,-14.90 -11.56,-19.22 -11.97,-23.85 -12.39,-28.47 -13.50,-32.67 -14.61,-36.87 -16.62,-42.60 -18.63,-48.33 -22.22,-53.91 -25.80,-59.49 -29.04,-64.96 -32.28,-70.44 -28.83,-67.35 -25.37,-64.27 -29.73,-66.21 -34.10,-68.15 -38.36,-68.16 -42.62,-68.16 -48.86,-70.50 -55.09,-72.84 -58.81,-75.01 -62.53,-77.19 -67.26,-79.57 -71.98,-81.96 -72.05,-81.01 -72.12,-80.05 -74.61,-80.47 -77.10,-80.89 -79.32,-82.08 -81.55,-83.28 -83.27,-85.12 -85.00,-86.96 -86.05,-89.26 -87.10,-91.55 -87.36,-94.06 -87.63,-96.57 -87.07,-99.04 -86.52,-101.50 -85.21,-103.66 -83.89,-105.82 -81.96,-107.44 -80.03,-109.07 -77.68,-109.99 -75.33,-110.92 -72.81,-111.04 -70.29,-111.17 -67.86,-110.48 -65.43,-109.79 -63.34,-108.37 -61.26,-106.94 -59.74,-104.92 -58.22,-102.91 -57.43,-100.51 -56.63,-98.11 -56.64,-95.59 -56.66,-93.06 -57.47,-90.67 -58.29,-88.28 -59.83,-86.28 -61.37,-84.28 -63.46,-82.87 -65.56,-81.46 -68.00,-80.80 -70.43,-80.14 -72.95,-80.28 -75.47,-80.43 -77.81,-81.38 -80.15,-82.32 -82.07,-83.97 -83.99,-85.61 -85.28,-87.78 -86.57,-89.95 -87.10,-92.42 -87.63,-94.89 -87.35,-97.40 -87.06,-99.91 -85.99,-102.19 -84.92,-104.48 -83.18,-106.30 -81.43,-108.13 -79.19,-109.30 -76.96,-110.47 -74.46,-110.87 -71.97,-111.27 -71.97,-111.27 -71.98,-111.27 -68.30,-111.15 -64.63,-111.04 -60.03,-109.74 -55.42,-108.43 -50.83,-105.97 -46.23,-103.51 -42.04,-101.15 -37.85,-98.79 -32.97,-98.42 -28.09,-98.04 -24.01,-96.49 -19.93,-94.93 -15.12,-92.71 -10.32,-90.49 -7.36,-87.05 -4.41,-83.62 -2.04,-79.59 0.31,-75.56 3.16,-70.84 6.00,-66.11 8.21,-62.31 10.41,-58.52 12.27,-53.45 14.12,-48.38 15.40,-42.61 16.67,-36.84 17.90,-31.00 19.13,-25.17 19.32,-20.84 19.50,-16.50 19.86,-10.54 20.23,-4.57 20.20,-0.15 20.17,4.27 19.87,8.52 19.56,12.76 17.70,16.89 15.84,21.01 13.71,26.62 11.59,32.24 10.65,37.17 9.71,42.09 7.63,45.89 5.55,49.69 4.74,54.73 3.93,59.77 0.69,66.20 -2.53,72.62 -5.49,76.22 -8.45,79.82 -11.41,83.20 -14.36,86.58 -17.99,90.25 -21.61,93.93 -25.71,97.04 -29.82,100.16 -34.21,102.59 -38.59,105.03 -43.09,107.07 -47.58,109.12 -52.33,110.27 -57.08,111.43 -61.31,111.93 -65.55,112.43 -70.41,113.96 -75.27,115.48 -82.15,116.58 -89.02,117.67 -94.37,118.67 -99.72,119.68 -104.81,119.72 -109.89,119.76 -115.50,119.26 -121.10,118.76 -126.80,117.85 -132.51,116.95 -136.55,115.44 -140.59,113.93 -144.71,111.83 -148.82,109.73 -153.76,106.92 -158.69,104.10 -162.69,101.58 -166.68,99.05 -172.70,94.57 -178.72,90.08 -182.68,86.59 -186.64,83.09 -190.82,79.25 -195.00,75.41 -198.13,70.98 -201.26,66.55 -202.30,62.37 -203.34,58.19 -206.76,51.69 -210.17,45.20 -212.39,40.80 -214.62,36.41 -217.39,32.55 -220.17,28.70 -222.65,24.85 -225.13,21.01 -226.88,16.28 -228.64,11.54 -229.11,5.54 -229.58,-0.46 -229.36,-5.68 -229.13,-10.91 -227.91,-16.74 -226.69,-22.57 -225.22,-27.15 -223.75,-31.72 -221.91,-35.98 -220.07,-40.24 -218.97,-45.28 -217.87,-50.31 -215.31,-56.90 -212.76,-63.49 -210.71,-68.34 -208.66,-73.19 -206.46,-77.46 -204.27,-81.73 -201.51,-86.03 -198.75,-90.32 -195.86,-93.59 -192.96,-96.85 -189.46,-99.86 -185.97,-102.86 -182.10,-106.08 -178.24,-109.30 -173.42,-112.41 -168.60,-115.52 -164.01,-117.81 -159.43,-120.11 -153.84,-121.85 -148.26,-123.59 -143.96,-124.49 -139.66,-125.38 -133.03,-126.58 -126.39,-127.78 -121.80,-127.77 -117.20,-127.75 -112.69,-127.18 -108.17,-126.62 -103.06,-126.00 -97.95,-125.39 -92.42,-124.88 -86.89,-124.38 -82.11,-122.77 -77.34,-121.17 -73.16,-119.16 -68.97,-117.16 -63.56,-115.18 -58.14,-113.20 -53.35,-110.11 -48.56,-107.03 -44.19,-104.92 -39.82,-102.81 -35.19,-100.16 -30.56,-97.51 -25.78,-94.74 -21.00,-91.97 -17.31,-87.78 -13.62,-83.59 -10.80,-79.77 -7.99,-75.94 -5.88,-72.16 -3.78,-68.37 -1.54,-63.41 0.69,-58.45 2.95,-53.95 5.20,-49.44 5.82,-43.73 6.45,-38.02 6.29,-33.64 6.12,-29.27 5.38,-24.84 4.64,-20.41 4.41,-15.74 4.19,-11.06 4.19,-6.12 4.18,-1.19 4.22,3.49 4.26,8.17 4.87,14.76 5.48,21.34 4.98,26.68 4.48,32.01 3.54,36.49 2.60,40.97 0.22,45.10 -2.16,49.22 -5.19,53.22 -8.22,57.21 -12.34,60.73 -16.46,64.24 -20.93,67.49 -25.40,70.74 -29.60,73.88 -33.80,77.02 -37.47,79.88 -41.14,82.74 -45.42,84.99 -49.70,87.24 -55.25,88.70 -60.80,90.16 -66.15,91.49 -71.51,92.82 -76.76,93.53 -82.02,94.24 -87.59,95.77 -93.17,97.30 -97.45,97.81 -101.73,98.32 -106.59,98.30 -111.45,98.29 -117.07,98.27 -122.68,98.26 -127.75,98.22 -132.82,98.17 -137.95,97.52 -143.08,96.86 -148.03,96.11 -152.99,95.37 -157.29,94.05 -161.59,92.73 -166.32,91.44 -171.04,90.14 -176.58,87.95 -182.11,85.76 -186.61,82.19 -191.10,78.63 -193.87,74.65 -196.64,70.68 -198.50,66.85 -200.37,63.03 -201.98,57.73 -203.60,52.42 -205.46,45.95 -207.32,39.47 -208.66,34.36 -209.99,29.24 -211.18,24.98 -212.36,20.73 -213.73,15.18 -215.10,9.64 -215.61,3.01 -216.13,-3.61 -216.16,-8.73 -216.19,-13.86 -216.10,-18.53 -216.01,-23.20 -214.83,-28.90 -213.65,-34.59 -212.16,-38.65 -210.66,-42.71 -208.06,-48.67 -205.47,-54.64 -203.04,-59.23 -200.61,-63.83 -197.64,-68.29 -194.67,-72.75 -190.22,-77.07 -185.77,-81.39 -181.99,-83.90 -178.21,-86.41 -174.36,-88.79 -170.52,-91.17 -166.47,-93.19 -162.42,-95.20 -158.42,-97.69 -154.43,-100.18 -150.88,-102.66 -147.33,-105.14 -142.93,-107.67 -138.54,-110.19 -133.35,-112.99 -128.17,-115.79 -123.14,-117.07 -118.10,-118.35 -111.25,-119.80 -104.39,-121.25 -100.10,-121.29 -95.80,-121.34 -90.99,-120.26 -86.19,-119.18 -79.90,-119.20 -73.61,-119.23 -68.96,-118.26 -64.30,-117.30 -58.58,-115.06 -52.86,-112.82 -48.73,-110.74 -44.60,-108.65 -40.25,-105.61 -35.91,-102.56 -32.12,-100.22 -28.33,-97.89 -24.60,-94.93 -20.86,-91.97 -17.57,-89.00 -14.28,-86.03 -10.65,-79.37 -7.02,-72.71 -4.86,-67.35 -2.70,-61.99 -1.13,-56.90 0.42,-51.81 2.96,-47.30 5.51,-42.80 6.50,-38.45 7.49,-34.10 8.18,-29.75 8.88,-25.39 9.61,-20.07 10.34,-14.75 10.38,-9.80 10.42,-4.85 10.24,-2.43 10.05,-0.00 9.90,1.19 9.76,2.39 9.33,3.53 8.90,4.66 8.21,5.66 7.52,6.66 6.62,7.46 5.71,8.26 4.64,8.83 3.57,9.39 2.39,9.68 1.21,9.97 0.00,9.97 -1.20,9.98 -2.38,9.69 -3.55,9.40 -4.63,8.83 -5.70,8.27 -6.61,7.47 -7.52,6.67 -8.20,5.67 -8.89,4.67 -9.32,3.54 -9.75,2.41 -9.90,1.20 -10.05,0.00 -10.05,0.00 L -10.05,0.00 Z"></path></g></svg>