<svg version="1.1" xmlns="http://www.w3.org/2000/svg" viewBox="0 0 978.834635416667 985.17578125" width="978.834635416667" height="985.17578125">
  <!-- svg-source:excalidraw -->
  
  <defs>
    <style class="style-fonts">
      @font-face {
        font-family: "Virgil";
        src: url("https://excalidraw.com/Virgil.woff2");
      }
      @font-face {
        font-family: "Cascadia";
        src: url("https://excalidraw.com/Cascadia.woff2");
      }
    </style>
  </defs>
  <g transform="translate(498.80859375 10) rotate(0 -9.391276041666515 482.587890625)" stroke="none"><path fill="#1e1e20" d="M 1.90,10.37 Q 1.90,10.37 -1.67,11.17 -5.25,11.97 -10.31,12.74 -15.36,13.50 -19.76,13.82 -24.16,14.13 -29.50,14.83 -34.84,15.53 -39.19,16.97 -43.54,18.40 -47.74,19.40 -51.93,20.40 -56.26,21.28 -60.58,22.15 -65.66,24.01 -70.73,25.88 -76.92,28.43 -83.10,30.98 -88.06,33.18 -93.03,35.38 -97.53,36.95 -102.03,38.53 -106.50,40.37 -110.96,42.22 -115.44,43.95 -119.91,45.69 -125.20,47.83 -130.48,49.97 -135.66,51.29 -140.83,52.61 -145.04,53.82 -149.25,55.02 -154.31,55.86 -159.37,56.71 -164.09,57.70 -168.82,58.70 -173.77,59.98 -178.72,61.26 -183.33,61.84 -187.94,62.42 -192.87,63.84 -197.80,65.27 -202.29,66.36 -206.78,67.46 -211.75,68.75 -216.71,70.04 -221.83,71.93 -226.95,73.82 -231.53,75.68 -236.12,77.54 -240.11,79.05 -244.11,80.55 -249.31,83.00 -254.52,85.44 -257.91,88.12 -261.30,90.81 -264.78,93.49 -268.26,96.17 -271.91,99.47 -275.57,102.77 -278.03,107.19 -280.49,111.60 -284.14,116.41 -287.79,121.21 -291.11,124.75 -294.43,128.29 -296.95,131.77 -299.47,135.24 -302.65,139.36 -305.83,143.48 -309.45,146.43 -313.07,149.37 -317.95,152.85 -322.83,156.33 -327.20,161.01 -331.57,165.68 -336.41,170.00 -341.26,174.31 -345.72,177.79 -350.18,181.27 -353.42,184.36 -356.67,187.46 -360.42,192.59 -364.18,197.71 -367.38,202.20 -370.57,206.69 -374.29,210.51 -378.00,214.32 -380.04,218.24 -382.07,222.15 -384.74,226.31 -387.42,230.46 -390.35,234.08 -393.28,237.69 -395.81,242.55 -398.34,247.42 -401.46,250.86 -404.59,254.29 -407.94,259.12 -411.28,263.95 -413.31,268.31 -415.33,272.67 -417.28,278.94 -419.23,285.21 -420.91,289.55 -422.59,293.90 -425.08,299.25 -427.57,304.59 -431.10,309.97 -434.63,315.34 -437.23,319.46 -439.82,323.57 -443.03,328.18 -446.23,332.79 -447.94,337.32 -449.65,341.86 -451.72,349.08 -453.80,356.30 -455.53,362.54 -457.26,368.78 -458.72,373.09 -460.19,377.41 -461.58,382.67 -462.97,387.93 -464.97,393.12 -466.97,398.30 -467.00,402.72 -467.03,407.13 -467.90,412.17 -468.77,417.21 -469.94,421.37 -471.10,425.54 -471.98,431.41 -472.85,437.29 -473.63,441.84 -474.41,446.39 -474.45,451.47 -474.50,456.54 -474.56,462.23 -474.63,467.92 -473.78,472.91 -472.93,477.90 -471.35,483.95 -469.76,490.00 -467.87,494.92 -465.98,499.85 -464.08,503.90 -462.18,507.96 -460.03,512.29 -457.88,516.63 -456.47,520.73 -455.06,524.82 -453.24,530.43 -451.42,536.03 -451.03,541.17 -450.64,546.30 -450.20,551.38 -449.76,556.46 -449.64,561.65 -449.51,566.84 -448.38,571.76 -447.24,576.69 -446.27,582.06 -445.29,587.42 -444.06,592.97 -442.83,598.51 -441.41,603.18 -440.00,607.85 -439.02,613.43 -438.04,619.01 -436.99,623.81 -435.95,628.60 -435.64,633.64 -435.34,638.67 -434.94,643.41 -434.54,648.15 -433.45,653.16 -432.36,658.17 -430.46,664.91 -428.56,671.65 -426.53,676.55 -424.50,681.44 -421.51,687.10 -418.52,692.76 -416.55,697.13 -414.58,701.50 -412.38,706.04 -410.17,710.57 -407.09,715.24 -404.02,719.91 -400.88,724.91 -397.74,729.91 -395.98,734.34 -394.21,738.78 -390.81,743.36 -387.41,747.94 -384.71,751.98 -382.02,756.03 -378.86,759.29 -375.71,762.55 -372.44,766.24 -369.16,769.93 -365.56,773.24 -361.97,776.56 -358.48,779.29 -354.98,782.03 -349.00,785.32 -343.03,788.61 -338.87,791.20 -334.71,793.80 -328.12,798.60 -321.53,803.40 -316.68,806.62 -311.83,809.84 -308.08,813.21 -304.33,816.59 -301.40,820.89 -298.46,825.19 -295.53,828.45 -292.59,831.71 -289.16,835.95 -285.74,840.19 -282.25,844.28 -278.77,848.38 -275.42,851.80 -272.07,855.22 -266.71,858.35 -261.35,861.48 -256.48,864.94 -251.62,868.40 -247.78,872.12 -243.93,875.84 -240.10,878.88 -236.27,881.91 -232.41,883.87 -228.54,885.82 -224.12,888.21 -219.70,890.61 -215.04,893.16 -210.37,895.71 -204.66,897.56 -198.95,899.41 -192.03,901.55 -185.10,903.68 -178.35,906.73 -171.60,909.79 -166.68,911.88 -161.76,913.98 -155.87,916.20 -149.99,918.42 -145.73,920.85 -141.47,923.28 -136.07,925.12 -130.66,926.95 -125.48,927.96 -120.30,928.96 -114.14,930.31 -107.98,931.65 -103.52,932.68 -99.05,933.71 -92.15,935.04 -85.25,936.37 -77.66,937.41 -70.06,938.46 -65.70,939.13 -61.34,939.81 -52.73,940.40 -44.12,941.00 -38.50,941.22 -32.87,941.43 -26.82,942.60 -20.77,943.77 -15.76,945.01 -10.75,946.26 -3.77,946.41 3.21,946.56 8.79,947.44 14.36,948.32 18.92,948.62 23.47,948.92 32.20,949.74 40.93,950.57 46.35,950.92 51.76,951.27 56.81,951.21 61.86,951.16 66.40,950.52 70.93,949.87 75.66,948.95 80.38,948.02 86.32,946.86 92.27,945.70 97.61,943.53 102.95,941.35 108.74,939.62 114.54,937.90 119.52,936.32 124.49,934.74 128.93,933.47 133.37,932.20 138.83,929.35 144.29,926.51 148.43,925.05 152.57,923.60 157.06,921.57 161.55,919.55 167.18,917.59 172.80,915.63 177.46,913.51 182.11,911.39 186.11,909.90 190.10,908.41 194.93,904.51 199.75,900.62 204.40,897.84 209.04,895.06 211.91,891.80 214.79,888.55 218.17,885.49 221.56,882.44 225.70,879.65 229.84,876.86 233.38,873.22 236.92,869.58 240.95,866.42 244.98,863.26 249.75,859.91 254.52,856.56 258.53,852.50 262.54,848.44 267.08,844.44 271.62,840.44 274.02,835.92 276.42,831.39 278.75,827.26 281.09,823.13 284.92,817.48 288.75,811.84 292.18,808.71 295.62,805.58 300.58,803.31 305.54,801.04 309.84,799.52 314.15,797.99 318.58,796.03 323.00,794.06 326.93,791.82 330.86,789.58 334.79,787.13 338.72,784.68 343.29,782.29 347.85,779.89 351.67,776.73 355.48,773.57 359.17,770.39 362.87,767.21 365.66,763.66 368.46,760.11 371.21,756.23 373.96,752.36 376.71,748.81 379.46,745.27 381.13,741.22 382.80,737.18 385.71,731.91 388.62,726.64 391.69,720.83 394.76,715.02 397.45,709.92 400.14,704.82 403.24,698.37 406.34,691.91 408.07,686.74 409.80,681.57 410.96,677.13 412.12,672.69 413.40,667.90 414.68,663.12 415.54,655.67 416.40,648.23 417.38,643.36 418.36,638.49 420.07,633.22 421.79,627.94 424.35,619.95 426.91,611.96 428.60,605.70 430.29,599.44 431.61,594.74 432.93,590.04 434.22,584.97 435.51,579.91 435.54,575.28 435.58,570.66 435.83,564.36 436.07,558.05 437.41,552.44 438.75,546.82 439.71,541.40 440.67,535.98 441.74,531.35 442.81,526.72 443.52,521.42 444.24,516.12 445.82,511.23 447.41,506.35 448.26,501.86 449.11,497.37 449.84,492.47 450.57,487.58 451.51,483.39 452.44,479.20 453.27,473.01 454.11,466.82 454.55,462.13 454.99,457.44 455.00,452.67 455.01,447.89 454.62,441.86 454.23,435.83 453.34,430.37 452.45,424.92 450.99,419.03 449.52,413.15 448.52,406.06 447.51,398.97 446.47,394.10 445.42,389.24 444.16,384.69 442.90,380.15 442.29,375.58 441.69,371.01 440.14,366.12 438.59,361.22 437.66,355.60 436.73,349.98 434.91,345.80 433.09,341.62 431.03,336.86 428.97,332.10 425.97,323.52 422.97,314.94 420.82,310.88 418.68,306.81 416.46,302.31 414.24,297.81 412.01,292.28 409.79,286.74 408.81,282.37 407.83,277.99 405.55,272.15 403.26,266.31 401.82,260.12 400.38,253.92 398.64,249.70 396.90,245.48 395.24,240.66 393.58,235.84 391.88,231.18 390.18,226.52 387.27,221.24 384.36,215.96 381.43,211.89 378.49,207.82 375.31,204.11 372.13,200.39 368.38,197.06 364.63,193.73 361.35,190.08 358.07,186.43 354.26,182.70 350.45,178.97 347.23,175.35 344.01,171.73 340.06,168.74 336.10,165.75 332.24,162.44 328.38,159.14 324.55,155.94 320.71,152.74 316.27,149.89 311.83,147.04 306.63,143.51 301.43,139.97 297.36,136.64 293.29,133.32 289.58,128.74 285.86,124.15 281.70,119.41 277.54,114.66 274.70,111.01 271.86,107.35 268.56,103.40 265.25,99.44 262.50,95.77 259.74,92.11 256.25,87.23 252.76,82.34 248.92,78.70 245.07,75.07 240.63,72.23 236.18,69.39 232.26,67.21 228.34,65.04 225.00,62.18 221.67,59.32 217.27,57.23 212.87,55.14 208.06,53.19 203.24,51.24 197.04,49.41 190.83,47.58 185.66,46.83 180.49,46.09 176.08,45.34 171.67,44.59 166.91,43.15 162.15,41.70 156.00,40.76 149.85,39.82 145.27,38.49 140.69,37.15 136.48,36.03 132.27,34.90 128.20,32.92 124.14,30.95 120.03,29.53 115.92,28.11 113.82,27.34 111.73,26.57 109.37,25.88 107.02,25.19 105.01,23.78 103.00,22.37 101.54,20.40 100.09,18.42 99.34,16.08 98.59,13.75 98.63,11.29 98.66,8.84 99.48,6.52 100.30,4.21 101.82,2.28 103.33,0.35 105.38,-0.99 107.43,-2.33 109.81,-2.96 112.18,-3.58 114.63,-3.41 117.08,-3.24 119.35,-2.29 121.61,-1.35 123.46,0.26 125.31,1.87 126.54,4.00 127.77,6.12 128.26,8.52 128.75,10.93 128.45,13.36 128.15,15.80 127.08,18.01 126.02,20.22 124.31,21.98 122.59,23.73 120.40,24.85 118.22,25.97 115.79,26.33 113.36,26.69 110.95,26.25 108.53,25.82 106.38,24.64 104.23,23.45 102.57,21.65 100.91,19.84 99.91,17.60 98.92,15.35 98.69,12.91 98.46,10.47 99.03,8.08 99.59,5.69 100.89,3.60 102.19,1.52 104.08,-0.03 105.97,-1.59 108.27,-2.46 110.56,-3.34 113.01,-3.43 115.47,-3.53 115.46,-3.53 115.46,-3.53 122.62,-0.98 129.77,1.56 134.83,3.47 139.89,5.38 144.16,6.71 148.42,8.05 154.40,9.46 160.38,10.87 165.90,11.96 171.41,13.05 176.54,14.53 181.68,16.00 187.78,17.11 193.89,18.22 198.08,18.92 202.28,19.61 207.25,21.30 212.22,22.99 218.33,25.40 224.43,27.81 229.79,30.59 235.15,33.37 240.37,37.18 245.59,40.99 251.71,44.34 257.84,47.69 262.17,50.71 266.51,53.74 269.79,57.02 273.07,60.30 275.75,63.85 278.43,67.41 281.81,71.97 285.20,76.53 288.42,80.47 291.64,84.41 294.74,88.14 297.83,91.87 300.88,95.80 303.93,99.73 307.69,104.57 311.44,109.41 316.05,113.38 320.66,117.36 325.42,120.42 330.18,123.49 335.06,126.68 339.93,129.87 343.26,132.68 346.59,135.48 350.00,138.46 353.41,141.45 357.21,144.39 361.02,147.34 364.24,150.48 367.45,153.62 370.22,156.94 372.99,160.26 377.76,164.80 382.54,169.34 385.98,173.08 389.43,176.81 393.14,180.40 396.85,183.99 399.53,187.35 402.21,190.72 405.27,195.10 408.32,199.47 410.88,203.90 413.43,208.32 415.88,213.63 418.33,218.94 419.88,224.38 421.44,229.81 423.17,233.93 424.90,238.06 426.55,244.34 428.20,250.63 429.30,255.47 430.41,260.31 432.45,265.63 434.48,270.94 436.32,276.82 438.17,282.71 440.55,287.90 442.93,293.09 445.71,298.41 448.49,303.72 451.75,310.10 455.01,316.48 457.02,321.59 459.03,326.71 460.69,330.95 462.36,335.20 464.12,339.84 465.88,344.49 466.65,348.96 467.41,353.43 468.28,357.60 469.15,361.77 470.13,366.82 471.10,371.87 472.56,376.82 474.02,381.77 475.12,386.68 476.22,391.59 476.87,396.16 477.52,400.73 478.19,405.08 478.86,409.43 480.09,415.10 481.32,420.77 482.31,425.90 483.31,431.02 484.16,436.00 485.01,440.99 485.02,445.82 485.02,450.65 485.02,455.70 485.02,460.75 484.70,465.33 484.38,469.90 483.16,475.36 481.94,480.82 481.15,485.72 480.35,490.63 479.06,495.76 477.78,500.90 476.51,506.82 475.23,512.75 473.77,516.78 472.31,520.82 471.28,525.88 470.24,530.94 468.79,536.54 467.34,542.15 466.17,547.55 465.00,552.95 463.79,557.35 462.59,561.75 461.63,566.70 460.68,571.66 460.22,576.16 459.76,580.66 458.20,586.24 456.65,591.82 454.81,598.12 452.97,604.41 451.94,610.55 450.92,616.70 449.13,629.42 447.35,642.14 446.02,646.84 444.69,651.54 444.24,657.86 443.79,664.18 442.24,669.38 440.69,674.58 439.56,680.16 438.43,685.74 437.08,690.03 435.72,694.31 434.14,698.76 432.56,703.21 429.98,709.11 427.39,715.01 425.16,719.24 422.94,723.47 420.48,728.93 418.02,734.38 415.36,739.15 412.69,743.92 410.28,748.74 407.88,753.57 405.92,758.04 403.97,762.51 401.38,765.99 398.80,769.47 395.84,773.66 392.89,777.84 388.50,783.41 384.12,788.98 380.64,792.14 377.16,795.29 373.77,797.98 370.38,800.67 364.87,804.50 359.36,808.33 354.61,810.68 349.86,813.04 344.40,816.47 338.93,819.90 334.97,821.70 331.01,823.50 325.15,825.91 319.30,828.31 315.12,829.77 310.94,831.23 308.56,835.49 306.17,839.75 303.82,843.71 301.47,847.68 297.72,853.81 293.97,859.94 290.68,863.14 287.39,866.34 282.97,870.40 278.54,874.47 274.41,878.34 270.28,882.22 265.28,886.01 260.28,889.79 256.03,893.74 251.78,897.69 247.03,900.94 242.29,904.19 238.98,907.09 235.68,909.98 232.77,913.18 229.86,916.38 225.91,919.22 221.96,922.06 217.16,925.15 212.35,928.25 207.49,931.73 202.63,935.20 197.72,936.99 192.81,938.78 187.75,941.05 182.69,943.32 178.58,944.83 174.47,946.34 170.03,948.00 165.59,949.66 160.61,951.33 155.62,952.99 151.11,955.37 146.60,957.76 142.12,959.47 137.63,961.18 131.50,962.82 125.36,964.46 118.86,966.58 112.37,968.70 107.50,970.47 102.63,972.23 96.38,973.81 90.13,975.39 85.00,976.06 79.87,976.73 74.95,978.03 70.03,979.34 64.83,979.22 59.64,979.11 55.09,978.92 50.55,978.74 43.73,978.33 36.92,977.91 29.71,977.42 22.49,976.93 16.58,976.38 10.67,975.82 3.66,975.49 -3.35,975.16 -9.50,974.70 -15.65,974.25 -21.54,972.93 -27.42,971.61 -32.22,970.78 -37.03,969.95 -41.88,969.68 -46.73,969.40 -53.57,969.14 -60.41,968.88 -66.09,968.25 -71.77,967.62 -76.55,966.58 -81.33,965.53 -87.79,964.70 -94.25,963.86 -101.22,962.64 -108.20,961.42 -113.63,960.02 -119.06,958.62 -125.71,957.53 -132.36,956.44 -137.17,955.10 -141.99,953.77 -146.52,952.14 -151.05,950.51 -155.38,948.30 -159.71,946.10 -163.65,944.22 -167.59,942.35 -172.24,940.61 -176.89,938.86 -182.52,936.18 -188.15,933.49 -192.18,932.01 -196.21,930.53 -200.63,929.41 -205.06,928.29 -209.28,926.68 -213.51,925.08 -219.47,922.92 -225.44,920.77 -229.86,918.31 -234.29,915.85 -239.03,913.22 -243.77,910.59 -247.94,908.37 -252.11,906.14 -255.92,903.59 -259.73,901.05 -264.01,896.29 -268.28,891.54 -271.71,888.97 -275.13,886.40 -279.58,883.45 -284.03,880.49 -287.87,877.46 -291.71,874.43 -295.13,870.87 -298.54,867.32 -302.82,863.32 -307.09,859.31 -313.27,852.75 -319.44,846.19 -321.60,842.48 -323.76,838.77 -327.18,835.53 -330.60,832.28 -335.01,829.48 -339.43,826.67 -344.44,823.19 -349.46,819.71 -353.26,817.36 -357.05,815.01 -361.67,811.80 -366.29,808.59 -372.54,804.85 -378.79,801.11 -383.04,797.60 -387.29,794.09 -391.23,790.06 -395.17,786.04 -398.23,782.50 -401.28,778.96 -404.49,775.11 -407.69,771.26 -410.52,766.55 -413.34,761.84 -416.13,758.12 -418.92,754.41 -420.98,750.12 -423.05,745.83 -425.58,741.46 -428.12,737.09 -430.46,732.40 -432.81,727.70 -435.14,724.05 -437.46,720.40 -439.63,715.11 -441.80,709.81 -444.11,705.81 -446.42,701.81 -450.43,694.61 -454.45,687.42 -456.27,680.55 -458.08,673.68 -459.58,669.42 -461.08,665.15 -462.09,659.70 -463.09,654.25 -463.67,648.67 -464.26,643.08 -464.87,636.81 -465.48,630.53 -466.38,626.17 -467.28,621.81 -468.24,616.10 -469.19,610.38 -471.14,604.18 -473.10,597.97 -473.88,591.83 -474.66,585.69 -476.07,581.37 -477.48,577.05 -478.03,569.01 -478.57,560.97 -479.30,556.69 -480.02,552.40 -480.01,547.72 -479.99,543.03 -481.28,538.58 -482.57,534.12 -484.81,528.62 -487.05,523.12 -489.49,517.79 -491.94,512.46 -493.56,507.66 -495.17,502.87 -496.84,498.02 -498.50,493.17 -499.88,487.53 -501.25,481.89 -502.12,474.90 -502.98,467.90 -503.03,462.13 -503.08,456.37 -502.93,451.58 -502.77,446.80 -502.24,442.09 -501.71,437.38 -500.80,432.89 -499.88,428.41 -499.05,423.26 -498.23,418.12 -497.08,412.34 -495.94,406.56 -495.73,401.22 -495.51,395.87 -494.13,390.18 -492.74,384.50 -490.87,378.71 -488.99,372.93 -487.59,367.48 -486.19,362.04 -484.31,356.42 -482.43,350.80 -480.66,344.90 -478.89,339.01 -477.89,334.00 -476.90,328.99 -474.89,324.52 -472.89,320.05 -470.15,316.74 -467.41,313.42 -465.31,309.46 -463.20,305.50 -460.72,301.88 -458.25,298.25 -455.92,294.48 -453.59,290.71 -451.17,285.38 -448.75,280.05 -446.88,274.88 -445.01,269.72 -443.67,265.06 -442.32,260.40 -440.42,256.08 -438.51,251.76 -435.91,247.24 -433.31,242.71 -429.65,238.22 -425.98,233.74 -422.77,229.38 -419.55,225.03 -416.55,220.34 -413.55,215.66 -410.61,211.46 -407.68,207.27 -405.86,203.07 -404.03,198.87 -400.01,194.76 -395.98,190.66 -392.91,186.23 -389.85,181.81 -385.73,176.75 -381.61,171.69 -376.74,166.16 -371.87,160.64 -367.13,156.76 -362.39,152.88 -358.88,150.32 -355.37,147.76 -352.16,143.25 -348.96,138.73 -344.35,135.11 -339.74,131.49 -334.66,128.11 -329.58,124.72 -326.61,120.85 -323.63,116.98 -319.61,112.08 -315.59,107.18 -312.46,103.94 -309.32,100.71 -306.27,96.76 -303.21,92.82 -301.16,88.89 -299.10,84.96 -295.52,81.48 -291.95,78.01 -287.38,74.31 -282.81,70.61 -277.20,65.96 -271.58,61.30 -267.58,59.18 -263.57,57.05 -259.21,55.02 -254.85,53.00 -249.70,51.03 -244.54,49.06 -240.39,47.40 -236.23,45.74 -231.34,43.93 -226.44,42.13 -220.77,40.40 -215.10,38.68 -210.37,37.53 -205.64,36.38 -198.95,34.75 -192.27,33.11 -187.37,32.38 -182.47,31.64 -176.47,30.51 -170.48,29.39 -165.91,28.52 -161.34,27.65 -155.08,26.39 -148.81,25.13 -143.21,23.70 -137.60,22.27 -132.02,20.01 -126.44,17.75 -121.61,15.79 -116.79,13.82 -111.74,11.81 -106.69,9.81 -101.60,7.96 -96.50,6.10 -91.63,4.18 -86.76,2.26 -80.52,0.22 -74.28,-1.81 -69.39,-3.35 -64.50,-4.89 -59.99,-5.53 -55.49,-6.17 -49.86,-7.14 -44.23,-8.10 -37.56,-9.02 -30.89,-9.94 -25.56,-9.68 -20.23,-9.41 -14.69,-9.37 -9.16,-9.33 -5.53,-9.85 -1.90,-10.37 -0.63,-10.45 0.63,-10.53 1.88,-10.30 3.13,-10.07 4.29,-9.55 5.45,-9.03 6.46,-8.24 7.46,-7.46 8.24,-6.46 9.03,-5.45 9.55,-4.29 10.07,-3.13 10.30,-1.88 10.53,-0.63 10.45,0.63 10.37,1.90 10.00,3.11 9.62,4.33 8.96,5.41 8.30,6.50 7.40,7.40 6.50,8.30 5.41,8.96 4.33,9.62 3.11,10.00 1.90,10.37 1.90,10.37 L 1.90,10.37 Z"></path></g><g transform="translate(612.408854166667 21.5234375) rotate(0 -60.30924479166697 -4.905598958333485)" stroke="none"><path fill="#1e1e20" d="M -3.87,9.66 Q -3.87,9.66 -6.62,8.74 -9.38,7.82 -15.92,6.97 -22.46,6.11 -27.01,6.28 -31.56,6.45 -35.90,6.67 -40.23,6.90 -44.55,7.08 -48.87,7.27 -53.64,7.46 -58.40,7.66 -62.85,7.79 -67.29,7.92 -72.00,8.04 -76.71,8.17 -83.61,6.94 -90.51,5.71 -95.64,5.03 -100.78,4.36 -105.77,4.67 -110.77,4.97 -115.69,5.00 -120.61,5.02 -122.98,4.63 -125.35,4.24 -127.47,3.12 -129.59,2.00 -131.24,0.25 -132.89,-1.48 -133.90,-3.66 -134.91,-5.84 -135.17,-8.22 -135.43,-10.61 -134.91,-12.96 -134.40,-15.30 -133.16,-17.36 -131.92,-19.41 -130.09,-20.97 -128.26,-22.52 -126.03,-23.41 -123.80,-24.30 -121.40,-24.43 -119.01,-24.56 -116.69,-23.91 -114.38,-23.27 -112.39,-21.92 -110.41,-20.58 -108.96,-18.67 -107.50,-16.75 -106.74,-14.48 -105.97,-12.20 -105.97,-9.80 -105.97,-7.40 -106.74,-5.13 -107.51,-2.85 -108.96,-0.94 -110.41,0.96 -112.40,2.30 -114.39,3.65 -116.70,4.29 -119.01,4.93 -121.41,4.80 -123.81,4.67 -126.04,3.78 -128.27,2.90 -130.10,1.34 -131.92,-0.20 -133.16,-2.26 -134.40,-4.32 -134.91,-6.66 -135.43,-9.01 -135.17,-11.39 -134.91,-13.78 -133.90,-15.96 -132.89,-18.14 -131.24,-19.88 -129.59,-21.62 -127.47,-22.74 -125.35,-23.87 -122.98,-24.26 -120.61,-24.64 -120.61,-24.64 -120.61,-24.64 -118.73,-24.63 -116.84,-24.62 -111.56,-24.62 -106.29,-24.62 -101.91,-24.51 -97.54,-24.41 -92.48,-23.38 -87.42,-22.35 -82.07,-21.32 -76.71,-20.29 -72.00,-20.17 -67.29,-20.04 -62.85,-19.91 -58.40,-19.78 -53.64,-19.58 -48.87,-19.39 -44.54,-19.20 -40.22,-19.02 -35.74,-18.78 -31.27,-18.53 -26.59,-18.14 -21.92,-17.75 -15.69,-16.45 -9.46,-15.15 -5.42,-13.64 -1.38,-12.13 1.24,-10.90 3.87,-9.66 4.97,-9.05 6.07,-8.45 6.99,-7.60 7.91,-6.75 8.61,-5.71 9.30,-4.66 9.72,-3.48 10.15,-2.30 10.27,-1.05 10.40,0.19 10.23,1.43 10.05,2.67 9.59,3.84 9.12,5.00 8.39,6.02 7.66,7.04 6.70,7.86 5.75,8.67 4.63,9.23 3.50,9.80 2.28,10.07 1.06,10.35 -0.19,10.33 -1.44,10.30 -2.65,9.98 -3.87,9.66 -3.87,9.66 L -3.87,9.66 Z"></path></g><g transform="translate(341.12630208333303 378.52213541666697) rotate(0 -10.426432291666515 -48.831380208333485)" stroke="none"><path fill="#1e1e20" d="M 1.11,10.06 Q 1.11,10.06 -1.29,10.51 -3.70,10.96 -8.03,10.98 -12.37,10.99 -16.77,10.29 -21.18,9.59 -25.69,7.80 -30.21,6.01 -35.71,4.15 -41.21,2.29 -46.45,0.07 -51.69,-2.14 -55.77,-4.20 -59.86,-6.26 -62.99,-10.66 -66.12,-15.07 -68.52,-20.28 -70.92,-25.48 -72.39,-30.55 -73.87,-35.62 -74.33,-39.98 -74.79,-44.34 -74.89,-48.66 -74.98,-52.98 -75.06,-57.43 -75.13,-61.89 -74.05,-67.80 -72.97,-73.71 -71.20,-77.59 -69.43,-81.47 -66.50,-87.07 -63.57,-92.66 -59.22,-97.08 -54.88,-101.49 -49.54,-104.01 -44.20,-106.52 -39.07,-107.91 -33.95,-109.30 -29.67,-110.83 -25.39,-112.36 -21.01,-113.02 -16.63,-113.69 -11.79,-113.76 -6.95,-113.84 -2.44,-113.85 2.05,-113.87 6.71,-113.29 11.36,-112.71 16.94,-110.93 22.52,-109.15 26.56,-106.53 30.60,-103.91 34.66,-100.90 38.72,-97.88 42.15,-93.59 45.57,-89.30 48.44,-83.13 51.30,-76.95 52.86,-72.64 54.42,-68.32 54.63,-63.69 54.85,-59.07 54.86,-54.19 54.88,-49.30 54.17,-41.83 53.46,-34.36 51.60,-29.73 49.74,-25.09 47.30,-20.24 44.86,-15.38 41.82,-11.26 38.78,-7.14 34.26,-2.99 29.73,1.15 24.81,3.96 19.90,6.78 14.64,8.07 9.39,9.37 11.30,8.54 13.21,7.71 11.63,9.62 10.06,11.52 7.95,12.83 5.85,14.13 3.44,14.70 1.03,15.26 -1.43,15.03 -3.89,14.79 -6.15,13.78 -8.41,12.77 -10.23,11.10 -12.05,9.42 -13.24,7.25 -14.43,5.07 -14.86,2.64 -15.30,0.20 -14.93,-2.24 -14.56,-4.69 -13.43,-6.89 -12.30,-9.09 -10.52,-10.82 -8.75,-12.55 -6.52,-13.61 -4.28,-14.68 -1.83,-14.98 0.62,-15.28 3.05,-14.78 5.47,-14.28 7.61,-13.04 9.75,-11.79 11.37,-9.92 13.00,-8.06 13.95,-5.77 14.89,-3.48 15.06,-1.01 15.23,1.45 14.60,3.84 13.97,6.24 12.60,8.30 11.24,10.37 9.29,11.89 7.34,13.42 5.01,14.24 2.67,15.06 0.19,15.09 -2.27,15.13 -4.63,14.37 -6.98,13.61 -8.97,12.14 -10.97,10.66 -12.38,8.63 -13.80,6.60 -14.49,4.23 -15.18,1.85 -15.08,-0.61 -14.98,-3.09 -14.10,-5.40 -13.21,-7.71 -13.21,-7.71 -13.21,-7.71 -8.24,-12.57 -3.28,-17.44 3.66,-20.24 10.61,-23.03 13.69,-26.20 16.76,-29.37 19.64,-34.21 22.52,-39.06 23.33,-43.50 24.14,-47.95 24.15,-52.41 24.17,-56.87 23.50,-61.48 22.84,-66.09 20.70,-70.52 18.57,-74.95 14.57,-77.98 10.57,-81.01 6.31,-82.16 2.05,-83.31 -2.40,-83.32 -6.87,-83.33 -11.69,-83.27 -16.50,-83.20 -20.61,-82.01 -24.72,-80.81 -29.26,-79.64 -33.81,-78.47 -37.54,-75.26 -41.27,-72.05 -43.44,-66.92 -45.60,-61.80 -45.69,-56.87 -45.78,-51.95 -45.97,-47.30 -46.17,-42.64 -45.09,-35.52 -44.02,-28.40 -38.85,-25.58 -33.69,-22.75 -28.13,-19.96 -22.57,-17.16 -18.54,-15.10 -14.52,-13.04 -10.26,-11.46 -6.00,-9.89 -3.55,-9.97 -1.11,-10.06 0.10,-10.04 1.33,-10.03 2.51,-9.73 3.69,-9.42 4.76,-8.84 5.84,-8.26 6.74,-7.44 7.65,-6.62 8.33,-5.61 9.01,-4.60 9.43,-3.46 9.85,-2.31 9.98,-1.10 10.12,0.11 9.96,1.32 9.80,2.53 9.35,3.66 8.91,4.80 8.20,5.79 7.50,6.79 6.58,7.59 5.65,8.39 4.57,8.94 3.48,9.50 2.29,9.78 1.10,10.06 1.10,10.06 L 1.11,10.06 Z"></path></g><g transform="translate(380.60546875 706.178385416667) rotate(0 -49.453125 -141.89778645833348)" stroke="none"><path fill="#1e1e20" d="M -10.12,-0.83 Q -10.12,-0.83 -10.04,-4.08 -9.95,-7.33 -10.19,-11.63 -10.44,-15.93 -10.80,-20.47 -11.15,-25.02 -11.44,-29.35 -11.72,-33.69 -11.94,-38.08 -12.16,-42.47 -12.34,-46.81 -12.52,-51.15 -12.69,-55.80 -12.86,-60.45 -13.01,-65.57 -13.15,-70.70 -13.27,-75.37 -13.38,-80.05 -13.48,-85.09 -13.57,-90.13 -13.61,-94.38 -13.65,-98.63 -13.71,-103.55 -13.76,-108.47 -13.81,-113.22 -13.85,-117.97 -13.89,-123.08 -13.93,-128.19 -13.98,-132.93 -14.03,-137.67 -14.42,-142.08 -14.82,-146.48 -15.69,-151.53 -16.57,-156.58 -17.63,-161.29 -18.69,-166.00 -19.26,-171.44 -19.82,-176.88 -19.85,-182.15 -19.89,-187.41 -19.89,-192.32 -19.89,-197.23 -19.91,-202.49 -19.92,-207.74 -19.94,-212.76 -19.96,-217.78 -19.98,-222.52 -19.99,-227.26 -20.00,-231.52 -20.00,-235.79 -20.02,-240.65 -20.03,-245.52 -20.04,-250.00 -20.06,-254.49 -20.04,-259.29 -20.03,-264.09 -20.38,-268.52 -20.74,-272.94 -24.44,-268.94 -28.14,-264.94 -33.03,-264.29 -37.91,-263.64 -42.72,-262.73 -47.53,-261.81 -52.18,-261.78 -56.84,-261.75 -63.90,-262.21 -70.97,-262.66 -76.98,-264.48 -83.00,-266.29 -88.17,-268.17 -93.34,-270.04 -88.07,-269.86 -82.80,-269.68 -80.49,-265.62 -78.18,-261.57 -77.15,-257.19 -76.11,-252.82 -74.25,-247.60 -72.39,-242.39 -71.70,-237.06 -71.02,-231.74 -70.04,-227.56 -69.06,-223.38 -68.58,-218.65 -68.10,-213.92 -68.08,-209.15 -68.06,-204.38 -68.04,-200.11 -68.03,-195.84 -68.05,-190.46 -68.07,-185.08 -68.52,-180.75 -68.97,-176.43 -70.05,-171.40 -71.12,-166.36 -71.44,-161.96 -71.77,-157.56 -71.75,-153.19 -71.74,-148.82 -72.16,-142.85 -72.58,-136.88 -72.63,-132.41 -72.69,-127.93 -72.70,-122.85 -72.70,-117.78 -72.74,-112.35 -72.78,-106.91 -73.44,-102.42 -74.11,-97.93 -74.12,-93.11 -74.14,-88.30 -74.13,-83.29 -74.13,-78.28 -74.11,-73.32 -74.10,-68.37 -74.60,-61.26 -75.11,-54.15 -76.33,-49.36 -77.56,-44.58 -78.63,-40.43 -79.70,-36.29 -80.83,-29.49 -81.96,-22.69 -83.14,-16.43 -84.32,-10.18 -88.40,-16.08 -92.49,-21.97 -88.25,-22.33 -84.00,-22.69 -79.17,-22.69 -74.33,-22.69 -69.26,-22.69 -64.18,-22.69 -59.78,-22.66 -55.38,-22.64 -50.98,-22.66 -46.57,-22.68 -41.64,-22.69 -36.71,-22.71 -32.29,-23.47 -27.86,-24.24 -23.35,-25.16 -18.83,-26.08 -13.94,-26.92 -9.06,-27.76 -2.34,-25.32 4.37,-22.89 7.20,-18.99 10.02,-15.09 9.26,-7.01 8.50,1.06 4.11,5.00 -0.27,8.94 -4.59,9.78 -8.91,10.61 -13.35,10.64 -17.78,10.67 -22.21,11.08 -26.64,11.50 -31.45,12.03 -36.26,12.57 -40.65,12.59 -45.03,12.61 -51.18,11.31 -57.33,10.01 -61.26,8.62 -65.18,7.24 -67.46,6.14 -69.73,5.03 -71.53,3.26 -73.34,1.48 -74.48,-0.76 -75.62,-3.02 -75.98,-5.53 -76.34,-8.03 -75.89,-10.52 -75.43,-13.00 -74.20,-15.22 -72.97,-17.43 -71.10,-19.13 -69.24,-20.84 -66.92,-21.85 -64.60,-22.87 -62.08,-23.10 -59.57,-23.32 -57.11,-22.73 -54.65,-22.14 -52.50,-20.79 -50.36,-19.45 -48.76,-17.49 -47.16,-15.53 -46.27,-13.16 -45.38,-10.80 -45.29,-8.27 -45.20,-5.74 -45.93,-3.32 -46.65,-0.89 -48.11,1.16 -49.57,3.23 -51.61,4.72 -53.66,6.21 -56.07,6.97 -58.48,7.74 -61.01,7.69 -63.54,7.64 -65.92,6.78 -68.30,5.93 -70.28,4.36 -72.27,2.79 -73.65,0.67 -75.02,-1.44 -75.65,-3.89 -76.28,-6.34 -76.10,-8.86 -75.91,-11.39 -74.93,-13.72 -73.95,-16.05 -72.27,-17.94 -70.60,-19.84 -68.41,-21.10 -66.22,-22.36 -63.74,-22.86 -61.25,-23.35 -58.75,-23.03 -56.24,-22.71 -56.24,-22.71 -56.24,-22.71 -52.73,-21.28 -49.21,-19.84 -44.70,-19.27 -40.19,-18.69 -35.69,-18.87 -31.18,-19.05 -25.24,-19.77 -19.30,-20.49 -14.50,-20.48 -9.70,-20.46 -13.49,-18.15 -17.28,-15.85 -18.44,-10.90 -19.60,-5.94 -14.22,-1.32 -8.83,3.29 -14.83,4.39 -20.83,5.48 -28.77,6.86 -36.71,8.24 -41.64,8.23 -46.57,8.21 -50.98,8.19 -55.38,8.17 -60.85,8.20 -66.33,8.22 -71.35,8.22 -76.36,8.22 -80.82,8.22 -85.27,8.22 -89.60,8.19 -93.93,8.15 -98.71,7.46 -103.49,6.77 -107.17,3.58 -110.85,0.40 -112.92,-4.57 -114.99,-9.56 -114.55,-15.15 -114.11,-20.75 -112.69,-25.49 -111.26,-30.22 -110.69,-35.06 -110.12,-39.90 -109.02,-45.46 -107.92,-51.01 -106.49,-56.90 -105.06,-62.79 -105.06,-67.59 -105.06,-72.40 -105.04,-77.22 -105.02,-82.05 -105.01,-86.58 -105.01,-91.12 -104.92,-95.55 -104.84,-99.98 -104.24,-104.71 -103.64,-109.44 -103.68,-114.56 -103.71,-119.68 -103.71,-124.76 -103.71,-129.83 -103.59,-134.50 -103.47,-139.16 -103.13,-143.49 -102.80,-147.83 -102.79,-152.10 -102.77,-156.37 -102.73,-161.00 -102.68,-165.64 -101.62,-170.18 -100.57,-174.71 -99.76,-179.90 -98.96,-185.08 -98.98,-190.46 -99.01,-195.84 -98.99,-200.11 -98.98,-204.37 -98.67,-209.25 -98.36,-214.14 -99.61,-219.41 -100.85,-224.68 -101.66,-231.02 -102.47,-237.36 -104.20,-241.31 -105.93,-245.26 -107.07,-250.41 -108.20,-255.56 -108.70,-260.84 -109.19,-266.12 -109.06,-270.93 -108.93,-275.74 -107.83,-280.77 -106.73,-285.79 -102.07,-291.30 -97.41,-296.80 -92.04,-297.98 -86.66,-299.15 -82.37,-297.97 -78.07,-296.80 -73.30,-295.26 -68.52,-293.73 -63.59,-293.22 -58.66,-292.71 -53.82,-292.37 -48.98,-292.03 -41.80,-293.44 -34.63,-294.84 -30.04,-296.52 -25.46,-298.21 -18.46,-298.58 -11.46,-298.96 -7.09,-297.59 -2.71,-296.21 2.28,-290.74 7.28,-285.27 8.49,-280.30 9.70,-275.33 10.17,-269.71 10.64,-264.09 10.65,-259.29 10.67,-254.49 10.66,-250.00 10.64,-245.52 10.63,-240.65 10.62,-235.79 10.61,-231.52 10.61,-227.26 10.59,-222.52 10.57,-217.78 10.55,-212.76 10.53,-207.74 10.52,-202.49 10.50,-197.23 10.50,-192.33 10.50,-187.42 10.50,-183.15 10.49,-178.87 10.52,-174.34 10.55,-169.80 11.85,-165.52 13.14,-161.24 14.02,-154.89 14.90,-148.54 15.39,-143.10 15.89,-137.67 15.84,-132.93 15.79,-128.19 15.75,-123.08 15.72,-117.97 15.67,-113.22 15.62,-108.47 15.57,-103.55 15.52,-98.63 15.48,-94.38 15.44,-90.13 15.34,-85.09 15.24,-80.05 15.13,-75.37 15.02,-70.70 14.87,-65.57 14.72,-60.45 14.55,-55.80 14.38,-51.15 14.20,-46.81 14.02,-42.47 13.76,-37.41 13.50,-32.36 13.19,-27.85 12.89,-23.35 12.51,-18.74 12.12,-14.14 11.57,-9.86 11.02,-5.59 10.57,-2.37 10.12,0.83 9.87,2.03 9.63,3.23 9.10,4.34 8.57,5.44 7.80,6.39 7.02,7.34 6.04,8.07 5.06,8.81 3.93,9.28 2.80,9.76 1.59,9.96 0.38,10.15 -0.83,10.05 -2.05,9.95 -3.21,9.56 -4.37,9.17 -5.40,8.51 -6.44,7.85 -7.29,6.97 -8.13,6.08 -8.74,5.02 -9.35,3.96 -9.69,2.78 -10.03,1.60 -10.08,0.38 -10.12,-0.83 -10.12,-0.83 L -10.12,-0.83 Z"></path></g><g transform="translate(522.6171875 470.59895833333303) rotate(0 46.18815104166697 92.48372395833394)" stroke="none"><path fill="#1e1e20" d="M -9.73,2.16 Q -9.73,2.16 -10.46,-0.22 -11.19,-2.60 -12.06,-7.23 -12.94,-11.86 -13.32,-16.14 -13.71,-20.42 -14.44,-25.58 -15.17,-30.74 -15.54,-35.63 -15.90,-40.52 -12.08,-37.43 -8.26,-34.35 -12.90,-34.15 -17.55,-33.94 -21.84,-33.83 -26.14,-33.71 -30.42,-33.60 -34.70,-33.49 -39.66,-33.40 -44.62,-33.31 -49.63,-32.45 -54.65,-31.59 -59.22,-31.38 -63.80,-31.17 -68.79,-31.09 -73.78,-31.01 -78.59,-30.96 -83.40,-30.92 -80.90,-34.86 -78.41,-38.80 -78.43,-33.41 -78.46,-28.02 -78.48,-23.23 -78.50,-18.45 -78.48,-13.57 -78.46,-8.70 -77.18,-3.44 -75.91,1.80 -74.94,7.89 -73.97,13.99 -73.83,18.82 -73.69,23.66 -73.68,28.31 -73.66,32.96 -73.65,37.94 -73.64,42.92 -73.66,48.32 -73.67,53.72 -72.78,59.47 -71.90,65.21 -70.98,70.76 -70.06,76.30 -68.58,81.55 -67.11,86.79 -66.94,91.78 -66.77,96.77 -66.76,101.66 -66.76,106.56 -67.20,113.22 -67.64,119.88 -68.56,125.39 -69.48,130.90 -69.93,135.15 -70.39,139.39 -70.38,143.98 -70.37,148.57 -70.97,154.97 -71.57,161.37 -71.68,165.86 -71.79,170.34 -72.26,175.24 -72.72,180.14 -72.73,185.11 -72.74,190.08 -72.74,194.70 -72.75,199.31 -72.74,204.04 -72.73,208.77 -76.46,206.36 -80.20,203.95 -75.44,203.84 -70.68,203.74 -65.36,205.19 -60.04,206.64 -55.26,206.60 -50.49,206.57 -45.94,206.57 -41.40,206.56 -36.19,207.06 -30.98,207.57 -24.94,208.10 -18.90,208.63 -14.50,208.49 -10.10,208.35 -12.85,211.86 -15.61,215.37 -15.65,211.06 -15.70,206.74 -15.65,201.53 -15.60,196.32 -15.58,191.83 -15.55,187.34 -15.57,182.65 -15.58,177.96 -15.58,172.33 -15.57,166.70 -15.56,161.74 -15.55,156.77 -15.56,152.06 -15.56,147.35 -14.16,141.03 -12.76,134.70 -11.86,129.16 -10.96,123.61 -9.66,117.84 -8.37,112.07 -8.72,106.81 -9.07,101.54 -9.08,96.65 -9.09,91.77 -9.10,87.51 -9.12,83.26 -9.14,78.20 -9.15,73.15 -9.13,68.55 -9.11,63.96 -7.75,58.44 -6.39,52.93 -4.80,48.57 -3.21,44.21 -1.10,38.91 1.00,33.62 3.04,29.78 5.09,25.94 7.94,21.83 10.79,17.73 14.55,14.61 18.30,11.50 22.42,9.13 26.55,6.76 32.00,5.17 37.46,3.57 42.58,2.33 47.70,1.08 52.46,1.04 57.23,0.99 63.76,2.10 70.29,3.21 75.71,5.74 81.12,8.27 84.91,10.62 88.70,12.97 93.55,16.60 98.40,20.23 102.19,25.70 105.98,31.16 107.92,35.12 109.86,39.07 111.38,45.01 112.90,50.96 113.64,56.13 114.37,61.29 114.41,66.05 114.46,70.81 114.44,75.40 114.43,80.00 114.91,84.48 115.40,88.96 115.43,94.07 115.46,99.19 115.48,103.87 115.50,108.55 115.91,114.41 116.33,120.27 117.33,125.06 118.34,129.85 118.80,135.16 119.26,140.47 120.03,146.23 120.81,151.98 121.88,156.54 122.94,161.09 123.47,166.25 123.99,171.40 124.01,176.35 124.02,181.29 124.03,185.90 124.04,190.51 124.03,195.27 124.02,200.03 124.02,204.38 124.02,208.72 123.98,213.38 123.93,218.04 124.79,222.34 125.66,226.64 122.31,222.67 118.97,218.71 125.57,218.10 132.16,217.49 136.57,217.51 140.98,217.53 146.01,217.49 151.03,217.45 155.72,216.09 160.40,214.72 164.88,214.64 169.37,214.55 173.63,214.52 177.89,214.48 181.96,214.47 186.03,214.45 188.50,214.86 190.98,215.27 193.19,216.44 195.41,217.61 197.13,219.43 198.86,221.25 199.91,223.53 200.96,225.80 201.23,228.30 201.50,230.79 200.96,233.24 200.42,235.69 199.13,237.83 197.84,239.98 195.93,241.60 194.02,243.23 191.69,244.15 189.36,245.08 186.86,245.22 184.35,245.35 181.94,244.68 179.52,244.01 177.45,242.60 175.37,241.20 173.86,239.20 172.34,237.21 171.54,234.83 170.74,232.45 170.74,229.95 170.74,227.44 171.54,225.06 172.34,222.69 173.86,220.69 175.38,218.70 177.45,217.29 179.53,215.89 181.94,215.21 184.36,214.54 186.86,214.68 189.36,214.82 191.69,215.75 194.02,216.67 195.93,218.30 197.84,219.92 199.13,222.07 200.43,224.22 200.96,226.67 201.50,229.11 201.23,231.61 200.96,234.10 199.91,236.37 198.85,238.65 197.13,240.47 195.40,242.29 193.19,243.46 190.97,244.63 188.50,245.04 186.03,245.44 186.03,245.44 186.03,245.44 183.74,245.44 181.45,245.43 176.88,245.40 172.30,245.37 167.94,245.11 163.57,244.84 157.30,246.46 151.03,248.07 146.01,248.03 140.98,247.99 136.57,248.01 132.16,248.03 126.51,248.17 120.86,248.30 115.14,248.10 109.42,247.90 103.84,244.23 98.26,240.56 96.82,236.43 95.37,232.29 94.25,225.76 93.14,219.22 93.10,213.97 93.05,208.72 93.06,204.38 93.06,200.03 93.04,195.27 93.03,190.51 93.04,185.90 93.05,181.29 93.06,176.40 93.07,171.50 92.40,166.85 91.73,162.19 90.49,156.22 89.25,150.25 88.97,144.14 88.70,138.02 87.95,133.04 87.20,128.06 86.00,120.85 84.80,113.65 84.82,109.37 84.84,105.10 84.85,100.30 84.87,95.50 84.89,90.98 84.91,86.47 84.46,81.99 84.02,77.52 83.98,71.60 83.94,65.68 83.43,61.27 82.92,56.87 81.87,52.43 80.82,48.00 78.26,44.37 75.71,40.74 70.95,37.86 66.19,34.98 61.72,33.33 57.24,31.68 52.58,31.88 47.92,32.08 41.77,33.59 35.62,35.09 32.86,39.19 30.11,43.28 28.60,47.29 27.09,51.30 25.18,56.14 23.26,60.97 22.56,66.13 21.86,71.30 21.85,75.78 21.84,80.25 21.82,84.59 21.81,88.93 21.80,93.54 21.79,98.15 21.77,102.56 21.76,106.98 21.69,111.32 21.62,115.66 20.60,121.26 19.58,126.86 18.75,131.09 17.92,135.32 16.58,141.34 15.24,147.35 15.23,152.06 15.22,156.77 15.23,161.74 15.24,166.70 15.25,172.33 15.26,177.96 15.24,182.65 15.22,187.35 15.25,191.84 15.27,196.33 15.29,200.61 15.31,204.90 15.14,209.15 14.97,213.39 14.29,219.09 13.60,224.79 9.93,230.38 6.26,235.97 -1.32,237.70 -8.92,239.42 -13.25,239.40 -17.58,239.38 -22.21,238.91 -26.83,238.45 -31.28,238.25 -35.72,238.05 -40.50,237.76 -45.27,237.46 -49.74,237.45 -54.20,237.45 -58.87,237.11 -63.53,236.77 -68.02,235.74 -72.51,234.72 -77.20,234.68 -81.90,234.64 -86.26,233.77 -90.62,232.89 -94.45,229.80 -98.28,226.70 -100.37,222.72 -102.47,218.74 -102.97,211.78 -103.48,204.82 -103.46,200.39 -103.45,195.96 -103.46,190.66 -103.48,185.35 -103.44,180.96 -103.39,176.57 -102.96,172.25 -102.52,167.93 -102.32,162.71 -102.11,157.50 -101.67,152.11 -101.22,146.71 -101.20,142.16 -101.19,137.61 -100.92,132.87 -100.65,128.13 -99.69,123.02 -98.73,117.91 -98.04,113.20 -97.34,108.49 -97.34,104.02 -97.33,99.56 -97.38,94.40 -97.42,89.25 -99.03,82.96 -100.64,76.67 -101.57,71.54 -102.50,66.42 -103.37,61.59 -104.25,56.75 -104.30,51.06 -104.35,45.36 -104.35,40.93 -104.35,36.51 -104.33,31.50 -104.30,26.48 -104.29,21.45 -104.28,16.42 -104.90,10.50 -105.52,4.59 -107.17,-3.55 -108.82,-11.69 -108.82,-16.63 -108.81,-21.57 -108.83,-26.57 -108.86,-31.56 -108.75,-36.41 -108.65,-41.25 -107.12,-46.42 -105.59,-51.58 -102.10,-55.05 -98.61,-58.51 -91.53,-59.73 -84.45,-60.96 -79.98,-60.92 -75.51,-60.88 -70.65,-60.81 -65.79,-60.74 -61.44,-60.70 -57.10,-60.67 -50.86,-61.48 -44.62,-62.28 -39.66,-62.19 -34.70,-62.10 -30.42,-61.99 -26.14,-61.88 -20.99,-61.73 -15.84,-61.58 -10.51,-61.38 -5.19,-61.19 -0.60,-59.46 3.99,-57.74 7.21,-50.74 10.44,-43.73 10.14,-38.76 9.84,-33.80 10.08,-29.42 10.31,-25.05 9.97,-20.80 9.63,-16.54 9.33,-11.82 9.03,-7.09 9.38,-4.63 9.73,-2.16 9.85,-0.96 9.96,0.22 9.79,1.41 9.62,2.60 9.17,3.72 8.71,4.83 8.01,5.80 7.30,6.78 6.39,7.55 5.47,8.33 4.39,8.86 3.32,9.40 2.14,9.66 0.97,9.92 -0.22,9.89 -1.42,9.86 -2.58,9.55 -3.74,9.23 -4.80,8.65 -5.85,8.07 -6.73,7.25 -7.61,6.43 -8.27,5.43 -8.93,4.42 -9.33,3.29 -9.73,2.16 -9.73,2.16 L -9.73,2.16 Z"></path></g><g transform="translate(708.6523437500009 700.553385416667) rotate(0 -90.87239583333394 -144.34244791666697)" stroke="none"><path fill="#1e1e20" d="M -10.24,-0.84 Q -10.24,-0.84 -10.14,-4.09 -10.05,-7.33 -10.26,-11.93 -10.47,-16.53 -10.85,-21.53 -11.22,-26.54 -11.52,-31.45 -11.82,-36.37 -12.07,-41.21 -12.32,-46.06 -11.97,-52.85 -11.62,-59.65 -11.67,-64.26 -11.73,-68.87 -11.83,-73.70 -11.93,-78.53 -12.03,-83.17 -12.13,-87.81 -12.21,-92.96 -12.28,-98.11 -12.84,-103.66 -13.40,-109.21 -13.59,-113.54 -13.78,-117.87 -14.19,-123.72 -14.61,-129.58 -14.92,-133.89 -15.23,-138.20 -15.56,-143.78 -15.90,-149.35 -15.92,-154.64 -15.94,-159.92 -15.98,-164.38 -16.03,-168.84 -16.06,-174.22 -16.10,-179.59 -16.13,-184.43 -16.17,-189.27 -16.18,-193.87 -16.18,-198.47 -16.19,-202.91 -16.20,-207.35 -16.23,-211.77 -16.26,-216.19 -16.55,-220.47 -16.85,-224.76 -18.55,-229.72 -20.25,-234.69 -22.39,-238.76 -24.53,-242.82 -27.35,-248.02 -30.17,-253.21 -35.40,-256.55 -40.64,-259.89 -44.79,-262.19 -48.95,-264.48 -53.82,-264.82 -58.69,-265.15 -63.45,-266.66 -68.20,-268.16 -72.97,-268.38 -77.73,-268.61 -82.99,-269.50 -88.26,-270.39 -94.32,-271.57 -100.39,-272.76 -104.98,-273.03 -109.57,-273.30 -114.51,-272.40 -119.45,-271.50 -123.40,-269.60 -127.35,-267.70 -131.51,-266.61 -135.66,-265.52 -140.76,-262.37 -145.85,-259.22 -150.01,-254.96 -154.17,-250.71 -158.89,-245.47 -163.62,-240.22 -167.77,-234.29 -171.93,-228.35 -176.57,-226.55 -181.21,-224.74 -183.71,-224.69 -186.20,-224.63 -188.58,-225.38 -190.96,-226.12 -192.97,-227.59 -194.99,-229.05 -196.44,-231.08 -197.88,-233.12 -198.60,-235.50 -199.32,-237.89 -199.24,-240.38 -199.16,-242.87 -198.28,-245.21 -197.41,-247.55 -195.84,-249.48 -194.27,-251.42 -192.16,-252.75 -190.05,-254.08 -187.63,-254.67 -185.21,-255.26 -182.72,-255.04 -180.24,-254.83 -177.95,-253.83 -175.67,-252.83 -173.82,-251.16 -171.98,-249.48 -170.76,-247.30 -169.54,-245.13 -169.09,-242.68 -168.63,-240.23 -168.98,-237.76 -169.33,-235.29 -170.45,-233.06 -171.57,-230.83 -173.34,-229.08 -175.12,-227.33 -177.36,-226.23 -179.59,-225.14 -182.07,-224.81 -184.54,-224.49 -186.98,-224.97 -189.43,-225.46 -191.59,-226.69 -193.76,-227.93 -195.41,-229.80 -197.07,-231.66 -198.04,-233.96 -199.01,-236.25 -199.20,-238.74 -199.39,-241.23 -198.77,-243.64 -198.16,-246.06 -196.81,-248.15 -195.45,-250.24 -193.50,-251.80 -191.55,-253.35 -189.20,-254.19 -186.86,-255.04 -186.86,-255.04 -186.86,-255.04 -188.86,-254.54 -190.86,-254.04 -187.29,-258.34 -183.72,-262.63 -180.12,-267.17 -176.51,-271.70 -172.78,-275.41 -169.05,-279.12 -165.09,-282.48 -161.12,-285.84 -156.45,-288.27 -151.77,-290.70 -146.36,-293.11 -140.96,-295.51 -135.14,-297.91 -129.33,-300.30 -124.08,-301.61 -118.84,-302.92 -114.20,-303.49 -109.56,-304.06 -105.08,-304.01 -100.60,-303.96 -95.84,-303.02 -91.07,-302.08 -86.56,-301.24 -82.04,-300.40 -77.80,-299.78 -73.56,-299.17 -69.16,-298.52 -64.75,-297.88 -60.29,-296.87 -55.82,-295.85 -49.95,-295.00 -44.07,-294.15 -38.23,-292.27 -32.38,-290.38 -28.30,-288.05 -24.23,-285.73 -18.95,-282.72 -13.68,-279.70 -10.59,-276.17 -7.50,-272.63 -4.88,-269.04 -2.26,-265.45 0.49,-260.79 3.25,-256.14 5.14,-252.31 7.03,-248.49 8.59,-243.61 10.15,-238.72 11.71,-234.43 13.27,-230.14 13.82,-223.96 14.36,-217.77 14.34,-213.47 14.31,-209.17 14.30,-204.59 14.29,-200.01 14.29,-195.63 14.28,-191.25 14.24,-186.50 14.21,-181.75 14.18,-176.78 14.16,-171.82 14.12,-167.56 14.08,-163.30 14.06,-158.68 14.04,-154.06 14.08,-148.64 14.13,-143.22 14.53,-137.77 14.92,-132.32 15.31,-127.44 15.71,-122.56 15.73,-117.38 15.75,-112.19 16.34,-107.88 16.93,-103.57 16.89,-99.17 16.86,-94.77 16.77,-90.25 16.69,-85.73 16.59,-81.14 16.48,-76.55 16.37,-71.46 16.25,-66.36 15.96,-61.97 15.67,-57.58 14.92,-51.82 14.18,-46.06 13.93,-41.21 13.68,-36.37 13.38,-31.45 13.08,-26.53 12.68,-21.30 12.27,-16.06 11.70,-10.82 11.12,-5.58 10.68,-2.36 10.24,0.84 9.99,2.06 9.74,3.27 9.20,4.39 8.67,5.51 7.88,6.46 7.10,7.42 6.11,8.16 5.11,8.91 3.97,9.39 2.83,9.87 1.61,10.07 0.39,10.26 -0.84,10.16 -2.07,10.06 -3.25,9.66 -4.42,9.27 -5.47,8.60 -6.51,7.94 -7.37,7.05 -8.22,6.15 -8.84,5.08 -9.46,4.00 -9.80,2.81 -10.14,1.62 -10.19,0.38 -10.24,-0.84 -10.24,-0.84 L -10.24,-0.84 Z"></path></g><g transform="translate(805.501302083333 714.375) rotate(0 -308.41796875 -16.54947916666697)" stroke="none"><path fill="#1e1e20" d="M 9.31,3.12 Q 9.31,3.12 8.70,5.60 8.08,8.07 8.38,12.53 8.68,17.00 9.07,21.72 9.46,26.45 9.75,31.00 10.03,35.56 9.58,40.75 9.12,45.95 7.13,51.22 5.13,56.49 2.92,60.16 0.71,63.83 -2.32,67.72 -5.35,71.61 -10.65,75.21 -15.96,78.81 -19.83,80.58 -23.70,82.35 -29.78,83.69 -35.85,85.04 -40.14,85.56 -44.43,86.08 -49.50,87.22 -54.57,88.36 -59.95,89.32 -65.32,90.27 -70.63,90.96 -75.93,91.65 -80.78,92.67 -85.63,93.69 -90.58,93.74 -95.54,93.80 -100.29,93.84 -105.05,93.87 -109.65,93.88 -114.25,93.90 -119.64,93.89 -125.02,93.88 -129.89,93.90 -134.75,93.92 -139.08,93.95 -143.40,93.97 -148.05,93.97 -152.71,93.97 -157.72,93.99 -162.73,94.01 -167.63,94.01 -172.53,94.02 -177.33,94.01 -182.13,94.00 -186.55,94.00 -190.98,93.99 -196.17,94.00 -201.37,94.01 -205.80,93.95 -210.24,93.89 -214.60,93.88 -218.96,93.87 -223.91,93.89 -228.87,93.90 -234.59,93.85 -240.31,93.79 -244.63,93.80 -248.96,93.81 -255.46,93.78 -261.96,93.74 -266.57,93.69 -271.18,93.63 -275.78,93.66 -280.38,93.69 -286.34,94.14 -292.30,94.60 -297.74,94.61 -303.18,94.63 -308.17,94.99 -313.17,95.35 -318.22,96.32 -323.28,97.29 -327.92,98.36 -332.56,99.44 -337.71,100.21 -342.85,100.98 -347.40,101.08 -351.94,101.18 -356.52,100.77 -361.10,100.35 -366.38,99.38 -371.65,98.42 -376.90,97.40 -382.15,96.38 -386.93,96.13 -391.71,95.87 -397.07,95.87 -402.44,95.86 -406.74,95.88 -411.05,95.89 -417.87,95.83 -424.70,95.76 -429.52,95.53 -434.33,95.29 -441.69,95.11 -449.05,94.92 -453.95,94.92 -458.85,94.91 -463.81,95.00 -468.77,95.09 -473.48,95.18 -478.20,95.27 -482.70,94.89 -487.20,94.51 -491.64,94.55 -496.08,94.59 -501.40,94.62 -506.71,94.65 -511.08,93.96 -515.44,93.26 -519.75,93.50 -524.07,93.73 -528.70,93.78 -533.33,93.82 -540.28,92.91 -547.24,92.00 -553.46,91.29 -559.69,90.59 -564.51,90.10 -569.33,89.60 -573.64,88.94 -577.95,88.28 -582.32,87.33 -586.68,86.38 -591.79,83.68 -596.90,80.98 -600.80,78.30 -604.70,75.61 -607.64,72.44 -610.57,69.27 -613.63,64.63 -616.69,59.99 -618.65,55.28 -620.61,50.56 -621.24,45.82 -621.87,41.08 -623.40,35.89 -624.92,30.69 -625.85,24.51 -626.78,18.34 -628.10,13.34 -629.42,8.34 -630.28,4.08 -631.13,-0.18 -631.20,-4.72 -631.26,-9.26 -631.23,-15.26 -631.20,-21.27 -631.21,-26.22 -631.22,-31.17 -631.23,-35.53 -631.23,-39.88 -631.22,-44.25 -631.20,-48.63 -631.18,-52.96 -631.16,-57.28 -631.16,-62.54 -631.15,-67.79 -631.15,-72.80 -631.15,-77.82 -631.14,-82.17 -631.13,-86.52 -631.14,-91.26 -631.15,-96.00 -631.62,-100.90 -632.10,-105.79 -632.15,-110.31 -632.21,-114.82 -632.22,-117.13 -632.22,-119.44 -631.82,-121.89 -631.42,-124.35 -630.25,-126.55 -629.08,-128.75 -627.28,-130.46 -625.47,-132.17 -623.21,-133.22 -620.95,-134.27 -618.47,-134.54 -616.00,-134.80 -613.56,-134.27 -611.13,-133.73 -609.00,-132.45 -606.87,-131.17 -605.25,-129.27 -603.64,-127.37 -602.72,-125.06 -601.80,-122.74 -601.66,-120.26 -601.53,-117.77 -602.20,-115.37 -602.86,-112.97 -604.26,-110.91 -605.66,-108.85 -607.64,-107.34 -609.62,-105.84 -611.98,-105.04 -614.34,-104.25 -616.83,-104.25 -619.32,-104.25 -621.68,-105.04 -624.04,-105.84 -626.02,-107.34 -628.01,-108.85 -629.40,-110.91 -630.80,-112.97 -631.47,-115.37 -632.13,-117.77 -632.00,-120.26 -631.86,-122.75 -630.94,-125.06 -630.02,-127.37 -628.41,-129.27 -626.79,-131.17 -624.66,-132.45 -622.52,-133.73 -620.09,-134.27 -617.66,-134.80 -615.18,-134.53 -612.71,-134.26 -610.45,-133.22 -608.19,-132.17 -606.38,-130.46 -604.58,-128.75 -603.41,-126.55 -602.24,-124.35 -601.84,-121.89 -601.44,-119.43 -601.44,-119.43 -601.44,-119.44 -601.47,-113.96 -601.50,-108.49 -601.08,-104.16 -600.66,-99.83 -600.65,-95.56 -600.65,-91.30 -600.65,-86.29 -600.65,-81.28 -600.64,-76.93 -600.63,-72.58 -600.63,-67.53 -600.63,-62.48 -600.63,-57.60 -600.63,-52.73 -600.60,-47.64 -600.56,-42.56 -600.56,-37.75 -600.56,-32.94 -600.57,-28.41 -600.59,-23.88 -600.56,-19.06 -600.53,-14.25 -601.10,-9.83 -601.67,-5.41 -600.23,-1.30 -598.78,2.80 -597.55,8.48 -596.32,14.16 -596.14,18.91 -595.96,23.66 -594.06,28.58 -592.17,33.50 -591.82,37.80 -591.48,42.09 -588.89,46.88 -586.29,51.67 -581.56,55.01 -576.82,58.36 -571.82,59.06 -566.82,59.76 -561.82,60.44 -556.82,61.11 -552.44,61.66 -548.05,62.21 -542.05,63.03 -536.04,63.84 -531.35,63.89 -526.67,63.93 -522.14,64.01 -517.62,64.08 -513.11,64.50 -508.60,64.93 -503.54,64.94 -498.47,64.94 -493.63,65.02 -488.78,65.10 -483.49,65.63 -478.20,66.15 -473.48,66.24 -468.77,66.33 -463.81,66.42 -458.85,66.51 -453.95,66.51 -449.05,66.50 -441.69,66.31 -434.33,66.13 -426.86,65.85 -419.39,65.57 -414.58,65.56 -409.77,65.55 -404.70,65.55 -399.64,65.56 -394.23,65.59 -388.82,65.62 -384.06,66.08 -379.30,66.54 -375.10,67.70 -370.90,68.87 -366.43,69.70 -361.96,70.53 -357.02,71.00 -352.08,71.47 -347.73,71.41 -343.38,71.35 -339.01,70.61 -334.65,69.87 -328.20,68.19 -321.74,66.51 -315.68,65.51 -309.61,64.51 -305.10,64.50 -300.59,64.49 -295.92,64.43 -291.25,64.37 -285.81,63.97 -280.38,63.58 -275.78,63.61 -271.18,63.63 -266.57,63.58 -261.96,63.53 -255.46,63.49 -248.96,63.46 -244.63,63.47 -240.31,63.48 -233.71,63.43 -227.11,63.38 -221.78,63.39 -216.45,63.40 -211.27,63.37 -206.09,63.33 -200.14,63.30 -194.19,63.26 -189.75,63.28 -185.32,63.29 -180.68,63.26 -176.05,63.24 -171.71,63.25 -167.37,63.26 -162.84,63.26 -158.31,63.26 -153.30,63.28 -148.30,63.30 -143.53,63.31 -138.76,63.32 -133.81,63.35 -128.85,63.37 -124.20,63.38 -119.54,63.38 -113.81,63.38 -108.07,63.38 -103.52,63.41 -98.98,63.44 -93.90,64.37 -88.81,65.29 -83.27,63.52 -77.73,61.76 -73.09,61.19 -68.44,60.63 -63.29,60.03 -58.13,59.43 -53.28,58.19 -48.44,56.95 -43.82,56.65 -39.19,56.34 -33.49,54.56 -27.80,52.79 -24.55,49.69 -21.31,46.59 -18.55,42.03 -15.78,37.47 -15.49,32.92 -15.21,28.37 -14.89,24.08 -14.56,19.79 -14.12,15.28 -13.68,10.77 -12.50,6.16 -11.31,1.56 -10.31,-0.78 -9.31,-3.12 -8.80,-4.19 -8.29,-5.26 -7.54,-6.18 -6.79,-7.09 -5.84,-7.80 -4.90,-8.52 -3.80,-8.98 -2.71,-9.44 -1.54,-9.63 -0.37,-9.82 0.80,-9.72 1.98,-9.62 3.10,-9.24 4.22,-8.87 5.22,-8.23 6.22,-7.60 7.04,-6.74 7.86,-5.89 8.45,-4.86 9.04,-3.83 9.37,-2.69 9.70,-1.55 9.74,-0.37 9.79,0.80 9.55,1.96 9.31,3.12 9.31,3.12 L 9.31,3.12 Z"></path></g><g transform="translate(188.66536458333303 594.934895833333) rotate(0 21.50065104166697 -201.79036458333303)" stroke="none"><path fill="#1e1e20" d="M -10.09,1.01 Q -10.09,1.01 -10.55,-1.66 -11.00,-4.33 -11.59,-8.63 -12.18,-12.93 -12.53,-17.66 -12.88,-22.39 -13.19,-27.14 -13.50,-31.89 -13.73,-36.70 -13.96,-41.51 -14.16,-46.93 -14.36,-52.34 -14.48,-57.81 -14.60,-63.27 -14.73,-67.91 -14.86,-72.54 -15.01,-77.30 -15.16,-82.06 -15.28,-87.17 -15.40,-92.27 -15.46,-96.82 -15.53,-101.37 -15.58,-106.74 -15.63,-112.12 -15.93,-116.50 -16.23,-120.87 -17.50,-124.93 -18.77,-128.99 -19.45,-133.80 -20.13,-138.61 -21.56,-143.87 -22.98,-149.14 -23.59,-154.55 -24.19,-159.97 -24.73,-164.45 -25.27,-168.93 -25.29,-173.26 -25.31,-177.59 -25.33,-181.95 -25.35,-186.31 -25.39,-190.95 -25.43,-195.60 -25.45,-201.10 -25.46,-206.61 -25.48,-211.59 -25.51,-216.56 -25.51,-222.06 -25.51,-227.56 -25.51,-232.89 -25.50,-238.23 -25.50,-243.20 -25.50,-248.18 -24.66,-254.78 -23.82,-261.38 -23.50,-266.10 -23.19,-270.82 -23.20,-276.32 -23.21,-281.83 -23.22,-287.23 -23.22,-292.62 -23.23,-297.25 -23.25,-301.87 -23.28,-306.52 -23.31,-311.16 -23.32,-316.18 -23.32,-321.19 -23.33,-327.05 -23.35,-332.90 -23.37,-337.45 -23.39,-342.00 -23.40,-346.80 -23.41,-351.60 -22.94,-358.06 -22.46,-364.53 -21.37,-369.38 -20.28,-374.24 -18.20,-379.19 -16.12,-384.13 -13.39,-388.44 -10.67,-392.75 -6.77,-397.23 -2.87,-401.71 1.09,-404.66 5.05,-407.62 10.53,-410.14 16.00,-412.67 20.57,-413.43 25.13,-414.20 30.10,-414.74 35.06,-415.27 39.80,-416.43 44.53,-417.58 48.52,-418.30 52.50,-419.02 54.98,-418.74 57.47,-418.45 59.73,-417.39 62.00,-416.32 63.80,-414.59 65.61,-412.86 66.77,-410.64 67.93,-408.43 68.32,-405.96 68.71,-403.48 68.29,-401.02 67.87,-398.55 66.68,-396.35 65.50,-394.14 63.67,-392.43 61.85,-390.73 59.57,-389.69 57.29,-388.65 54.80,-388.40 52.31,-388.14 49.87,-388.69 47.43,-389.24 45.30,-390.55 43.16,-391.85 41.55,-393.77 39.95,-395.68 39.03,-398.01 38.12,-400.34 38.00,-402.84 37.88,-405.34 38.56,-407.75 39.25,-410.15 40.66,-412.22 42.08,-414.28 44.08,-415.78 46.08,-417.28 48.46,-418.07 50.83,-418.85 53.34,-418.84 55.84,-418.82 58.20,-418.01 60.57,-417.19 62.55,-415.67 64.53,-414.14 65.93,-412.06 67.32,-409.98 67.97,-407.57 68.63,-405.15 68.48,-402.66 68.33,-400.16 67.39,-397.84 66.45,-395.52 64.81,-393.63 63.18,-391.73 61.03,-390.45 58.88,-389.18 56.43,-388.65 53.99,-388.13 53.99,-388.13 53.99,-388.13 55.62,-388.91 57.26,-389.68 52.62,-388.20 47.99,-386.72 41.54,-385.82 35.09,-384.92 30.33,-384.14 25.57,-383.36 21.44,-381.37 17.30,-379.38 13.55,-373.85 9.79,-368.32 8.53,-362.84 7.27,-357.35 7.26,-352.27 7.25,-347.19 7.23,-342.52 7.22,-337.84 7.21,-333.08 7.20,-328.32 7.18,-323.45 7.16,-318.58 7.15,-313.74 7.15,-308.90 7.12,-304.31 7.08,-299.72 7.08,-294.55 7.07,-289.38 7.06,-284.27 7.05,-279.17 7.01,-274.76 6.97,-270.35 6.71,-265.26 6.46,-260.17 5.73,-254.17 5.01,-248.18 5.01,-243.20 5.00,-238.23 5.01,-232.89 5.02,-227.56 5.02,-223.00 5.02,-218.44 5.00,-213.63 4.98,-208.82 4.97,-204.12 4.96,-199.41 4.92,-194.58 4.88,-189.75 4.85,-185.04 4.82,-180.34 4.83,-174.89 4.84,-169.44 5.20,-164.44 5.57,-159.44 7.01,-152.83 8.45,-146.21 9.35,-140.44 10.26,-134.66 11.51,-130.43 12.77,-126.19 13.29,-121.59 13.81,-116.99 13.76,-111.69 13.71,-106.39 13.65,-101.46 13.59,-96.53 13.48,-91.12 13.37,-85.71 13.23,-80.74 13.09,-75.77 12.94,-71.24 12.80,-66.71 12.69,-61.17 12.58,-55.62 12.38,-49.82 12.19,-44.02 12.01,-39.63 11.83,-35.24 11.56,-30.93 11.29,-26.61 10.93,-21.75 10.57,-16.89 10.25,-11.66 9.93,-6.43 10.01,-3.72 10.09,-1.01 10.07,0.21 10.04,1.43 9.72,2.61 9.41,3.79 8.81,4.86 8.22,5.94 7.39,6.83 6.56,7.73 5.54,8.41 4.52,9.08 3.37,9.49 2.21,9.90 1.00,10.02 -0.21,10.14 -1.42,9.97 -2.63,9.80 -3.77,9.34 -4.90,8.88 -5.89,8.16 -6.88,7.45 -7.68,6.51 -8.47,5.58 -9.01,4.49 -9.56,3.39 -9.83,2.20 -10.09,1.00 -10.09,1.01 L -10.09,1.01 Z"></path></g><g transform="translate(241.90755208333303 190.41666666666697) rotate(0 287.77018229166697 259.345703125)" stroke="none"><path fill="#1e1e20" d="M 0,-10.02 Q 0,-10.02 2.67,-10.22 5.35,-10.41 9.67,-10.84 13.99,-11.26 18.83,-11.64 23.67,-12.02 30.39,-11.61 37.11,-11.19 41.83,-10.83 46.55,-10.47 53.13,-9.61 59.70,-8.75 64.08,-7.81 68.47,-6.86 73.10,-6.79 77.72,-6.71 83.04,-6.73 88.36,-6.75 94.51,-6.82 100.66,-6.89 105.90,-6.97 111.15,-7.04 115.48,-7.09 119.81,-7.13 124.74,-6.53 129.67,-5.92 134.45,-5.95 139.22,-5.98 146.01,-5.77 152.80,-5.57 158.94,-5.50 165.07,-5.42 170.69,-5.47 176.31,-5.51 180.87,-5.52 185.43,-5.52 190.77,-5.60 196.10,-5.68 200.69,-5.72 205.29,-5.77 210.19,-5.84 215.09,-5.91 220.85,-5.82 226.61,-5.73 231.67,-5.74 236.72,-5.76 242.33,-5.79 247.95,-5.82 253.22,-5.77 258.50,-5.71 263.49,-5.12 268.48,-4.53 273.00,-4.49 277.52,-4.45 282.83,-4.39 288.14,-4.32 294.27,-4.23 300.40,-4.15 304.79,-4.20 309.18,-4.25 314.79,-4.29 320.39,-4.34 325.99,-4.28 331.58,-4.22 338.16,-3.84 344.74,-3.46 350.23,-3.42 355.72,-3.37 360.82,-4.23 365.91,-5.08 370.15,-5.98 374.39,-6.89 379.01,-7.80 383.63,-8.72 388.92,-9.02 394.22,-9.32 398.67,-9.38 403.13,-9.44 407.47,-9.40 411.82,-9.37 416.52,-9.36 421.23,-9.36 425.89,-9.41 430.54,-9.46 435.43,-9.46 440.31,-9.45 445.46,-9.49 450.61,-9.53 455.00,-9.56 459.39,-9.58 464.07,-9.57 468.74,-9.57 474.59,-9.58 480.44,-9.60 486.77,-9.58 493.10,-9.56 497.93,-9.57 502.76,-9.58 507.47,-9.58 512.19,-9.57 517.43,-9.62 522.67,-9.67 530.63,-8.78 538.59,-7.89 544.37,-6.32 550.15,-4.75 554.09,-2.54 558.03,-0.32 563.58,3.90 569.13,8.14 572.43,13.57 575.73,19.00 577.63,23.33 579.54,27.65 580.48,32.09 581.43,36.53 582.72,41.09 584.01,45.65 584.23,50.07 584.45,54.49 584.46,58.85 584.47,63.22 584.78,68.07 585.09,72.92 585.69,78.19 586.30,83.47 587.60,87.72 588.90,91.96 589.49,97.23 590.09,102.49 590.08,107.61 590.08,112.73 590.54,117.23 591.00,121.72 591.02,126.65 591.04,131.57 591.04,136.12 591.05,140.66 591.05,145.74 591.05,150.81 591.04,155.11 591.03,159.41 590.99,164.29 590.95,169.17 590.96,174.23 590.96,179.29 590.97,184.09 590.99,188.90 589.91,194.32 588.84,199.75 588.10,204.94 587.37,210.13 587.28,214.76 587.19,219.39 587.21,224.14 587.23,228.89 587.23,233.76 587.24,238.63 587.61,243.24 587.99,247.85 588.11,252.28 588.24,256.70 588.26,261.42 588.28,266.13 588.28,270.51 588.29,274.89 588.29,279.67 588.29,284.45 588.29,289.37 588.28,294.30 587.83,299.38 587.37,304.46 587.33,309.35 587.29,314.24 587.26,318.58 587.24,322.92 587.26,327.85 587.27,332.79 587.28,337.13 587.29,341.46 586.68,347.77 586.08,354.07 586.19,358.83 586.30,363.59 586.29,367.96 586.29,372.34 585.29,377.44 584.29,382.55 583.90,386.96 583.52,391.37 583.52,395.88 583.53,400.39 583.53,405.82 583.52,411.25 583.52,416.11 583.51,420.96 583.97,425.83 584.44,430.69 584.44,435.26 584.45,439.83 583.99,444.62 583.54,449.41 583.54,454.39 583.54,459.38 583.02,464.41 582.50,469.45 582.11,473.73 581.72,478.01 581.71,482.34 581.70,486.67 581.06,491.21 580.43,495.75 579.90,500.29 579.37,504.84 579.38,509.40 579.39,513.97 579.40,516.33 579.40,518.69 579.00,521.16 578.59,523.64 577.42,525.85 576.24,528.07 574.42,529.79 572.60,531.52 570.32,532.57 568.05,533.62 565.55,533.89 563.06,534.16 560.61,533.63 558.16,533.09 556.01,531.79 553.87,530.50 552.24,528.59 550.62,526.68 549.69,524.35 548.76,522.02 548.63,519.51 548.49,517.01 549.16,514.59 549.83,512.18 551.24,510.10 552.65,508.02 554.65,506.51 556.64,504.99 559.02,504.19 561.40,503.39 563.90,503.39 566.41,503.39 568.79,504.19 571.16,504.99 573.16,506.51 575.16,508.03 576.56,510.10 577.97,512.18 578.64,514.60 579.31,517.01 579.18,519.52 579.04,522.02 578.11,524.35 577.18,526.68 575.56,528.59 573.93,530.50 571.78,531.80 569.64,533.09 567.19,533.63 564.74,534.17 562.24,533.89 559.75,533.62 557.47,532.57 555.20,531.51 553.38,529.79 551.56,528.06 550.38,525.85 549.21,523.63 548.81,521.16 548.40,518.68 548.40,518.68 548.40,518.69 548.40,516.88 548.41,515.08 548.42,510.43 548.43,505.78 548.52,501.12 548.61,496.45 549.67,491.56 550.73,486.67 550.72,482.27 550.72,477.87 551.25,472.81 551.79,467.76 552.22,462.08 552.65,456.40 552.70,451.59 552.75,446.78 553.16,441.38 553.58,435.98 553.58,431.39 553.58,426.80 553.11,422.37 552.65,417.93 552.65,413.34 552.66,408.76 552.66,403.53 552.66,398.30 552.67,393.94 552.68,389.59 552.97,384.83 553.25,380.06 554.39,375.07 555.52,370.08 555.54,364.70 555.56,359.33 555.98,353.44 556.40,347.54 556.40,343.14 556.41,338.73 556.42,334.34 556.43,329.95 556.44,325.26 556.44,320.56 556.40,315.38 556.35,310.19 556.39,305.59 556.43,300.99 556.85,296.63 557.28,292.27 557.28,287.61 557.28,282.95 557.28,278.01 557.28,273.07 557.29,268.41 557.30,263.75 558.03,258.73 558.76,253.71 557.59,249.23 556.42,244.75 556.45,240.00 556.47,235.25 556.48,230.86 556.49,226.47 556.51,221.51 556.52,216.56 556.70,211.74 556.87,206.91 557.56,201.61 558.24,196.31 559.16,190.85 560.08,185.38 560.10,180.80 560.13,176.22 560.12,171.32 560.11,166.41 560.07,161.86 560.03,157.30 560.03,151.92 560.02,146.53 560.02,141.67 560.01,136.81 560.02,132.13 560.03,127.46 560.02,123.00 560.00,118.54 559.55,113.32 559.11,108.11 559.20,103.48 559.30,98.86 557.88,94.40 556.47,89.94 555.44,83.21 554.42,76.47 554.00,69.85 553.57,63.22 554.50,58.98 555.44,54.74 553.19,46.44 550.95,38.13 550.09,33.53 549.23,28.92 545.20,26.50 541.16,24.08 536.76,22.92 532.35,21.77 527.51,21.21 522.67,20.66 517.43,20.61 512.19,20.56 507.47,20.57 502.76,20.57 497.93,20.56 493.10,20.55 486.77,20.57 480.44,20.59 474.59,20.57 468.74,20.56 464.07,20.56 459.39,20.57 455.00,20.54 450.61,20.52 445.46,20.48 440.31,20.44 435.43,20.45 430.54,20.45 425.89,20.40 421.23,20.34 416.52,20.35 411.82,20.36 406.10,20.37 400.39,20.39 395.21,20.35 390.03,20.32 385.70,21.07 381.37,21.83 375.58,23.05 369.80,24.26 363.55,24.89 357.30,25.51 352.65,25.39 347.99,25.27 343.25,24.80 338.52,24.33 332.18,24.43 325.83,24.53 320.75,24.57 315.66,24.60 310.12,24.51 304.58,24.41 299.46,24.44 294.33,24.47 287.97,24.58 281.61,24.69 276.15,24.58 270.69,24.48 264.56,23.85 258.43,23.22 253.19,23.28 247.95,23.33 242.33,23.30 236.72,23.27 231.67,23.26 226.61,23.24 220.85,23.33 215.09,23.42 210.19,23.35 205.29,23.28 200.69,23.24 196.10,23.19 190.77,23.11 185.43,23.03 180.87,23.03 176.31,23.02 170.69,22.98 165.07,22.94 158.93,23.01 152.80,23.09 146.00,23.29 139.20,23.49 133.68,23.36 128.16,23.23 123.92,22.57 119.68,21.91 115.42,21.86 111.15,21.82 105.90,21.74 100.66,21.67 94.46,21.59 88.27,21.51 82.43,21.39 76.59,21.27 71.63,20.79 66.68,20.32 62.36,19.32 58.05,18.31 53.43,17.55 48.82,16.78 43.30,15.72 37.77,14.65 30.72,13.34 23.67,12.02 18.83,11.64 13.99,11.26 9.67,10.84 5.35,10.41 2.67,10.22 0,10.02 -1.20,9.88 -2.40,9.73 -3.53,9.30 -4.66,8.88 -5.65,8.19 -6.65,7.50 -7.45,6.60 -8.25,5.69 -8.81,4.62 -9.37,3.55 -9.66,2.38 -9.95,1.20 -9.95,-0.00 -9.95,-1.20 -9.66,-2.38 -9.37,-3.55 -8.81,-4.62 -8.25,-5.69 -7.45,-6.60 -6.65,-7.50 -5.65,-8.19 -4.66,-8.88 -3.52,-9.30 -2.39,-9.73 -1.19,-9.88 0.00,-10.02 0.00,-10.02 L 0,-10.02 Z"></path></g></svg>