<svg version="1.1" xmlns="http://www.w3.org/2000/svg" viewBox="0 0 403.05859375 383.734375" width="403.05859375" height="383.734375">
  <!-- svg-source:excalidraw -->
  
  <defs>
    <style class="style-fonts">
      @font-face {
        font-family: "Virgil";
        src: url("https://excalidraw.com/Virgil.woff2");
      }
      @font-face {
        font-family: "Cascadia";
        src: url("https://excalidraw.com/Cascadia.woff2");
      }
    </style>
  </defs>
  <g stroke-linecap="round" transform="translate(10 10) rotate(0 191.529296875 181.8671875)"><path d="M126.9 11.03 C141.86 2.85, 162.09 0.61, 180.1 -0.47 C198.11 -1.56, 217.46 0.59, 234.97 4.51 C252.48 8.44, 269.55 14.45, 285.17 23.07 C300.78 31.69, 315.92 43.73, 328.65 56.22 C341.38 68.7, 353.16 83.09, 361.54 97.99 C369.92 112.89, 375.41 129.15, 378.93 145.62 C382.44 162.09, 384.15 179.75, 382.63 196.8 C381.12 213.86, 376.5 231.83, 369.85 247.95 C363.19 264.07, 353.55 280.13, 342.68 293.53 C331.82 306.93, 319.1 318.46, 304.63 328.33 C290.17 338.21, 273.06 346.99, 255.91 352.77 C238.76 358.56, 219.79 362.14, 201.72 363.07 C183.66 364, 164.95 362.09, 147.52 358.38 C130.08 354.67, 112.72 349.15, 97.12 340.83 C81.52 332.51, 66.6 320.76, 53.94 308.47 C41.27 296.18, 29.64 282.34, 21.14 267.1 C12.64 251.86, 6.31 233.75, 2.93 217.04 C-0.46 200.33, -0.87 183.69, 0.83 166.83 C2.53 149.96, 6.7 131.99, 13.13 115.86 C19.55 99.73, 28.23 83.61, 39.37 70.02 C50.51 56.44, 62.93 44.96, 79.98 34.34 C97.03 23.72, 128.54 10.93, 141.64 6.29 C154.75 1.65, 157.62 3.74, 158.62 6.5 M278.33 20.76 C294.61 25.59, 308.9 39.5, 322.22 50.9 C335.55 62.3, 348.84 74.87, 358.28 89.16 C367.72 103.46, 374.85 120.11, 378.87 136.64 C382.89 153.18, 383.56 171.07, 382.38 188.37 C381.2 205.66, 377.41 224.05, 371.8 240.41 C366.18 256.77, 358.72 272.38, 348.69 286.52 C338.65 300.67, 325.57 314.59, 311.59 325.28 C297.61 335.96, 281.64 344.52, 264.81 350.65 C247.98 356.79, 228.94 360.37, 210.62 362.09 C192.3 363.8, 172.47 363.73, 154.92 360.94 C137.36 358.16, 121.34 352.93, 105.31 345.38 C89.28 337.83, 71.86 327.42, 58.73 315.66 C45.6 303.89, 35.63 289.95, 26.54 274.79 C17.45 259.63, 8.71 241.21, 4.2 224.68 C-0.31 208.15, -1.71 192.35, -0.52 175.63 C0.66 158.91, 5.52 140.55, 11.29 124.34 C17.07 108.12, 23.83 92.39, 34.12 78.33 C44.41 64.27, 59 50.88, 73.02 39.97 C87.04 29.07, 101.67 19.38, 118.23 12.91 C134.79 6.43, 154.54 2.68, 172.38 1.14 C190.23 -0.4, 207.65 0.57, 225.28 3.65 C242.91 6.74, 269.83 16.46, 278.15 19.63 C286.47 22.81, 276.68 19.98, 275.19 22.71" stroke="none" stroke-width="0" fill="#000"></path><path d="M117.42 14.95 C131.83 5.97, 151.14 3.35, 168.81 1.13 C186.49 -1.08, 205.59 -1.38, 223.49 1.66 C241.39 4.69, 260.08 11.68, 276.2 19.34 C292.33 26.99, 307.05 36.22, 320.24 47.58 C333.42 58.94, 345.95 72.75, 355.3 87.49 C364.65 102.23, 371.68 119.39, 376.34 135.99 C381 152.59, 383.72 170.07, 383.29 187.1 C382.85 204.12, 379.2 221.81, 373.75 238.15 C368.3 254.5, 360.81 271.01, 350.57 285.18 C340.33 299.34, 326.31 312.47, 312.32 323.15 C298.32 333.83, 282.92 342.6, 266.62 349.28 C250.31 355.96, 232.33 361.4, 214.49 363.23 C196.65 365.06, 177.27 363.25, 159.56 360.27 C141.84 357.28, 124.33 352.71, 108.21 345.32 C92.09 337.93, 76.2 327.46, 62.81 315.92 C49.42 304.39, 37.12 290.56, 27.87 276.09 C18.61 261.62, 11.81 245.58, 7.27 229.1 C2.73 212.61, 0.39 194.33, 0.6 177.18 C0.81 160.03, 3.08 142.51, 8.52 126.19 C13.96 109.86, 22.98 93.37, 33.26 79.22 C43.55 65.07, 54.24 52.77, 70.22 41.28 C86.21 29.8, 117.05 15.65, 129.19 10.33 C141.34 5, 142.05 6.62, 143.09 9.32 M172.25 1.51 C189.21 -3.41, 209.46 -0.73, 227.25 2.06 C245.03 4.84, 262.94 10.33, 278.96 18.21 C294.98 26.1, 310.37 37.59, 323.37 49.35 C336.37 61.12, 347.77 74.22, 356.95 88.79 C366.14 103.35, 374.11 120.22, 378.47 136.76 C382.83 153.29, 384.01 170.98, 383.13 188 C382.24 205.01, 378.87 222.36, 373.15 238.85 C367.43 255.33, 358.87 272.85, 348.8 286.89 C338.73 300.92, 326.89 312.66, 312.73 323.06 C298.58 333.47, 280.9 342.89, 263.84 349.3 C246.78 355.71, 228.07 359.55, 210.39 361.53 C192.7 363.52, 175.07 364.1, 157.73 361.19 C140.39 358.27, 122.56 351.82, 106.37 344.04 C90.18 336.27, 73.89 326.14, 60.57 314.54 C47.26 302.94, 35.62 289.37, 26.48 274.45 C17.34 259.52, 10.2 241.34, 5.76 224.99 C1.33 208.64, -0.81 193.4, -0.14 176.34 C0.52 159.29, 4 138.97, 9.77 122.66 C15.55 106.35, 24.3 92.47, 34.53 78.48 C44.76 64.5, 57.02 49.79, 71.14 38.76 C85.27 27.72, 102.4 18.78, 119.27 12.28 C136.14 5.78, 163.68 0.96, 172.37 -0.23 C181.07 -1.42, 171.09 1.74, 171.45 5.13" stroke="#000000" stroke-width="1" fill="none"></path></g><g stroke-linecap="round" transform="translate(49.41796875 34.81640625) rotate(0 150.814453125 153.2109375)"><path d="M145.48 0.56 C160.18 -2.33, 177.29 0.83, 192.42 5.16 C207.55 9.49, 223.24 17.35, 236.25 26.53 C249.25 35.7, 260.89 47.66, 270.45 60.22 C280.02 72.79, 288.32 87.34, 293.64 101.91 C298.96 116.48, 302.15 132.09, 302.37 147.64 C302.58 163.18, 299.34 180.04, 294.93 195.2 C290.53 210.35, 284.47 225.55, 275.95 238.57 C267.44 251.59, 256.31 263.58, 243.85 273.32 C231.4 283.07, 215.86 291.49, 201.21 297.02 C186.57 302.54, 171.25 305.98, 155.98 306.49 C140.7 307, 124.57 304.38, 109.59 300.06 C94.61 295.74, 78.99 289.37, 66.09 280.58 C53.19 271.79, 41.81 259.96, 32.19 247.34 C22.58 234.71, 13.9 219.65, 8.41 204.83 C2.91 190.02, -0.45 174.09, -0.76 158.45 C-1.08 142.81, 2.07 126.36, 6.49 110.99 C10.91 95.62, 17.18 79.5, 25.76 66.23 C34.33 52.96, 45.56 40.97, 57.95 31.38 C70.33 21.79, 83.06 13.88, 100.05 8.69 C117.04 3.5, 148.05 0.8, 159.87 0.23 C171.68 -0.35, 171.32 2.7, 170.95 5.25 M80.51 19.23 C92.34 9.99, 108.53 4.9, 123.62 1.94 C138.7 -1.02, 155.66 -0.8, 171.01 1.47 C186.37 3.74, 201.77 8.67, 215.77 15.57 C229.76 22.48, 243.58 31.76, 255 42.91 C266.41 54.06, 276.86 68.69, 284.25 82.48 C291.64 96.28, 296.78 110.44, 299.33 125.7 C301.87 140.96, 301.71 158.44, 299.51 174.03 C297.32 189.62, 292.8 205.22, 286.17 219.24 C279.53 233.26, 270.58 246.71, 259.69 258.15 C248.81 269.59, 234.73 279.98, 220.86 287.87 C207 295.76, 191.88 302.44, 176.5 305.47 C161.12 308.5, 143.7 308.43, 128.58 306.06 C113.45 303.68, 99.46 298.26, 85.75 291.22 C72.05 284.19, 57.49 275.01, 46.35 263.85 C35.21 252.68, 26.26 238.27, 18.9 224.25 C11.55 210.24, 5.36 195.2, 2.22 179.76 C-0.93 164.32, -2.32 147.02, 0.05 131.61 C2.43 116.2, 9.18 101.32, 16.45 87.3 C23.72 73.27, 33.28 58.98, 43.66 47.46 C54.03 35.94, 72.57 22.88, 78.71 18.19 C84.85 13.51, 78.98 17, 80.48 19.36" stroke="none" stroke-width="0" fill="white"></path><path d="M176.53 2.35 C191.32 2.64, 207.96 10.42, 221.75 17.9 C235.53 25.38, 248.27 35.96, 259.23 47.23 C270.19 58.5, 280.56 71.26, 287.51 85.53 C294.46 99.81, 299.11 117.05, 300.91 132.89 C302.71 148.73, 301.32 164.98, 298.3 180.57 C295.29 196.17, 289.81 212.64, 282.8 226.47 C275.79 240.29, 267.27 252.74, 256.25 263.5 C245.22 274.27, 230.62 284.09, 216.64 291.05 C202.65 298.02, 187.9 303.06, 172.34 305.27 C156.79 307.48, 138.84 307.12, 123.3 304.32 C107.76 301.52, 92.63 296.01, 79.08 288.47 C65.53 280.93, 52.65 270.42, 42 259.07 C31.34 247.71, 21.88 234.5, 15.18 220.35 C8.47 206.19, 3.77 189.95, 1.77 174.12 C-0.23 158.29, 0.39 140.92, 3.19 125.37 C5.98 109.81, 11.21 94.63, 18.53 80.78 C25.85 66.93, 36.18 53.15, 47.11 42.26 C58.04 31.36, 70.4 22.26, 84.13 15.44 C97.87 8.61, 112.12 3, 129.51 1.31 C146.9 -0.38, 176.93 3.85, 188.45 5.28 C199.97 6.71, 199.44 7.35, 198.62 9.88 M201.65 9.76 C216.55 12.42, 231.04 22.84, 243.53 32.56 C256.02 42.27, 267.96 55.2, 276.6 68.07 C285.24 80.93, 291.43 95.06, 295.37 109.77 C299.3 124.48, 300.84 140.4, 300.2 156.33 C299.56 172.26, 296.34 190.47, 291.52 205.34 C286.7 220.2, 280.38 232.99, 271.26 245.52 C262.14 258.05, 249.65 271.42, 236.78 280.52 C223.92 289.62, 209.31 295.73, 194.09 300.09 C178.87 304.46, 161.23 306.96, 145.46 306.71 C129.68 306.45, 113.95 303.85, 99.46 298.54 C84.97 293.23, 70.78 284.66, 58.5 274.85 C46.23 265.03, 34.73 252.98, 25.82 239.65 C16.9 226.31, 9.12 209.84, 5.02 194.83 C0.93 179.83, 0.6 165.18, 1.25 149.6 C1.9 134.02, 3.95 116.28, 8.94 101.36 C13.93 86.43, 21.87 72.6, 31.19 60.04 C40.5 47.48, 52.01 35.11, 64.83 25.99 C77.64 16.86, 93.08 9.66, 108.08 5.31 C123.08 0.95, 139.09 -0.57, 154.83 -0.13 C170.57 0.31, 194.8 5.87, 202.5 7.92 C210.2 9.97, 201.95 9.68, 201.03 12.17" stroke="#000000" stroke-width="1" fill="none"></path></g><g stroke-linecap="round" transform="translate(71.3671875 67.328125) rotate(0 127.25562243934985 120.8359375)"><path d="M75.12 10.75 C86.8 3.77, 104.49 1.45, 119.01 0.44 C133.54 -0.58, 148.46 0.94, 162.28 4.64 C176.1 8.34, 190.13 14.49, 201.94 22.63 C213.74 30.78, 224.83 41.94, 233.12 53.5 C241.41 65.06, 248.27 78.66, 251.67 91.98 C255.07 105.29, 255.31 119.75, 253.52 133.38 C251.73 147, 247.27 161.14, 240.94 173.71 C234.62 186.29, 226.03 199.37, 215.55 208.84 C205.08 218.31, 191.51 225.08, 178.08 230.53 C164.66 235.99, 149.36 240.4, 135 241.57 C120.63 242.74, 105.75 241.54, 91.91 237.55 C78.06 233.55, 63.74 225.88, 51.92 217.59 C40.1 209.3, 28.93 199.15, 20.98 187.81 C13.03 176.47, 7.47 162.78, 4.24 149.56 C1.01 136.35, 0.24 122.34, 1.6 108.53 C2.96 94.72, 6.12 79.24, 12.42 66.7 C18.72 54.17, 27.25 43.24, 39.42 33.32 C51.6 23.41, 76.19 11.82, 85.46 7.21 C94.73 2.59, 94.48 3.76, 95.07 5.62 M83.88 7.76 C96.1 1.72, 113.89 0.61, 128.48 0.81 C143.06 1.01, 158.03 4.19, 171.39 8.97 C184.75 13.76, 197.67 20.86, 208.66 29.51 C219.64 38.17, 230.05 48.89, 237.29 60.91 C244.52 72.92, 249.49 87.68, 252.08 101.61 C254.68 115.54, 255.21 131.12, 252.86 144.48 C250.5 157.85, 245.43 170.08, 237.95 181.82 C230.48 193.55, 219.16 206.03, 208.01 214.9 C196.86 223.77, 184.92 230.53, 171.06 235.04 C157.21 239.55, 139.61 242.21, 124.89 241.98 C110.18 241.75, 96.32 238.62, 82.79 233.66 C69.26 228.71, 54.51 221.28, 43.69 212.26 C32.88 203.24, 24.63 191.67, 17.88 179.54 C11.13 167.41, 5.84 152.86, 3.18 139.49 C0.52 126.12, -0.64 112.59, 1.89 99.31 C4.42 86.03, 10.96 71.66, 18.35 59.8 C25.74 47.94, 35.19 37.22, 46.23 28.16 C57.26 19.1, 77.98 8.69, 84.57 5.43 C91.15 2.16, 85.21 6.65, 85.74 8.58" stroke="none" stroke-width="0" fill="#000"></path><path d="M139.38 0.39 C153.01 -0.17, 167.87 5.38, 181.11 11.46 C194.36 17.53, 208.38 26.92, 218.87 36.86 C229.35 46.8, 238.28 58.65, 244.03 71.08 C249.78 83.52, 252.47 97.94, 253.36 111.47 C254.25 124.99, 253.03 138.87, 249.36 152.22 C245.7 165.56, 239.68 180.28, 231.36 191.54 C223.04 202.81, 211.48 211.96, 199.44 219.8 C187.41 227.64, 173.23 235.1, 159.14 238.57 C145.06 242.04, 129.36 241.93, 114.95 240.6 C100.55 239.28, 85.71 236.57, 72.7 230.62 C59.69 224.67, 47.16 214.73, 36.88 204.9 C26.6 195.07, 16.98 184.1, 11.01 171.63 C5.03 159.15, 2.21 143.9, 1.05 130.07 C-0.11 116.24, 0.24 102.01, 4.06 88.62 C7.87 75.24, 15.53 60.87, 23.94 49.74 C32.35 38.61, 42.55 29.42, 54.52 21.86 C66.49 14.29, 79.97 7.83, 95.76 4.37 C111.55 0.9, 138.69 0.56, 149.28 1.04 C159.87 1.52, 159.78 4.98, 159.31 7.26 M118.74 0.37 C132.15 -2.45, 147.43 -0.52, 161.28 3.31 C175.13 7.14, 189.73 15.11, 201.83 23.34 C213.93 31.57, 225.83 41.3, 233.87 52.68 C241.92 64.05, 246.71 78.32, 250.1 91.61 C253.49 104.9, 255.73 118.54, 254.19 132.43 C252.65 146.31, 247.19 162.42, 240.87 174.91 C234.54 187.41, 226.31 198, 216.22 207.4 C206.13 216.81, 193.84 225.54, 180.34 231.34 C166.85 237.14, 150.12 241.46, 135.25 242.21 C120.38 242.96, 104.84 239.71, 91.14 235.83 C77.44 231.96, 64.74 226.91, 53.07 218.99 C41.39 211.06, 29.27 199.88, 21.09 188.26 C12.91 176.65, 7.24 162.8, 4.01 149.29 C0.78 135.78, 0.18 120.82, 1.71 107.21 C3.24 93.6, 7.25 80, 13.18 67.61 C19.11 55.21, 26.95 42.13, 37.29 32.84 C47.64 23.55, 62 17.56, 75.25 11.9 C88.5 6.23, 109.79 0.5, 116.78 -1.13 C123.76 -2.76, 116.66 -0.26, 117.16 2.12" stroke="#000000" stroke-width="1" fill="none"></path></g><g stroke-linecap="round" transform="translate(97.55721811369688 83.81660626933069) rotate(0 100.20392398661346 101.79619271929636)"><path d="M124.16 4.08 C135.7 5.21, 148.3 11.09, 158.35 18.08 C168.39 25.06, 177.76 35.7, 184.43 46 C191.09 56.29, 195.91 67.96, 198.34 79.83 C200.77 91.71, 201.04 105.03, 198.99 117.24 C196.95 129.45, 192.14 142.27, 186.07 153.09 C180 163.91, 171.9 174.55, 162.58 182.14 C153.26 189.74, 141.72 195.21, 130.14 198.67 C118.56 202.13, 105.21 203.63, 93.1 202.91 C80.99 202.2, 68.19 199.55, 57.47 194.39 C46.74 189.22, 37.19 180.91, 28.76 171.93 C20.33 162.95, 11.66 151.7, 6.9 140.51 C2.14 129.32, 0.26 116.95, 0.2 104.78 C0.13 92.61, 2.6 79.16, 6.51 67.5 C10.41 55.83, 15.89 43.96, 23.63 34.8 C31.36 25.64, 42.16 18.06, 52.92 12.52 C63.69 6.99, 74.77 2.86, 88.21 1.58 C101.65 0.3, 125.15 3.34, 133.59 4.85 C142.03 6.35, 139.55 8.89, 138.83 10.6 M125.4 4 C136.94 5.78, 148.74 13.48, 158.68 20.52 C168.62 27.55, 178.24 35.96, 185.02 46.2 C191.81 56.44, 196.93 69.83, 199.37 81.93 C201.82 94.04, 201.73 106.95, 199.71 118.81 C197.68 130.66, 193.54 142.6, 187.25 153.05 C180.95 163.51, 171.79 173.94, 161.94 181.54 C152.09 189.14, 139.69 194.98, 128.14 198.68 C116.59 202.38, 104.33 204.45, 92.64 203.76 C80.95 203.08, 69.05 199.99, 58.02 194.55 C46.99 189.11, 34.79 180.05, 26.43 171.14 C18.08 162.23, 12.27 152.65, 7.91 141.1 C3.54 129.55, 0.46 114.3, 0.26 101.83 C0.05 89.37, 2.55 77.76, 6.69 66.33 C10.83 54.9, 17.19 42.21, 25.1 33.26 C33.02 24.31, 43.5 17.85, 54.18 12.64 C64.86 7.43, 77.31 3.56, 89.18 2.01 C101.05 0.45, 119.16 2.61, 125.41 3.32 C131.66 4.02, 126.85 4.56, 126.67 6.21" stroke="none" stroke-width="0" fill="white"></path><path d="M137.86 6.6 C149.13 9.69, 159.75 19.89, 168.67 28.62 C177.59 37.35, 186.08 48.19, 191.38 58.99 C196.68 69.79, 199.68 81.44, 200.48 93.41 C201.29 105.39, 199.92 118.89, 196.2 130.83 C192.49 142.77, 185.56 155.29, 178.19 165.05 C170.83 174.81, 162.32 183.18, 152 189.37 C141.68 195.56, 128.15 200.19, 116.28 202.19 C104.42 204.2, 92.63 203.84, 80.83 201.41 C69.02 198.99, 55.62 194.18, 45.46 187.63 C35.31 181.08, 27.04 172.13, 19.92 162.11 C12.8 152.09, 5.84 139.3, 2.73 127.49 C-0.37 115.69, -0.1 103.5, 1.28 91.3 C2.67 79.1, 5.58 65.21, 11.05 54.27 C16.51 43.34, 25.13 33.79, 34.07 25.67 C43.02 17.56, 53.3 9.8, 64.71 5.59 C76.12 1.37, 88.91 -0.53, 102.55 0.38 C116.19 1.29, 138.35 8.11, 146.56 11.04 C154.78 13.97, 152.51 16.56, 151.82 17.97 M144.92 11.87 C155.87 15.62, 167.36 24.37, 175.34 33.45 C183.33 42.53, 188.61 54.52, 192.85 66.37 C197.08 78.22, 200.78 92.37, 200.73 104.55 C200.69 116.72, 197.16 128.2, 192.59 139.42 C188.02 150.64, 181.68 162.99, 173.34 171.88 C165 180.78, 153.27 187.47, 142.57 192.78 C131.87 198.09, 121.06 202.48, 109.14 203.76 C97.21 205.04, 82.77 204.26, 71.04 200.47 C59.31 196.69, 48.1 189, 38.77 181.07 C29.43 173.14, 21.47 163.16, 15.05 152.89 C8.63 142.62, 2.37 131.48, 0.24 119.47 C-1.88 107.46, -0.24 92.88, 2.32 80.82 C4.87 68.76, 9.28 57.11, 15.58 47.09 C21.89 37.06, 30.55 27.87, 40.15 20.66 C49.74 13.45, 61.4 7.42, 73.14 3.83 C84.88 0.24, 98.62 -2.11, 110.61 -0.88 C122.6 0.36, 139.06 9.15, 145.08 11.25 C151.1 13.35, 147.53 10.4, 146.72 11.72" stroke="#000000" stroke-width="1" fill="none"></path></g><g stroke-linecap="round" transform="translate(118.30078125 110.28515625) rotate(0 79.65920582257615 75.640625)"><path d="M96.5 0.95 C106.86 1.94, 117.95 8.16, 126.49 14.18 C135.03 20.2, 142.19 28.1, 147.72 37.05 C153.26 46.01, 158.33 57.73, 159.69 67.92 C161.04 78.1, 159.14 88.38, 155.86 98.18 C152.57 107.98, 147.13 118.85, 139.98 126.71 C132.83 134.58, 122.89 141.27, 112.95 145.35 C103 149.43, 91.06 151.14, 80.29 151.21 C69.52 151.28, 58.18 149.87, 48.33 145.79 C38.48 141.71, 28.45 134.34, 21.2 126.72 C13.95 119.1, 8.34 109.63, 4.83 100.08 C1.32 90.53, -0.64 79.86, 0.12 69.41 C0.88 58.97, 4.04 46.56, 9.4 37.42 C14.76 28.28, 23.35 20.35, 32.27 14.58 C41.19 8.8, 50.25 4.2, 62.92 2.76 C75.59 1.32, 98.61 4.11, 108.29 5.93 C117.98 7.75, 121.23 12.5, 121.01 13.69 M65.33 0.39 C75.14 -2.51, 87.79 -1.11, 98.32 1.34 C108.85 3.8, 120.02 8.72, 128.52 15.11 C137.02 21.51, 144.24 31.01, 149.3 39.7 C154.36 48.4, 157.79 57.26, 158.88 67.28 C159.96 77.3, 159.2 89.79, 155.81 99.83 C152.42 109.86, 145.82 120.05, 138.54 127.5 C131.26 134.94, 122.21 140.52, 112.12 144.49 C102.02 148.46, 89.01 151.51, 77.97 151.32 C66.93 151.13, 55.49 147.83, 45.89 143.33 C36.29 138.83, 27.45 131.99, 20.38 124.3 C13.3 116.61, 6.99 106.57, 3.45 97.2 C-0.09 87.84, -2.08 78.26, -0.84 68.11 C0.4 57.96, 4.99 45.52, 10.9 36.31 C16.81 27.1, 25.95 18.63, 34.62 12.83 C43.29 7.03, 57.98 3.01, 62.92 1.5 C67.85 0, 63.72 2.42, 64.21 3.82" stroke="none" stroke-width="0" fill="#000"></path><path d="M101.21 2.03 C111.26 3.64, 121.47 10.38, 129.72 16.98 C137.97 23.58, 145.87 32.18, 150.73 41.62 C155.59 51.05, 158.32 63.1, 158.89 73.57 C159.47 84.03, 157.98 94.99, 154.19 104.41 C150.39 113.84, 144.06 123.1, 136.12 130.12 C128.18 137.14, 116.73 142.95, 106.56 146.53 C96.38 150.11, 85.64 152.28, 75.09 151.63 C64.53 150.98, 52.84 147.63, 43.21 142.62 C33.58 137.61, 24.06 129.73, 17.29 121.57 C10.51 113.41, 5.38 103.57, 2.57 93.67 C-0.24 83.78, -1.29 72.11, 0.42 62.2 C2.12 52.28, 6.83 42.71, 12.8 34.18 C18.78 25.64, 26.86 16.68, 36.27 10.99 C45.68 5.29, 57.82 1.05, 69.25 0 C80.69 -1.05, 98.31 3.67, 104.85 4.7 C111.39 5.72, 108.89 5.11, 108.51 6.15 M48.98 5.15 C58.08 0.47, 70.41 0.67, 81.22 1.08 C92.02 1.48, 104.11 3.34, 113.8 7.59 C123.5 11.83, 132.33 19.04, 139.4 26.54 C146.47 34.04, 153.18 43.24, 156.21 52.59 C159.25 61.95, 159.16 72.23, 157.6 82.69 C156.05 93.15, 152.11 106.37, 146.86 115.34 C141.61 124.32, 134.71 130.92, 126.11 136.53 C117.51 142.15, 106.09 146.94, 95.27 149.04 C84.45 151.13, 71.57 151.06, 61.21 149.08 C50.85 147.11, 41.6 143.35, 33.12 137.19 C24.63 131.02, 15.56 120.98, 10.32 112.08 C5.08 103.18, 2.61 93.82, 1.68 83.78 C0.75 73.75, 1.72 61.83, 4.71 51.87 C7.7 41.9, 12.54 31.64, 19.62 23.98 C26.69 16.32, 42.48 8.76, 47.16 5.9 C51.83 3.05, 46.84 5.68, 47.65 6.85" stroke="#000000" stroke-width="1" fill="none"></path></g><g stroke-linecap="round" transform="translate(134.69516131089176 120.60658093802351) rotate(0 62.7254407472937 63.72216576635594)"><path d="M55.13 0.34 C64.35 -1.58, 75.78 1.36, 84.85 4.83 C93.93 8.3, 103.31 13.83, 109.58 21.14 C115.86 28.46, 120.21 39.12, 122.49 48.73 C124.76 58.35, 125.27 69.49, 123.24 78.84 C121.21 88.19, 116.59 97.34, 110.3 104.86 C104.01 112.37, 94.4 120.18, 85.48 123.92 C76.56 127.66, 66.42 128.4, 56.76 127.28 C47.1 126.17, 35.56 122.73, 27.52 117.22 C19.48 111.71, 12.94 103.03, 8.5 94.22 C4.07 85.41, 1.18 74.22, 0.9 64.38 C0.61 54.53, 2.38 43.92, 6.78 35.18 C11.17 26.44, 18.74 17.67, 27.26 11.96 C35.78 6.24, 52.12 2.71, 57.89 0.89 C63.67 -0.93, 61.64 0.25, 61.89 1.04 M33.56 9.18 C41.01 4.08, 50.95 0.99, 60.54 0.85 C70.14 0.7, 82.03 3.81, 91.11 8.29 C100.18 12.77, 109.48 19.71, 115.01 27.73 C120.54 35.75, 123.4 46.54, 124.28 56.38 C125.17 66.22, 123.71 77.49, 120.31 86.75 C116.92 96.02, 110.95 105.32, 103.92 111.97 C96.89 118.62, 87.32 124.3, 78.13 126.64 C68.93 128.98, 57.94 128.44, 48.74 125.99 C39.54 123.54, 30.54 118.29, 22.92 111.94 C15.31 105.58, 6.83 96.98, 3.06 87.88 C-0.71 78.77, -1.04 67.06, 0.31 57.29 C1.66 47.51, 5.86 37.6, 11.16 29.22 C16.47 20.84, 28.44 10.47, 32.15 7 C35.86 3.52, 32.98 7.21, 33.41 8.35" stroke="none" stroke-width="0" fill="#12b886"></path><path d="M61.23 -0.95 C70.52 -2.03, 82.04 1.98, 90.72 6.57 C99.41 11.17, 107.49 18.38, 113.32 26.61 C119.15 34.84, 124.23 45.94, 125.72 55.95 C127.21 65.96, 125.71 77.56, 122.26 86.64 C118.82 95.71, 112.38 103.8, 105.05 110.39 C97.72 116.97, 87.63 123.48, 78.27 126.16 C68.91 128.84, 58.3 128.82, 48.87 126.48 C39.45 124.13, 29.28 118.67, 21.71 112.11 C14.15 105.54, 7.12 96.45, 3.48 87.09 C-0.15 77.73, -1.24 65.91, -0.12 55.96 C1 46.01, 4.56 35.62, 10.19 27.4 C15.81 19.18, 23.81 10.99, 33.63 6.65 C43.45 2.3, 62 2.04, 69.11 1.33 C76.21 0.62, 76.16 1.55, 76.25 2.39 M38.64 4.24 C46.9 0.22, 59.45 0.28, 69.12 1.55 C78.79 2.81, 88.35 6.32, 96.67 11.85 C104.99 17.37, 114.1 26.15, 119.03 34.71 C123.97 43.26, 126.15 53.42, 126.25 63.19 C126.36 72.97, 124.24 84.79, 119.64 93.35 C115.04 101.92, 107.02 109.23, 98.66 114.58 C90.3 119.92, 78.85 123.91, 69.49 125.43 C60.12 126.94, 51.45 126.88, 42.46 123.66 C33.48 120.45, 22.43 113.68, 15.56 106.12 C8.69 98.57, 3.65 87.7, 1.27 78.33 C-1.12 68.95, -1.21 59.29, 1.25 49.89 C3.71 40.49, 9.75 29.29, 16.04 21.92 C22.34 14.55, 34.82 8.31, 39 5.68 C43.19 3.06, 40.6 5.63, 41.15 6.19" stroke="#000000" stroke-width="1" fill="none"></path></g></svg>