<svg id="svg" xmlns="http://www.w3.org/2000/svg" height="410px" width="410px">
            <rect x="40" y="20" width="20.7" height="20.7" fill="rgb(0, 0, 0)"></rect>
<rect x="60" y="20" width="20.7" height="20.7" fill="rgb(0, 0, 0)"></rect>
<rect x="80" y="20" width="20.7" height="20.7" fill="rgb(0, 0, 0)"></rect>
<rect x="100" y="20" width="20.7" height="20.7" fill="rgb(0, 0, 0)"></rect>
<rect x="120" y="20" width="20.7" height="20.7" fill="rgb(0, 0, 0)"></rect>
<rect x="140" y="20" width="20.7" height="20.7" fill="rgb(0, 0, 0)"></rect>
<rect x="160" y="20" width="20.7" height="20.7" fill="rgb(0, 0, 0)"></rect>
<rect x="180" y="20" width="20.7" height="20.7" fill="rgb(0, 0, 0)"></rect>
<rect x="200" y="20" width="20.7" height="20.7" fill="rgb(0, 0, 0)"></rect>
<rect x="220" y="20" width="20.7" height="20.7" fill="rgb(0, 0, 0)"></rect>
<rect x="240" y="20" width="20.7" height="20.7" fill="rgb(0, 0, 0)"></rect>
<rect x="260" y="20" width="20.7" height="20.7" fill="rgb(0, 0, 0)"></rect>
<rect x="280" y="20" width="20.7" height="20.7" fill="rgb(0, 0, 0)"></rect>
<rect x="300" y="20" width="20.7" height="20.7" fill="rgb(0, 0, 0)"></rect>
<rect x="20" y="40" width="20.7" height="20.7" fill="rgb(0, 0, 0)"></rect>
<rect x="320" y="40" width="20.7" height="20.7" fill="rgb(0, 0, 0)"></rect>
<rect x="300" y="60" width="20.7" height="20.7" fill="rgb(0, 0, 0)"></rect>
<rect x="320" y="60" width="20.7" height="20.7" fill="rgb(0, 0, 0)"></rect>
<rect x="40" y="80" width="20.7" height="20.7" fill="rgb(0, 0, 0)"></rect>
<rect x="60" y="80" width="20.7" height="20.7" fill="rgb(0, 0, 0)"></rect>
<rect x="80" y="80" width="20.7" height="20.7" fill="rgb(0, 0, 0)"></rect>
<rect x="100" y="80" width="20.7" height="20.7" fill="rgb(0, 0, 0)"></rect>
<rect x="120" y="80" width="20.7" height="20.7" fill="rgb(0, 0, 0)"></rect>
<rect x="140" y="80" width="20.7" height="20.7" fill="rgb(0, 0, 0)"></rect>
<rect x="160" y="80" width="20.7" height="20.7" fill="rgb(0, 0, 0)"></rect>
<rect x="180" y="80" width="20.7" height="20.7" fill="rgb(0, 0, 0)"></rect>
<rect x="200" y="80" width="20.7" height="20.7" fill="rgb(0, 0, 0)"></rect>
<rect x="220" y="80" width="20.7" height="20.7" fill="rgb(0, 0, 0)"></rect>
<rect x="240" y="80" width="20.7" height="20.7" fill="rgb(0, 0, 0)"></rect>
<rect x="260" y="80" width="20.7" height="20.7" fill="rgb(0, 0, 0)"></rect>
<rect x="280" y="80" width="20.7" height="20.7" fill="rgb(0, 0, 0)"></rect>
<rect x="300" y="80" width="20.7" height="20.7" fill="rgb(0, 0, 0)"></rect>
<rect x="320" y="80" width="20.7" height="20.7" fill="rgb(0, 0, 0)"></rect>
<rect x="40" y="100" width="20.7" height="20.7" fill="rgb(0, 0, 0)"></rect>
<rect x="140" y="100" width="20.7" height="20.7" fill="rgb(0, 0, 0)"></rect>
<rect x="180" y="100" width="20.7" height="20.7" fill="rgb(0, 0, 0)"></rect>
<rect x="280" y="100" width="20.7" height="20.7" fill="rgb(0, 0, 0)"></rect>
<rect x="320" y="100" width="20.7" height="20.7" fill="rgb(0, 0, 0)"></rect>
<rect x="40" y="120" width="20.7" height="20.7" fill="rgb(0, 0, 0)"></rect>
<rect x="80" y="120" width="20.7" height="20.7" fill="rgb(0, 0, 0)"></rect>
<rect x="140" y="120" width="20.7" height="20.7" fill="rgb(0, 0, 0)"></rect>
<rect x="180" y="120" width="20.7" height="20.7" fill="rgb(0, 0, 0)"></rect>
<rect x="220" y="120" width="20.7" height="20.7" fill="rgb(0, 0, 0)"></rect>
<rect x="280" y="120" width="20.7" height="20.7" fill="rgb(0, 0, 0)"></rect>
<rect x="320" y="120" width="20.7" height="20.7" fill="rgb(0, 0, 0)"></rect>
<rect x="40" y="140" width="20.7" height="20.7" fill="rgb(0, 0, 0)"></rect>
<rect x="140" y="140" width="20.7" height="20.7" fill="rgb(0, 0, 0)"></rect>
<rect x="180" y="140" width="20.7" height="20.7" fill="rgb(0, 0, 0)"></rect>
<rect x="280" y="140" width="20.7" height="20.7" fill="rgb(0, 0, 0)"></rect>
<rect x="320" y="140" width="20.7" height="20.7" fill="rgb(0, 0, 0)"></rect>
<rect x="60" y="160" width="20.7" height="20.7" fill="rgb(0, 0, 0)"></rect>
<rect x="80" y="160" width="20.7" height="20.7" fill="rgb(0, 0, 0)"></rect>
<rect x="100" y="160" width="20.7" height="20.7" fill="rgb(0, 0, 0)"></rect>
<rect x="120" y="160" width="20.7" height="20.7" fill="rgb(0, 0, 0)"></rect>
<rect x="200" y="160" width="20.7" height="20.7" fill="rgb(0, 0, 0)"></rect>
<rect x="220" y="160" width="20.7" height="20.7" fill="rgb(0, 0, 0)"></rect>
<rect x="240" y="160" width="20.7" height="20.7" fill="rgb(0, 0, 0)"></rect>
<rect x="260" y="160" width="20.7" height="20.7" fill="rgb(0, 0, 0)"></rect>
<rect x="320" y="160" width="20.7" height="20.7" fill="rgb(0, 0, 0)"></rect>
<rect x="140" y="180" width="20.7" height="20.7" fill="rgb(0, 0, 0)"></rect>
<rect x="320" y="180" width="20.7" height="20.7" fill="rgb(0, 0, 0)"></rect>
<rect x="140" y="200" width="20.7" height="20.7" fill="rgb(0, 0, 0)"></rect>
<rect x="160" y="200" width="20.7" height="20.7" fill="rgb(0, 0, 0)"></rect>
<rect x="320" y="200" width="20.7" height="20.7" fill="rgb(0, 0, 0)"></rect>
<rect x="20" y="220" width="20.7" height="20.7" fill="rgb(0, 0, 0)"></rect>
<rect x="220" y="220" width="20.7" height="20.7" fill="rgb(0, 0, 0)"></rect>
<rect x="320" y="220" width="20.7" height="20.7" fill="rgb(0, 0, 0)"></rect>
<rect x="40" y="240" width="20.7" height="20.7" fill="rgb(0, 0, 0)"></rect>
<rect x="220" y="240" width="20.7" height="20.7" fill="rgb(0, 0, 0)"></rect>
<rect x="320" y="240" width="20.7" height="20.7" fill="rgb(0, 0, 0)"></rect>
<rect x="40" y="260" width="20.7" height="20.7" fill="rgb(0, 0, 0)"></rect>
<rect x="60" y="260" width="20.7" height="20.7" fill="rgb(0, 0, 0)"></rect>
<rect x="120" y="260" width="20.7" height="20.7" fill="rgb(0, 0, 0)"></rect>
<rect x="140" y="260" width="20.7" height="20.7" fill="rgb(0, 0, 0)"></rect>
<rect x="160" y="260" width="20.7" height="20.7" fill="rgb(0, 0, 0)"></rect>
<rect x="180" y="260" width="20.7" height="20.7" fill="rgb(0, 0, 0)"></rect>
<rect x="200" y="260" width="20.7" height="20.7" fill="rgb(0, 0, 0)"></rect>
<rect x="320" y="260" width="20.7" height="20.7" fill="rgb(0, 0, 0)"></rect>
<rect x="60" y="280" width="20.7" height="20.7" fill="rgb(0, 0, 0)"></rect>
<rect x="80" y="280" width="20.7" height="20.7" fill="rgb(0, 0, 0)"></rect>
<rect x="320" y="280" width="20.7" height="20.7" fill="rgb(0, 0, 0)"></rect>
<rect x="80" y="300" width="20.7" height="20.7" fill="rgb(0, 0, 0)"></rect>
<rect x="100" y="300" width="20.7" height="20.7" fill="rgb(0, 0, 0)"></rect>
<rect x="320" y="300" width="20.7" height="20.7" fill="rgb(0, 0, 0)"></rect>
<rect x="100" y="320" width="20.7" height="20.7" fill="rgb(0, 0, 0)"></rect>
<rect x="120" y="320" width="20.7" height="20.7" fill="rgb(0, 0, 0)"></rect>
<rect x="140" y="320" width="20.7" height="20.7" fill="rgb(0, 0, 0)"></rect>
<rect x="160" y="320" width="20.7" height="20.7" fill="rgb(0, 0, 0)"></rect>
<rect x="180" y="320" width="20.7" height="20.7" fill="rgb(0, 0, 0)"></rect>
<rect x="200" y="320" width="20.7" height="20.7" fill="rgb(0, 0, 0)"></rect>
<rect x="220" y="320" width="20.7" height="20.7" fill="rgb(0, 0, 0)"></rect>
<rect x="240" y="320" width="20.7" height="20.7" fill="rgb(0, 0, 0)"></rect>
<rect x="260" y="320" width="20.7" height="20.7" fill="rgb(0, 0, 0)"></rect>
<rect x="280" y="320" width="20.7" height="20.7" fill="rgb(0, 0, 0)"></rect>
<rect x="300" y="320" width="20.7" height="20.7" fill="rgb(0, 0, 0)"></rect>
<rect x="320" y="320" width="20.7" height="20.7" fill="rgb(0, 0, 0)"></rect>

        </svg>