<svg version="1.1" xmlns="http://www.w3.org/2000/svg" viewBox="0 0 282.56952357846876 329.22765809276416" width="282.56952357846876" height="329.22765809276416">
  <g stroke-linecap="round" transform="translate(77.33568612460112 101.67411308738156) rotate(180.13464326100578 66.35102128783046 62.495619593020365)"><path d="M132.7 62.5 C132.7 65.01, 132.54 67.54, 132.22 70.03 C131.9 72.52, 131.41 75.01, 130.77 77.45 C130.14 79.89, 129.34 82.31, 128.39 84.66 C127.44 87, 126.34 89.32, 125.1 91.54 C123.86 93.76, 122.47 95.93, 120.96 98 C119.44 100.06, 117.78 102.06, 116.02 103.94 C114.25 105.82, 112.35 107.61, 110.35 109.27 C108.35 110.94, 106.24 112.5, 104.04 113.93 C101.85 115.35, 99.55 116.67, 97.19 117.83 C94.83 119, 92.37 120.04, 89.88 120.93 C87.39 121.82, 84.82 122.57, 82.23 123.18 C79.64 123.78, 77 124.23, 74.35 124.54 C71.7 124.84, 69.02 124.99, 66.35 124.99 C63.69 124.99, 61 124.84, 58.35 124.54 C55.71 124.23, 53.06 123.78, 50.47 123.18 C47.88 122.57, 45.32 121.82, 42.82 120.93 C40.33 120.04, 37.88 119, 35.52 117.83 C33.16 116.67, 30.85 115.35, 28.66 113.93 C26.47 112.5, 24.35 110.94, 22.35 109.27 C20.36 107.61, 18.45 105.82, 16.69 103.94 C14.92 102.06, 13.26 100.06, 11.75 98 C10.23 95.93, 8.84 93.76, 7.6 91.54 C6.36 89.32, 5.26 87, 4.31 84.66 C3.37 82.31, 2.57 79.89, 1.93 77.45 C1.29 75.01, 0.81 72.52, 0.48 70.03 C0.16 67.54, 0 65.01, 0 62.5 C0 59.98, 0.16 57.46, 0.48 54.96 C0.81 52.47, 1.29 49.98, 1.93 47.54 C2.57 45.1, 3.37 42.68, 4.31 40.33 C5.26 37.99, 6.36 35.68, 7.6 33.45 C8.84 31.23, 10.23 29.06, 11.75 26.99 C13.26 24.93, 14.92 22.93, 16.69 21.05 C18.45 19.17, 20.36 17.38, 22.35 15.72 C24.35 14.05, 26.47 12.49, 28.66 11.06 C30.85 9.64, 33.16 8.33, 35.52 7.16 C37.88 5.99, 40.33 4.95, 42.82 4.06 C45.32 3.17, 47.88 2.42, 50.47 1.82 C53.06 1.22, 55.71 0.76, 58.35 0.46 C61 0.15, 63.69 0, 66.35 0 C69.02 0, 71.7 0.15, 74.35 0.46 C77 0.76, 79.64 1.22, 82.23 1.82 C84.82 2.42, 87.39 3.17, 89.88 4.06 C92.37 4.95, 94.83 5.99, 97.19 7.16 C99.55 8.33, 101.85 9.64, 104.04 11.06 C106.24 12.49, 108.35 14.05, 110.35 15.72 C112.35 17.38, 114.25 19.17, 116.02 21.05 C117.78 22.93, 119.44 24.93, 120.96 26.99 C122.47 29.06, 123.86 31.23, 125.1 33.45 C126.34 35.68, 127.44 37.99, 128.39 40.33 C129.34 42.68, 130.14 45.1, 130.77 47.54 C131.41 49.98, 131.9 52.47, 132.22 54.96 C132.54 57.46, 132.7 59.98, 132.7 62.5" stroke="none" stroke-width="0" fill="#000"></path><path d="M132.7 62.5 C132.7 65.01, 132.54 67.54, 132.22 70.03 C131.9 72.52, 131.41 75.01, 130.77 77.45 C130.14 79.89, 129.34 82.31, 128.39 84.66 C127.44 87, 126.34 89.32, 125.1 91.54 C123.86 93.76, 122.47 95.93, 120.96 98 C119.44 100.06, 117.78 102.06, 116.02 103.94 C114.25 105.82, 112.35 107.61, 110.35 109.27 C108.35 110.94, 106.24 112.5, 104.04 113.93 C101.85 115.35, 99.55 116.67, 97.19 117.83 C94.83 119, 92.37 120.04, 89.88 120.93 C87.39 121.82, 84.82 122.57, 82.23 123.18 C79.64 123.78, 77 124.23, 74.35 124.54 C71.7 124.84, 69.02 124.99, 66.35 124.99 C63.69 124.99, 61 124.84, 58.35 124.54 C55.71 124.23, 53.06 123.78, 50.47 123.18 C47.88 122.57, 45.32 121.82, 42.82 120.93 C40.33 120.04, 37.88 119, 35.52 117.83 C33.16 116.67, 30.85 115.35, 28.66 113.93 C26.47 112.5, 24.35 110.94, 22.35 109.27 C20.36 107.61, 18.45 105.82, 16.69 103.94 C14.92 102.06, 13.26 100.06, 11.75 98 C10.23 95.93, 8.84 93.76, 7.6 91.54 C6.36 89.32, 5.26 87, 4.31 84.66 C3.37 82.31, 2.57 79.89, 1.93 77.45 C1.29 75.01, 0.81 72.52, 0.48 70.03 C0.16 67.54, 0 65.01, 0 62.5 C0 59.98, 0.16 57.46, 0.48 54.96 C0.81 52.47, 1.29 49.98, 1.93 47.54 C2.57 45.1, 3.37 42.68, 4.31 40.33 C5.26 37.99, 6.36 35.68, 7.6 33.45 C8.84 31.23, 10.23 29.06, 11.75 26.99 C13.26 24.93, 14.92 22.93, 16.69 21.05 C18.45 19.17, 20.36 17.38, 22.35 15.72 C24.35 14.05, 26.47 12.49, 28.66 11.06 C30.85 9.64, 33.16 8.33, 35.52 7.16 C37.88 5.99, 40.33 4.95, 42.82 4.06 C45.32 3.17, 47.88 2.42, 50.47 1.82 C53.06 1.22, 55.71 0.76, 58.35 0.46 C61 0.15, 63.69 0, 66.35 0 C69.02 0, 71.7 0.15, 74.35 0.46 C77 0.76, 79.64 1.22, 82.23 1.82 C84.82 2.42, 87.39 3.17, 89.88 4.06 C92.37 4.95, 94.83 5.99, 97.19 7.16 C99.55 8.33, 101.85 9.64, 104.04 11.06 C106.24 12.49, 108.35 14.05, 110.35 15.72 C112.35 17.38, 114.25 19.17, 116.02 21.05 C117.78 22.93, 119.44 24.93, 120.96 26.99 C122.47 29.06, 123.86 31.23, 125.1 33.45 C126.34 35.68, 127.44 37.99, 128.39 40.33 C129.34 42.68, 130.14 45.1, 130.77 47.54 C131.41 49.98, 131.9 52.47, 132.22 54.96 C132.54 57.46, 132.7 59.98, 132.7 62.5" stroke="#000" stroke-width="4" fill="none"></path></g><g stroke-linecap="round"><g transform="translate(171.3981613866208 246.45850862687348) rotate(180.13464326100578 -24.45252622195403 36.386043932036046)" fill-rule="evenodd"><path d="M-23.24 0 L-51.5 72.77 L2.6 72.15 L-23.24 0" stroke="none" stroke-width="0" fill="#000" fill-rule="evenodd"></path><path d="M-23.24 0 C-30.45 18.55, -37.65 37.09, -51.5 72.77 M-23.24 0 C-33.76 27.08, -44.28 54.17, -51.5 72.77 M-51.5 72.77 C-39.03 72.63, -26.56 72.48, 2.6 72.15 M-51.5 72.77 C-38.45 72.62, -25.4 72.47, 2.6 72.15 M2.6 72.15 C-4.29 52.91, -11.18 33.67, -23.24 0 M2.6 72.15 C-6.02 48.08, -14.64 24.01, -23.24 0 M-23.24 0 C-23.24 0, -23.24 0, -23.24 0 M-23.24 0 C-23.24 0, -23.24 0, -23.24 0" stroke="#000" stroke-width="4" fill="none"></path></g></g><mask></mask><g stroke-linecap="round"><g transform="translate(143.96728181762865 10.01221295477626) rotate(359.2868146378875 -1.2076472221979202 36.386043932036046)" fill-rule="evenodd"><path d="M0 0 L-28.26 72.77 L25.84 72.15 L0 0" stroke="none" stroke-width="0" fill="#000" fill-rule="evenodd"></path><path d="M0 0 C-7.63 19.65, -15.26 39.29, -28.26 72.77 M0 0 C-7.42 19.12, -14.85 38.24, -28.26 72.77 M-28.26 72.77 C-12.28 72.59, 3.69 72.4, 25.84 72.15 M-28.26 72.77 C-9.67 72.56, 8.92 72.34, 25.84 72.15 M25.84 72.15 C19.54 54.56, 13.24 36.97, 0 0 M25.84 72.15 C17.07 47.65, 8.29 23.16, 0 0 M0 0 C0 0, 0 0, 0 0 M0 0 C0 0, 0 0, 0 0" stroke="#000" stroke-width="4" fill="none"></path></g></g><mask></mask><g stroke-linecap="round" transform="translate(75.6856040330249 101.42033288271887) rotate(237.78596837669426 66.35102128783046 62.495619593020365)"><path d="M132.7 62.5 C132.7 65.01, 132.54 67.54, 132.22 70.03 C131.9 72.52, 131.41 75.01, 130.77 77.45 C130.14 79.89, 129.34 82.31, 128.39 84.66 C127.44 87, 126.34 89.32, 125.1 91.54 C123.86 93.76, 122.47 95.93, 120.96 98 C119.44 100.06, 117.78 102.06, 116.02 103.94 C114.25 105.82, 112.35 107.61, 110.35 109.27 C108.35 110.94, 106.24 112.5, 104.04 113.93 C101.85 115.35, 99.55 116.67, 97.19 117.83 C94.83 119, 92.37 120.04, 89.88 120.93 C87.39 121.82, 84.82 122.57, 82.23 123.18 C79.64 123.78, 77 124.23, 74.35 124.54 C71.7 124.84, 69.02 124.99, 66.35 124.99 C63.69 124.99, 61 124.84, 58.35 124.54 C55.71 124.23, 53.06 123.78, 50.47 123.18 C47.88 122.57, 45.32 121.82, 42.82 120.93 C40.33 120.04, 37.88 119, 35.52 117.83 C33.16 116.67, 30.85 115.35, 28.66 113.93 C26.47 112.5, 24.35 110.94, 22.35 109.27 C20.36 107.61, 18.45 105.82, 16.69 103.94 C14.92 102.06, 13.26 100.06, 11.75 98 C10.23 95.93, 8.84 93.76, 7.6 91.54 C6.36 89.32, 5.26 87, 4.31 84.66 C3.37 82.31, 2.57 79.89, 1.93 77.45 C1.29 75.01, 0.81 72.52, 0.48 70.03 C0.16 67.54, 0 65.01, 0 62.5 C0 59.98, 0.16 57.46, 0.48 54.96 C0.81 52.47, 1.29 49.98, 1.93 47.54 C2.57 45.1, 3.37 42.68, 4.31 40.33 C5.26 37.99, 6.36 35.68, 7.6 33.45 C8.84 31.23, 10.23 29.06, 11.75 26.99 C13.26 24.93, 14.92 22.93, 16.69 21.05 C18.45 19.17, 20.36 17.38, 22.35 15.72 C24.35 14.05, 26.47 12.49, 28.66 11.06 C30.85 9.64, 33.16 8.33, 35.52 7.16 C37.88 5.99, 40.33 4.95, 42.82 4.06 C45.32 3.17, 47.88 2.42, 50.47 1.82 C53.06 1.22, 55.71 0.76, 58.35 0.46 C61 0.15, 63.69 0, 66.35 0 C69.02 0, 71.7 0.15, 74.35 0.46 C77 0.76, 79.64 1.22, 82.23 1.82 C84.82 2.42, 87.39 3.17, 89.88 4.06 C92.37 4.95, 94.83 5.99, 97.19 7.16 C99.55 8.33, 101.85 9.64, 104.04 11.06 C106.24 12.49, 108.35 14.05, 110.35 15.72 C112.35 17.38, 114.25 19.17, 116.02 21.05 C117.78 22.93, 119.44 24.93, 120.96 26.99 C122.47 29.06, 123.86 31.23, 125.1 33.45 C126.34 35.68, 127.44 37.99, 128.39 40.33 C129.34 42.68, 130.14 45.1, 130.77 47.54 C131.41 49.98, 131.9 52.47, 132.22 54.96 C132.54 57.46, 132.7 59.98, 132.7 62.5" stroke="none" stroke-width="0" fill="#000"></path><path d="M132.7 62.5 C132.7 65.01, 132.54 67.54, 132.22 70.03 C131.9 72.52, 131.41 75.01, 130.77 77.45 C130.14 79.89, 129.34 82.31, 128.39 84.66 C127.44 87, 126.34 89.32, 125.1 91.54 C123.86 93.76, 122.47 95.93, 120.96 98 C119.44 100.06, 117.78 102.06, 116.02 103.94 C114.25 105.82, 112.35 107.61, 110.35 109.27 C108.35 110.94, 106.24 112.5, 104.04 113.93 C101.85 115.35, 99.55 116.67, 97.19 117.83 C94.83 119, 92.37 120.04, 89.88 120.93 C87.39 121.82, 84.82 122.57, 82.23 123.18 C79.64 123.78, 77 124.23, 74.35 124.54 C71.7 124.84, 69.02 124.99, 66.35 124.99 C63.69 124.99, 61 124.84, 58.35 124.54 C55.71 124.23, 53.06 123.78, 50.47 123.18 C47.88 122.57, 45.32 121.82, 42.82 120.93 C40.33 120.04, 37.88 119, 35.52 117.83 C33.16 116.67, 30.85 115.35, 28.66 113.93 C26.47 112.5, 24.35 110.94, 22.35 109.27 C20.36 107.61, 18.45 105.82, 16.69 103.94 C14.92 102.06, 13.26 100.06, 11.75 98 C10.23 95.93, 8.84 93.76, 7.6 91.54 C6.36 89.32, 5.26 87, 4.31 84.66 C3.37 82.31, 2.57 79.89, 1.93 77.45 C1.29 75.01, 0.81 72.52, 0.48 70.03 C0.16 67.54, 0 65.01, 0 62.5 C0 59.98, 0.16 57.46, 0.48 54.96 C0.81 52.47, 1.29 49.98, 1.93 47.54 C2.57 45.1, 3.37 42.68, 4.31 40.33 C5.26 37.99, 6.36 35.68, 7.6 33.45 C8.84 31.23, 10.23 29.06, 11.75 26.99 C13.26 24.93, 14.92 22.93, 16.69 21.05 C18.45 19.17, 20.36 17.38, 22.35 15.72 C24.35 14.05, 26.47 12.49, 28.66 11.06 C30.85 9.64, 33.16 8.33, 35.52 7.16 C37.88 5.99, 40.33 4.95, 42.82 4.06 C45.32 3.17, 47.88 2.42, 50.47 1.82 C53.06 1.22, 55.71 0.76, 58.35 0.46 C61 0.15, 63.69 0, 66.35 0 C69.02 0, 71.7 0.15, 74.35 0.46 C77 0.76, 79.64 1.22, 82.23 1.82 C84.82 2.42, 87.39 3.17, 89.88 4.06 C92.37 4.95, 94.83 5.99, 97.19 7.16 C99.55 8.33, 101.85 9.64, 104.04 11.06 C106.24 12.49, 108.35 14.05, 110.35 15.72 C112.35 17.38, 114.25 19.17, 116.02 21.05 C117.78 22.93, 119.44 24.93, 120.96 26.99 C122.47 29.06, 123.86 31.23, 125.1 33.45 C126.34 35.68, 127.44 37.99, 128.39 40.33 C129.34 42.68, 130.14 45.1, 130.77 47.54 C131.41 49.98, 131.9 52.47, 132.22 54.96 C132.54 57.46, 132.7 59.98, 132.7 62.5" stroke="#000" stroke-width="4" fill="none"></path></g><g stroke-linecap="round"><g transform="translate(67.97551985586415 193.78243947754208) rotate(237.78596837669426 -24.45252622195403 36.386043932036046)" fill-rule="evenodd"><path d="M-23.24 0 L-51.5 72.77 L2.6 72.15 L-23.24 0" stroke="none" stroke-width="0" fill="#000" fill-rule="evenodd"></path><path d="M-23.24 0 C-33.75 27.06, -44.26 54.12, -51.5 72.77 M-23.24 0 C-30.6 18.94, -37.95 37.88, -51.5 72.77 M-51.5 72.77 C-30.35 72.53, -9.2 72.28, 2.6 72.15 M-51.5 72.77 C-30.79 72.53, -10.07 72.29, 2.6 72.15 M2.6 72.15 C-5.5 49.55, -13.59 26.95, -23.24 0 M2.6 72.15 C-2.96 56.63, -8.52 41.11, -23.24 0 M-23.24 0 C-23.24 0, -23.24 0, -23.24 0 M-23.24 0 C-23.24 0, -23.24 0, -23.24 0" stroke="#000" stroke-width="4" fill="none"></path></g></g><mask></mask><g stroke-linecap="round"><g transform="translate(242.2424584775954 63.730698859906624) rotate(416.93813975357597 -1.2076472221979202 36.386043932036046)" fill-rule="evenodd"><path d="M0 0 L-28.26 72.77 L25.84 72.15 L0 0" stroke="none" stroke-width="0" fill="#000" fill-rule="evenodd"></path><path d="M0 0 C-9.04 23.29, -18.09 46.58, -28.26 72.77 M0 0 C-8.56 22.05, -17.13 44.11, -28.26 72.77 M-28.26 72.77 C-16.08 72.63, -3.91 72.49, 25.84 72.15 M-28.26 72.77 C-9.62 72.56, 9.01 72.34, 25.84 72.15 M25.84 72.15 C20.46 57.12, 15.07 42.09, 0 0 M25.84 72.15 C16.4 45.79, 6.96 19.44, 0 0 M0 0 C0 0, 0 0, 0 0 M0 0 C0 0, 0 0, 0 0" stroke="#000" stroke-width="4" fill="none"></path></g></g><mask></mask><g stroke-linecap="round" transform="translate(75.78810562691615 100.9842606331299) rotate(302.417588427058 66.35102128783046 62.495619593020365)"><path d="M132.7 62.5 C132.7 65.01, 132.54 67.54, 132.22 70.03 C131.9 72.52, 131.41 75.01, 130.77 77.45 C130.14 79.89, 129.34 82.31, 128.39 84.66 C127.44 87, 126.34 89.32, 125.1 91.54 C123.86 93.76, 122.47 95.93, 120.96 98 C119.44 100.06, 117.78 102.06, 116.02 103.94 C114.25 105.82, 112.35 107.61, 110.35 109.27 C108.35 110.94, 106.24 112.5, 104.04 113.93 C101.85 115.35, 99.55 116.67, 97.19 117.83 C94.83 119, 92.37 120.04, 89.88 120.93 C87.39 121.82, 84.82 122.57, 82.23 123.18 C79.64 123.78, 77 124.23, 74.35 124.54 C71.7 124.84, 69.02 124.99, 66.35 124.99 C63.69 124.99, 61 124.84, 58.35 124.54 C55.71 124.23, 53.06 123.78, 50.47 123.18 C47.88 122.57, 45.32 121.82, 42.82 120.93 C40.33 120.04, 37.88 119, 35.52 117.83 C33.16 116.67, 30.85 115.35, 28.66 113.93 C26.47 112.5, 24.35 110.94, 22.35 109.27 C20.36 107.61, 18.45 105.82, 16.69 103.94 C14.92 102.06, 13.26 100.06, 11.75 98 C10.23 95.93, 8.84 93.76, 7.6 91.54 C6.36 89.32, 5.26 87, 4.31 84.66 C3.37 82.31, 2.57 79.89, 1.93 77.45 C1.29 75.01, 0.81 72.52, 0.48 70.03 C0.16 67.54, 0 65.01, 0 62.5 C0 59.98, 0.16 57.46, 0.48 54.96 C0.81 52.47, 1.29 49.98, 1.93 47.54 C2.57 45.1, 3.37 42.68, 4.31 40.33 C5.26 37.99, 6.36 35.68, 7.6 33.45 C8.84 31.23, 10.23 29.06, 11.75 26.99 C13.26 24.93, 14.92 22.93, 16.69 21.05 C18.45 19.17, 20.36 17.38, 22.35 15.72 C24.35 14.05, 26.47 12.49, 28.66 11.06 C30.85 9.64, 33.16 8.33, 35.52 7.16 C37.88 5.99, 40.33 4.95, 42.82 4.06 C45.32 3.17, 47.88 2.42, 50.47 1.82 C53.06 1.22, 55.71 0.76, 58.35 0.46 C61 0.15, 63.69 0, 66.35 0 C69.02 0, 71.7 0.15, 74.35 0.46 C77 0.76, 79.64 1.22, 82.23 1.82 C84.82 2.42, 87.39 3.17, 89.88 4.06 C92.37 4.95, 94.83 5.99, 97.19 7.16 C99.55 8.33, 101.85 9.64, 104.04 11.06 C106.24 12.49, 108.35 14.05, 110.35 15.72 C112.35 17.38, 114.25 19.17, 116.02 21.05 C117.78 22.93, 119.44 24.93, 120.96 26.99 C122.47 29.06, 123.86 31.23, 125.1 33.45 C126.34 35.68, 127.44 37.99, 128.39 40.33 C129.34 42.68, 130.14 45.1, 130.77 47.54 C131.41 49.98, 131.9 52.47, 132.22 54.96 C132.54 57.46, 132.7 59.98, 132.7 62.5" stroke="none" stroke-width="0" fill="#000"></path><path d="M132.7 62.5 C132.7 65.01, 132.54 67.54, 132.22 70.03 C131.9 72.52, 131.41 75.01, 130.77 77.45 C130.14 79.89, 129.34 82.31, 128.39 84.66 C127.44 87, 126.34 89.32, 125.1 91.54 C123.86 93.76, 122.47 95.93, 120.96 98 C119.44 100.06, 117.78 102.06, 116.02 103.94 C114.25 105.82, 112.35 107.61, 110.35 109.27 C108.35 110.94, 106.24 112.5, 104.04 113.93 C101.85 115.35, 99.55 116.67, 97.19 117.83 C94.83 119, 92.37 120.04, 89.88 120.93 C87.39 121.82, 84.82 122.57, 82.23 123.18 C79.64 123.78, 77 124.23, 74.35 124.54 C71.7 124.84, 69.02 124.99, 66.35 124.99 C63.69 124.99, 61 124.84, 58.35 124.54 C55.71 124.23, 53.06 123.78, 50.47 123.18 C47.88 122.57, 45.32 121.82, 42.82 120.93 C40.33 120.04, 37.88 119, 35.52 117.83 C33.16 116.67, 30.85 115.35, 28.66 113.93 C26.47 112.5, 24.35 110.94, 22.35 109.27 C20.36 107.61, 18.45 105.82, 16.69 103.94 C14.92 102.06, 13.26 100.06, 11.75 98 C10.23 95.93, 8.84 93.76, 7.6 91.54 C6.36 89.32, 5.26 87, 4.31 84.66 C3.37 82.31, 2.57 79.89, 1.93 77.45 C1.29 75.01, 0.81 72.52, 0.48 70.03 C0.16 67.54, 0 65.01, 0 62.5 C0 59.98, 0.16 57.46, 0.48 54.96 C0.81 52.47, 1.29 49.98, 1.93 47.54 C2.57 45.1, 3.37 42.68, 4.31 40.33 C5.26 37.99, 6.36 35.68, 7.6 33.45 C8.84 31.23, 10.23 29.06, 11.75 26.99 C13.26 24.93, 14.92 22.93, 16.69 21.05 C18.45 19.17, 20.36 17.38, 22.35 15.72 C24.35 14.05, 26.47 12.49, 28.66 11.06 C30.85 9.64, 33.16 8.33, 35.52 7.16 C37.88 5.99, 40.33 4.95, 42.82 4.06 C45.32 3.17, 47.88 2.42, 50.47 1.82 C53.06 1.22, 55.71 0.76, 58.35 0.46 C61 0.15, 63.69 0, 66.35 0 C69.02 0, 71.7 0.15, 74.35 0.46 C77 0.76, 79.64 1.22, 82.23 1.82 C84.82 2.42, 87.39 3.17, 89.88 4.06 C92.37 4.95, 94.83 5.99, 97.19 7.16 C99.55 8.33, 101.85 9.64, 104.04 11.06 C106.24 12.49, 108.35 14.05, 110.35 15.72 C112.35 17.38, 114.25 19.17, 116.02 21.05 C117.78 22.93, 119.44 24.93, 120.96 26.99 C122.47 29.06, 123.86 31.23, 125.1 33.45 C126.34 35.68, 127.44 37.99, 128.39 40.33 C129.34 42.68, 130.14 45.1, 130.77 47.54 C131.41 49.98, 131.9 52.47, 132.22 54.96 C132.54 57.46, 132.7 59.98, 132.7 62.5" stroke="#000" stroke-width="4" fill="none"></path></g><g stroke-linecap="round"><g transform="translate(64.52089005386279 66.46469472853596) rotate(302.417588427058 -24.45252622195403 36.386043932036046)" fill-rule="evenodd"><path d="M-23.24 0 L-51.5 72.77 L2.6 72.15 L-23.24 0" stroke="none" stroke-width="0" fill="#000" fill-rule="evenodd"></path><path d="M-23.24 0 C-32.33 23.4, -41.41 46.79, -51.5 72.77 M-23.24 0 C-30.92 19.76, -38.59 39.52, -51.5 72.77 M-51.5 72.77 C-32.43 72.55, -13.37 72.33, 2.6 72.15 M-51.5 72.77 C-30.95 72.54, -10.41 72.3, 2.6 72.15 M2.6 72.15 C-3.47 55.22, -9.53 38.29, -23.24 0 M2.6 72.15 C-5.3 50.1, -13.2 28.05, -23.24 0 M-23.24 0 C-23.24 0, -23.24 0, -23.24 0 M-23.24 0 C-23.24 0, -23.24 0, -23.24 0" stroke="#000" stroke-width="4" fill="none"></path></g></g><mask></mask><g stroke-linecap="round"><g transform="translate(243.40838588744737 189.2118999189438) rotate(481.5697598039397 -1.2076472221979202 36.386043932036046)" fill-rule="evenodd"><path d="M0 0 L-28.26 72.77 L25.84 72.15 L0 0" stroke="none" stroke-width="0" fill="#000" fill-rule="evenodd"></path><path d="M0 0 C-9.36 24.11, -18.72 48.22, -28.26 72.77 M0 0 C-9.58 24.68, -19.16 49.35, -28.26 72.77 M-28.26 72.77 C-9.91 72.56, 8.43 72.35, 25.84 72.15 M-28.26 72.77 C-6.7 72.52, 14.85 72.27, 25.84 72.15 M25.84 72.15 C17 47.47, 8.16 22.78, 0 0 M25.84 72.15 C17.15 47.89, 8.46 23.63, 0 0 M0 0 C0 0, 0 0, 0 0 M0 0 C0 0, 0 0, 0 0" stroke="#000" stroke-width="4" fill="none"></path></g></g><mask></mask></svg>