<svg version="1.1" xmlns="http://www.w3.org/2000/svg" viewBox="0 0 78.9116245057121 56.065639785681014" width="78.9116245057121" height="56.065639785681014">
  <!-- svg-source:excalidraw -->
  
  <defs>
    <style class="style-fonts">
      @font-face {
        font-family: "Virgil";
        src: url("https://excalidraw.com/Virgil.woff2");
      }
      @font-face {
        font-family: "Cascadia";
        src: url("https://excalidraw.com/Cascadia.woff2");
      }
    </style>
  </defs>
  <g transform="translate(122.01837365132178 31.094238582041726) rotate(0 -82.56256139846573 -3.0614186892012185)" stroke="none"><path d="M-55.32 -10.78 L-55.41 -10.86 L-55.41 -10.95 L-55.41 -11.03 L-55.41 -11.2 L-55.41 -11.36 L-55.41 -11.53 L-55.41 -11.61 L-55.41 -11.86 L-55.41 -12.11 L-55.41 -12.36 L-55.24 -12.61 L-55.15 -12.69 L-55.07 -12.86 L-54.98 -13.11 L-54.72 -13.61 L-54.72 -13.69 L-54.64 -13.85 L-54.64 -14.02 L-54.43 -14.55 L-54.26 -14.8 L-54.26 -14.97 L-54.17 -15.13 L-54.09 -15.3 L-53.96 -15.66 L-53.79 -16 L-53.7 -16.16 L-53.7 -16.25 L-53.7 -16.33 L-53.7 -16.5 L-53.62 -16.66 L-53.62 -16.74 L-53.62 -16.91 L-53.53 -16.99 L-53.45 -17.08 L-53.45 -17.16 L-53.53 -17.24 L-53.62 -17.41 L-53.62 -17.49 L-53.71 -17.66 L-53.79 -17.83 L-53.88 -17.91 L-53.96 -17.99 L-54.05 -18.08 L-54.14 -18.16 L-54.48 -18.24 L-54.57 -18.24 L-54.74 -18.32 L-54.91 -18.32 L-55.08 -18.41 L-55.25 -18.57 L-55.34 -18.57 L-55.6 -18.74 L-55.68 -18.82 L-55.77 -18.91 L-56.03 -19.07 L-56.11 -19.16 L-56.2 -19.24 L-56.29 -19.32 L-56.46 -19.41 L-56.54 -19.49 L-56.63 -19.57 L-56.54 -19.57 L-56.46 -19.57 L-56.29 -19.57 L-56.12 -19.57 L-56.03 -19.57 L-55.95 -19.57 L-55.86 -19.57 L-55.69 -19.57 L-55.43 -19.49 L-55.35 -19.41 L-55.26 -19.41 L-55.18 -19.41 L-55.09 -19.41 L-55 -19.41 L-54.92 -19.41 L-54.75 -19.41 L-54.66 -19.41 L-54.58 -19.41 L-54.49 -19.33 L-54.58 -19.33 L-54.75 -19.33 L-55.09 -19.33 L-55.26 -19.33 L-55.9 -19.45 L-56.07 -19.45 L-56.25 -19.45 L-56.5 -19.45 L-56.97 -19.57 L-57.43 -19.69 L-58.03 -19.69 L-58.21 -19.77 L-58.29 -19.86 L-58.55 -19.94 L-58.72 -20.02 L-58.81 -20.02 L-58.89 -20.02 L-59.07 -20.11 L-59.41 -20.11 L-59.58 -20.19 L-59.67 -20.27 L-59.84 -20.27 L-60.1 -20.27 L-60.56 -20.4 L-61.11 -20.4 L-61.66 -20.52 L-62.09 -20.52 L-62.26 -20.52 L-62.52 -20.52 L-62.86 -20.52 L-63.12 -20.52 L-63.38 -20.6 L-63.55 -20.6 L-63.81 -20.6 L-63.98 -20.6 L-64.16 -20.6 L-64.33 -20.6 L-64.5 -20.6 L-64.67 -20.6 L-64.93 -20.6 L-65.02 -20.6 L-65.1 -20.6 L-65.28 -20.6 L-65.74 -20.72 L-66.08 -20.81 L-66.43 -20.81 L-66.77 -20.81 L-67.41 -20.93 L-67.58 -20.93 L-67.84 -20.93 L-68.09 -20.93 L-68.35 -20.93 L-68.52 -21.01 L-68.78 -21.01 L-69.12 -21.01 L-69.47 -21.09 L-69.73 -21.09 L-69.9 -21.09 L-70.24 -21.09 L-70.5 -21.09 L-71.05 -21.09 L-71.22 -21.09 L-71.65 -21.09 L-71.99 -21.09 L-72.34 -21.09 L-72.51 -21.09 L-72.85 -21.09 L-73.02 -21.09 L-73.2 -21.09 L-73.46 -21.09 L-73.54 -21.09 L-73.71 -21.09 L-74.06 -21.09 L-74.4 -21.09 L-74.57 -21.09 L-75.12 -21.09 L-75.67 -21.09 L-75.84 -21.09 L-76.19 -21.09 L-76.62 -21.09 L-76.87 -21.09 L-77.42 -21.09 L-77.97 -21.09 L-78.32 -21.09 L-78.66 -21.09 L-79 -21.09 L-79.26 -21.09 L-79.52 -21.09 L-80.04 -21.09 L-80.79 -21.09 L-81.55 -21.09 L-82.3 -21.09 L-82.85 -21.09 L-82.94 -21.09 L-83.37 -21.09 L-83.71 -21.09 L-84.06 -21.09 L-84.4 -21.09 L-84.66 -21.09 L-84.92 -21.09 L-85.09 -21.09 L-85.26 -21.09 L-85.52 -21.09 L-86.03 -21.09 L-86.38 -21.09 L-86.81 -21.09 L-86.98 -21.09 L-87.15 -21.09 L-87.7 -20.89 L-87.79 -20.89 L-88.13 -20.89 L-88.59 -20.77 L-88.77 -20.77 L-89.11 -20.77 L-89.66 -20.77 L-90.09 -20.77 L-90.55 -20.65 L-90.72 -20.65 L-91.07 -20.65 L-91.41 -20.65 L-91.75 -20.65 L-91.93 -20.65 L-92.01 -20.65 L-92.19 -20.65 L-92.44 -20.65 L-92.53 -20.65 L-92.62 -20.65 L-92.79 -20.65 L-93.05 -20.65 L-93.42 -20.53 L-93.68 -20.53 L-93.85 -20.53 L-94.11 -20.53 L-94.37 -20.53 L-94.89 -20.53 L-94.97 -20.53 L-95.23 -20.53 L-95.4 -20.53 L-95.57 -20.53 L-95.75 -20.53 L-96 -20.53 L-96.26 -20.53 L-96.35 -20.53 L-96.43 -20.53 L-96.52 -20.53 L-96.69 -20.53 L-96.78 -20.53 L-96.95 -20.53 L-97.04 -20.53 L-97.12 -20.53 L-97.3 -20.53 L-97.38 -20.53 L-97.55 -20.53 L-97.73 -20.53 L-97.81 -20.53 L-98.07 -20.44 L-98.33 -20.36 L-98.5 -20.36 L-98.76 -20.36 L-98.93 -20.36 L-99.02 -20.36 L-99.1 -20.36 L-99.28 -20.36 L-99.71 -20.36 L-99.88 -20.36 L-100.05 -20.36 L-100.22 -20.36 L-100.31 -20.36 L-100.57 -20.36 L-100.91 -20.28 L-101 -20.28 L-101.08 -20.28 L-101.25 -20.2 L-101.34 -20.2 L-101.43 -20.2 L-101.6 -20.11 L-101.68 -20.11 L-101.86 -20.11 L-101.94 -20.11 L-102.11 -20.03 L-102.29 -19.95 L-102.46 -19.95 L-102.72 -19.95 L-102.89 -19.86 L-103.06 -19.86 L-103.23 -19.86 L-103.4 -19.78 L-103.49 -19.78 L-103.58 -19.78 L-103.83 -19.7 L-103.92 -19.7 L-104.26 -19.62 L-104.44 -19.53 L-104.52 -19.53 L-104.69 -19.53 L-104.87 -19.45 L-104.95 -19.45 L-105.21 -19.37 L-105.3 -19.37 L-105.47 -19.29 L-105.64 -19.29 L-105.81 -19.29 L-105.99 -19.29 L-106.16 -19.2 L-106.24 -19.12 L-106.33 -19.12 L-106.42 -19.12 L-106.59 -19.04 L-106.76 -19.04 L-106.85 -19.04 L-107.02 -18.96 L-107.1 -18.96 L-107.27 -18.87 L-107.36 -18.79 L-107.45 -18.63 L-107.53 -18.54 L-107.75 -18.1 L-107.75 -17.93 L-107.96 -17.48 L-108.04 -17.4 L-108.13 -17.23 L-108.13 -17.15 L-108.26 -16.79 L-108.34 -16.54 L-108.56 -16.01 L-108.64 -15.93 L-108.73 -15.76 L-108.73 -15.68 L-108.73 -15.6 L-108.81 -15.43 L-108.81 -15.27 L-108.9 -15.1 L-109.07 -14.94 L-109.07 -14.77 L-109.07 -14.69 L-109.07 -14.6 L-109.16 -14.44 L-109.24 -14.27 L-109.33 -14.03 L-109.42 -13.94 L-109.5 -13.94 L-109.59 -13.86 L-109.68 -13.78 L-109.85 -13.61 L-109.93 -13.53 L-110.02 -13.37 L-110.02 -13.28 L-110.11 -13.12 L-110.11 -13.03 L-110.19 -12.87 L-110.28 -12.79 L-110.36 -12.7 L-110.36 -12.54 L-110.36 -12.21 L-110.36 -11.96 L-110.36 -11.71 L-110.45 -11.55 L-110.45 -11.22 L-110.45 -10.97 L-110.45 -10.8 L-110.45 -10.56 L-110.45 -10.39 L-110.45 -10.14 L-110.54 -9.89 L-110.71 -9.73 L-110.84 -9.03 L-110.84 -8.79 L-110.92 -8.62 L-110.92 -8.29 L-111.05 -7.92 L-111.05 -7.68 L-111.13 -7.51 L-111.31 -7.1 L-111.31 -6.93 L-111.39 -6.77 L-111.39 -6.52 L-111.52 -6.07 L-111.52 -5.91 L-111.82 -5.05 L-111.82 -4.96 L-111.82 -4.63 L-112.02 -3.7 L-112.02 -2.97 L-112.02 -2.24 L-112.02 -1.14 L-112.02 -0.81 L-112.02 -0.08 L-112.02 0.65 L-112.02 1.18 L-111.89 1.54 L-111.77 2.07 L-111.77 2.15 L-111.68 2.4 L-111.6 2.57 L-111.38 3.01 L-111.3 3.18 L-111.3 3.34 L-111.3 3.51 L-111.21 3.76 L-111.21 3.84 L-111.21 4.17 L-111.13 4.34 L-111.13 4.58 L-110.96 4.91 L-110.96 5.08 L-110.83 5.53 L-110.83 5.69 L-110.83 6.02 L-110.83 6.27 L-110.83 6.44 L-110.83 6.68 L-110.83 7.1 L-110.75 7.26 L-110.75 7.35 L-110.75 7.51 L-110.62 8.04 L-110.62 8.29 L-110.62 8.62 L-110.45 8.95 L-110.32 9.48 L-110.32 9.56 L-110.32 9.73 L-110.24 9.81 L-110.15 9.98 L-109.98 10.14 L-109.9 10.22 L-109.81 10.31 L-109.72 10.47 L-109.55 10.55 L-109.38 10.64 L-109.3 10.72 L-109.21 10.8 L-109.13 10.8 L-109.04 10.88 L-108.87 10.97 L-108.61 11.13 L-108.36 11.38 L-108.18 11.46 L-108.1 11.55 L-107.84 11.79 L-107.5 12.04 L-107.24 12.21 L-106.99 12.29 L-106.64 12.45 L-106.56 12.54 L-106.3 12.62 L-106.13 12.7 L-105.96 12.87 L-105.87 12.95 L-105.7 13.03 L-105.45 13.12 L-105.36 13.12 L-105.02 13.28 L-104.76 13.36 L-104.59 13.45 L-104.42 13.45 L-104.16 13.45 L-103.91 13.53 L-103.74 13.53 L-103.27 13.73 L-102.81 13.85 L-102.26 13.98 L-101.71 14.1 L-101.25 14.22 L-100.99 14.3 L-100.02 14.49 L-99.14 14.69 L-98.88 14.69 L-98.54 14.69 L-98.45 14.69 L-98.37 14.69 L-98.2 14.69 L-98.11 14.69 L-97.94 14.69 L-97.77 14.69 L-97.34 14.69 L-97.17 14.69 L-96.91 14.69 L-96.57 14.69 L-96.31 14.6 L-96.06 14.52 L-95.97 14.52 L-95.72 14.52 L-95.63 14.52 L-95.37 14.44 L-95.2 14.44 L-95.03 14.44 L-94.95 14.44 L-94.77 14.35 L-94.6 14.35 L-94.43 14.35 L-94.26 14.35 L-94.18 14.35 L-94.01 14.35 L-93.66 14.35 L-93.49 14.35 L-93.41 14.35 L-93.32 14.35 L-93.06 14.35 L-92.81 14.35 L-92.64 14.35 L-92.55 14.35 L-92.47 14.35 L-92.21 14.35 L-92.04 14.35 L-91.95 14.35 L-91.78 14.35 L-91.52 14.35 L-91.27 14.35 L-90.93 14.35 L-90.84 14.35 L-90.75 14.35 L-90.58 14.35 L-90.41 14.35 L-90.16 14.35 L-90.07 14.35 L-89.98 14.35 L-89.9 14.35 L-89.73 14.35 L-89.64 14.35 L-89.56 14.35 L-89.47 14.35 L-89.3 14.35 L-89.21 14.35 L-89.13 14.35 L-88.96 14.35 L-88.7 14.35 L-88.27 14.35 L-88.1 14.35 L-87.93 14.35 L-87.67 14.35 L-87.42 14.35 L-87.16 14.35 L-86.99 14.35 L-86.9 14.35 L-86.73 14.35 L-86.39 14.35 L-86.22 14.35 L-86.05 14.35 L-85.36 14.35 L-85.28 14.35 L-84.94 14.35 L-84.68 14.35 L-84.42 14.35 L-84.34 14.35 L-84.17 14.35 L-84 14.35 L-83.82 14.35 L-83.65 14.35 L-83.4 14.35 L-83.23 14.35 L-82.97 14.35 L-82.71 14.35 L-82.63 14.35 L-82.46 14.35 L-82.28 14.35 L-81.94 14.35 L-81.69 14.35 L-81.51 14.35 L-81.43 14.35 L-81.34 14.35 L-81.17 14.35 L-81 14.35 L-80.66 14.35 L-80.32 14.35 L-80.15 14.35 L-79.72 14.35 L-79.29 14.35 L-78.86 14.35 L-78.69 14.35 L-78.52 14.35 L-78.35 14.35 L-78.18 14.35 L-78.01 14.35 L-77.66 14.35 L-76.81 14.35 L-76.3 14.35 L-76.13 14.35 L-75.78 14.35 L-75.53 14.35 L-75.27 14.35 L-75.1 14.35 L-75.01 14.35 L-74.93 14.35 L-74.76 14.35 L-74.59 14.35 L-74.33 14.35 L-73.9 14.35 L-73.64 14.35 L-73.56 14.35 L-73.39 14.35 L-73.05 14.35 L-72.7 14.35 L-72.45 14.35 L-72.36 14.35 L-72.19 14.35 L-72.1 14.35 L-72.02 14.35 L-71.85 14.35 L-71.68 14.35 L-71.33 14.35 L-71.16 14.35 L-70.91 14.35 L-70.36 14.56 L-69.89 14.56 L-69.47 14.56 L-69.38 14.56 L-69.21 14.56 L-68.87 14.64 L-68.61 14.64 L-68.44 14.64 L-68.35 14.64 L-68.18 14.72 L-68.1 14.72 L-68.01 14.72 L-67.84 14.72 L-67.59 14.72 L-67.24 14.72 L-67.07 14.72 L-66.82 14.72 L-66.56 14.72 L-66.47 14.72 L-66.3 14.72 L-66.22 14.72 L-66.05 14.72 L-65.87 14.72 L-65.7 14.72 L-65.62 14.72 L-65.45 14.72 L-65.19 14.72 L-64.76 14.72 L-64.21 14.72 L-63.87 14.72 L-63.61 14.72 L-63.36 14.81 L-62.76 14.81 L-62.59 14.81 L-62.25 14.89 L-62.16 14.97 L-61.99 14.97 L-61.65 14.97 L-61.39 14.97 L-61.22 14.97 L-61.13 14.97 L-60.96 14.97 L-60.79 14.97 L-60.53 14.97 L-60.16 14.85 L-60.07 14.85 L-59.81 14.85 L-59.56 14.85 L-59.39 14.85 L-59.3 14.85 L-59.22 14.85 L-59.13 14.77 L-59.04 14.77 L-58.87 14.77 L-58.62 14.68 L-58.53 14.6 L-58.45 14.52 L-58.28 14.43 L-58.02 14.35 L-57.93 14.35 L-57.76 14.27 L-57.68 14.18 L-57.51 14.02 L-57.33 13.93 L-57.16 13.85 L-56.99 13.68 L-56.91 13.6 L-56.82 13.52 L-56.74 13.43 L-56.48 13.19 L-56.39 13.1 L-56.31 12.94 L-56.14 12.77 L-56.05 12.6 L-55.97 12.44 L-55.79 12.27 L-55.62 12.19 L-55.62 12.1 L-55.54 11.94 L-55.37 11.77 L-55.28 11.69 L-55.2 11.61 L-54.86 11.08 L-54.77 10.91 L-54.77 10.83 L-54.69 10.66 L-54.6 10.58 L-54.43 10.33 L-54.34 10.24 L-54.34 10.16 L-54.26 10 L-54.17 9.75 L-54.17 9.66 L-54 9.41 L-53.92 9.25 L-53.83 9 L-53.83 8.83 L-53.83 8.58 L-53.75 8.42 L-53.75 8.25 L-53.75 8.08 L-53.57 7.84 L-53.57 7.75 L-53.57 7.5 L-53.57 7.34 L-53.49 7.09 L-53.49 7 L-53.4 6.76 L-53.4 6.59 L-53.4 6.34 L-53.4 6.09 L-53.4 5.84 L-53.4 5.76 L-53.4 5.68 L-53.28 5.31 L-53.28 5.23 L-53.11 4.9 L-53.11 4.81 L-53.11 4.56 L-53.11 4.4 L-53.11 4.23 L-53.11 3.9 L-53.11 3.4 L-53.11 3.07 L-53.11 2.9 L-53.11 2.65 L-53.11 2.49 L-53.11 2.24 L-53.11 1.99 L-53.11 1.66 L-53.11 1.41 L-53.11 1.08 L-53.11 0.83 L-53.11 0.66 L-53.11 0.49 L-53.11 0.33 L-53.11 0.16 L-53.11 0.08 L-53.11 -0.25 L-53.11 -0.34 L-53.11 -0.5 L-53.11 -0.59 L-53.19 -0.75 L-53.19 -0.92 L-53.19 -1.09 L-53.19 -1.42 L-53.19 -1.59 L-53.19 -1.83 L-53.19 -2.08 L-53.19 -2.33 L-53.19 -2.58 L-53.11 -2.83 L-53.11 -3 L-53.11 -3.16 L-53.11 -3.5 L-53.11 -3.99 L-53.11 -4.16 L-53.11 -4.24 L-53.11 -4.33 L-53.11 -4.41 L-53.11 -4.49 L-53.11 -4.66 L-53.11 -4.83 L-53.11 -4.99 L-53.11 -5.16 L-53.11 -5.24 L-53.11 -5.33 L-53.11 -5.49 L-53.11 -5.66 L-53.11 -5.99 L-53.11 -6.16 L-53.11 -6.24 L-53.11 -6.41 L-53.11 -6.57 L-53.11 -6.91 L-53.11 -7.16 L-53.11 -7.24 L-53.11 -7.32 L-53.11 -7.4 L-53.11 -7.57 L-53.11 -7.74 L-53.11 -8.15 L-53.11 -8.24 L-53.11 -8.32 L-53.11 -8.49 L-53.11 -8.73 L-53.11 -8.9 L-53.11 -8.98 L-53.11 -9.07 L-53.11 -9.15 L-53.11 -9.32 L-53.11 -9.48 L-53.11 -9.57 L-53.11 -9.73 L-53.19 -9.82 L-53.19 -9.9 L-53.19 -10.07 L-53.19 -10.23 L-53.28 -10.4 L-53.28 -10.56 L-53.28 -10.65 L-53.28 -10.73 L-53.37 -10.9 L-53.45 -10.98 L-53.45 -11.06 L-53.45 -11.23 L-53.45 -11.31 L-53.54 -11.48 L-53.62 -11.65 L-53.71 -11.89 L-53.71 -11.98 L-53.8 -12.06 L-53.97 -12.23 L-53.97 -12.31 L-54.05 -12.39 L-54.14 -12.64 L-54.14 -12.73 L-54.14 -12.81 L-54.23 -12.89 L-54.31 -12.98 L-54.31 -13.06 L-54.4 -13.22 L-54.4 -13.31 L-54.4 -13.47 L-54.4 -13.56 L-54.49 -13.72 L-54.49 -13.81 L-54.49 -13.89 L-54.49 -13.97 L-54.57 -14.31 L-54.57 -14.39 L-54.57 -14.47 L-54.57 -14.64 L-54.66 -14.8 L-54.74 -14.89 L-54.83 -14.97 L-54.83 -15.14 L-54.92 -15.22 L-55 -15.3 L-55.09 -15.47 L-55.17 -15.55 L-55.26 -15.64 L-55.35 -15.64 L-55.61 -15.64 L-55.69 -15.64 L-55.95 -15.64 L-56.04 -15.64 L-56.12 -15.72 L-56.29 -15.72 L-56.38 -15.72 L-56.47 -15.72 L-56.55 -15.72 L-56.73 -15.72 L-56.81 -15.72 L-57.16 -15.72 L-57.24 -15.72 L-57.33 -15.72 L-57.41 -15.72 L-57.67 -15.72 L-57.76 -15.72 L-57.84 -15.72 L-58.02 -15.72 L-58.19 -15.72 L-58.36 -15.72 L-58.53 -15.72 L-58.71 -15.72 L-58.96 -15.72 L-59.14 -15.72 L-59.31 -15.72 L-59.48 -15.72 L-59.65 -15.72 L-59.83 -15.72 L-60 -15.72 L-60.08 -15.72 L-60.17 -15.72 L-60.34 -15.72 L-60.51 -15.72 L-60.95 -15.72 L-61.03 -15.72 L-61.12 -15.72 L-61.29 -15.72 L-61.38 -15.72 L-61.46 -15.72 L-61.55 -15.72 L-61.72 -15.64 L-61.89 -15.55 L-61.98 -15.55 L-62.06 -15.47 L-62.24 -15.39 L-62.32 -15.31 L-62.41 -15.14 L-62.58 -15.06 L-62.67 -14.89 L-62.75 -14.81 L-62.92 -14.73 L-63.01 -14.73 L-63.27 -14.65 L-63.44 -14.56 L-63.9 -14.44 L-63.99 -14.36 L-64.54 -14.15 L-64.71 -14.15 L-64.97 -14.15 L-65.23 -14.07 L-65.49 -13.99 L-65.57 -13.91 L-65.66 -13.82 L-65.83 -13.74 L-65.92 -13.74 L-66.17 -13.66 L-66.69 -13.33 L-66.78 -13.25 L-66.78 -13.16 L-66.86 -13 L-66.95 -12.75 L-67.04 -12.67 L-67.04 -12.58 L-67.12 -12.42 L-67.21 -12.17 L-67.21 -12.09 L-67.21 -11.92 L-67.21 -11.76 L-67.12 -11.59 L-67.12 -11.51 L-67.04 -11.26 L-67.04 -11.18 L-66.95 -11.01 L-66.87 -10.85 L-66.87 -10.77 L-66.87 -10.68 L-66.87 -10.6 L-66.87 -10.52 L-66.69 -10.35 L-66.69 -10.27 L-66.69 -10.1 L-66.69 -10.02 L-66.69 -9.94 L-66.69 -9.86 L-66.69 -9.77 L-66.69 -9.69 L-66.69 -9.53 L-66.69 -9.44 L-66.69 -9.36 L-66.78 -9.28 L-66.87 -9.36 L-66.95 -9.44 L-67.04 -9.53 L-67.21 -9.69 L-67.3 -9.78 L-67.38 -9.86 L-67.47 -9.94 L-67.56 -9.94 L-67.64 -9.94 L-67.73 -10.03 L-67.9 -10.19 L-67.99 -10.28 L-68.07 -10.36 L-68.33 -10.53 L-68.42 -10.61 L-68.59 -10.69 L-68.68 -10.69 L-68.85 -10.78 L-68.93 -10.78 L-69.02 -10.86 L-69.19 -10.94 L-69.28 -10.94 L-69.36 -10.94 L-69.45 -11.03 L-69.54 -11.03 L-69.62 -11.03 L-69.71 -11.03 L-69.79 -11.11 L-70.05 -11.11 L-70.14 -11.19 L-70.31 -11.19 L-70.4 -11.19 L-70.48 -11.28 L-70.57 -11.36 L-70.66 -11.44 L-70.74 -11.53 L-70.91 -11.61 L-71.09 -11.78 L-71.43 -12.02 L-71.52 -12.02 L-71.77 -12.11 L-71.86 -12.19 L-71.95 -12.27 L-72.03 -12.36 L-72.21 -12.36 L-72.29 -12.44 L-72.38 -12.52 L-72.46 -12.61 L-72.72 -12.69 L-72.89 -12.77 L-72.98 -12.77 L-73.07 -12.77 L-73.32 -12.86 L-73.41 -12.86 L-74.01 -13.19 L-74.1 -13.19 L-74.27 -13.27 L-74.87 -13.61 L-74.96 -13.61 L-75.04 -13.69 L-75.13 -13.69 L-75.3 -13.77 L-75.39 -13.94 L-75.56 -13.94 L-75.65 -14.02 L-75.73 -14.1 L-75.99 -14.27 L-76.16 -14.35 L-76.25 -14.44 L-76.42 -14.52 L-76.51 -14.52 L-76.68 -14.6 L-76.77 -14.77 L-76.94 -14.85 L-77.11 -14.94 L-77.2 -15.02 L-77.28 -15.1 L-77.37 -15.19 L-77.45 -15.27 L-77.54 -15.27 L-77.8 -15.35 L-78.06 -15.52 L-78.14 -15.6 L-78.23 -15.69 L-78.31 -15.69 L-78.4 -15.77 L-78.66 -15.94 L-78.83 -16.02 L-78.92 -16.1 L-79.38 -16.31 L-79.64 -16.47 L-79.81 -16.56 L-79.98 -16.64 L-80.07 -16.64 L-80.15 -16.64 L-80.33 -16.72 L-80.41 -16.81 L-80.5 -16.81 L-80.59 -16.89 L-80.67 -16.89 L-80.76 -16.97 L-80.84 -16.97 L-81.02 -16.97 L-81.1 -17.06 L-81.36 -17.14 L-81.45 -17.22 L-81.53 -17.31 L-81.7 -17.39 L-81.96 -17.56 L-82.05 -17.64 L-82.13 -17.72 L-82.39 -17.8 L-82.56 -17.89 L-82.74 -17.97 L-82.91 -18.14 L-82.99 -18.14 L-83.08 -18.22 L-83.25 -18.3 L-83.34 -18.39 L-83.42 -18.47 L-83.51 -18.55 L-83.6 -18.64 L-83.68 -18.64 L-83.94 -18.72 L-84.11 -18.89 L-84.2 -18.97 L-84.29 -18.97 L-84.37 -19.05 L-84.54 -19.14 L-84.63 -19.22 L-84.72 -19.39 L-84.8 -19.47 L-84.97 -19.55 L-85.06 -19.63 L-85.23 -19.8 L-85.4 -19.88 L-85.49 -19.97 L-85.66 -20.05 L-85.75 -20.13 L-85.83 -20.13 L-85.92 -20.22 L-86.01 -20.22 L-86.18 -20.22 L-86.35 -20.22 L-86.61 -20.3 L-86.69 -20.3 L-86.87 -20.3 L-86.95 -20.3 L-87.13 -20.3 L-87.3 -20.3 L-87.47 -20.3 L-87.85 -20.42 L-88.36 -20.51 L-88.45 -20.59 L-88.54 -20.59 L-88.62 -20.59 L-88.79 -20.67 L-89.05 -20.67 L-89.14 -20.67 L-89.31 -20.75 L-89.48 -20.84 L-89.57 -20.84 L-89.65 -20.84 L-89.91 -20.84 L-90.26 -20.84 L-90.8 -20.84 L-91.15 -20.84 L-91.92 -20.84 L-92.01 -20.84 L-92.09 -20.84 L-92.27 -20.84 L-92.35 -20.84 L-92.44 -20.84 L-92.52 -20.84 L-92.61 -20.84 L-92.78 -20.76 L-92.87 -20.67 L-92.95 -20.59 L-93.04 -20.59 L-93.21 -20.51 L-93.3 -20.51 L-93.38 -20.51 L-93.47 -20.42 L-93.56 -20.42 L-93.73 -20.34 L-93.81 -20.26 L-93.9 -20.18 L-93.99 -20.09 L-94.07 -20.09 L-94.24 -20.01 L-94.33 -20.01 L-94.59 -19.85 L-94.68 -19.76 L-94.76 -19.68 L-94.85 -19.68 L-94.93 -19.68 L-95.11 -19.6 L-95.19 -19.52 L-95.36 -19.35 L-95.54 -19.27 L-95.71 -19.19 L-95.88 -19.1 L-95.96 -18.94 L-96.05 -18.85 L-96.14 -18.77 L-96.31 -18.69 L-96.4 -18.52 L-96.48 -18.36 L-96.65 -18.19 L-96.74 -17.95 L-96.83 -17.86 L-96.83 -17.78 L-96.91 -17.62 L-96.91 -17.45 L-96.91 -17.28 L-96.91 -17.2 L-96.91 -17.12 L-96.91 -17.04 L-96.91 -16.95 L-96.91 -16.87 L-96.91 -16.79 L-96.91 -16.71 L-96.91 -16.54 L-96.91 -16.38 L-96.91 -16.29 L-96.91 -16.21 L-96.91 -15.96 L-96.91 -15.8 L-96.91 -15.71 L-96.91 -15.63 L-96.91 -15.38 L-96.91 -15.3 L-96.74 -15.05 L-96.66 -14.72 L-96.66 -14.39 L-96.57 -14.23 L-96.57 -14.06 L-96.57 -13.98 L-96.48 -13.81 L-96.48 -13.73 L-96.48 -13.65 L-96.48 -13.57 L-96.48 -13.48 L-96.48 -13.4 L-96.48 -13.32 L-96.48 -13.23 L-96.48 -13.15 L-96.48 -13.07 L-96.48 -12.99 L-96.48 -12.9 L-96.48 -12.82 L-96.48 -12.74 L-96.48 -12.66 L-96.48 -12.57 L-96.48 -12.49 L-96.48 -12.41 L-96.48 -12.33 L-96.48 -12.24 L-96.48 -12.08 L-96.48 -12 L-96.48 -11.83 L-96.48 -11.75 L-96.48 -11.58 L-96.48 -11.5 L-96.48 -11.42 L-96.48 -11.17 L-96.48 -11 L-96.48 -10.84 L-96.48 -10.76 L-96.48 -10.67 L-96.31 -10.51 L-96.31 -10.34 L-96.31 -10.18 L-96.31 -10.09 L-96.31 -9.93 L-96.31 -9.76 L-96.31 -9.6 L-96.31 -9.43 L-96.31 -9.19 L-96.31 -8.94 L-96.31 -8.77 L-96.31 -8.69 L-96.31 -8.61 L-96.31 -8.44 L-96.31 -8.28 L-96.31 -8.19 L-96.31 -8.11 L-96.31 -7.95 L-96.31 -7.78 L-96.4 -7.62 L-96.4 -7.53 L-96.49 -7.37 L-96.49 -7.28 L-96.66 -7.04 L-96.66 -6.95 L-96.74 -6.71 L-96.83 -6.54 L-96.83 -6.46 L-96.92 -6.29 L-97 -6.04 L-97.09 -5.96 L-97.09 -5.88 L-97.09 -5.71 L-97.09 -5.63 L-97.17 -5.47 L-97.17 -5.38 L-97.17 -5.3 L-97.17 -5.22 L-97.17 -5.05 L-97.17 -4.81 L-97.17 -4.72 L-97.17 -4.56 L-97.17 -4.47 L-97.17 -4.39 L-97.17 -4.23 L-97.17 -4.06 L-97.17 -3.98 L-97.17 -3.73 L-97.17 -3.65 L-97.17 -3.57 L-97.17 -3.4 L-97.17 -3.32 L-97.17 -3.24 L-97.17 -3.07 L-97.17 -2.9 L-97.17 -2.74 L-97.17 -2.57 L-97.17 -2.49 L-97.09 -2.33 L-97.09 -2.24 L-97.09 -2.16 L-97.09 -2.08 L-97.09 -2 L-97.09 -1.91 L-97.09 -1.83 L-97.09 -1.66 L-97.09 -1.58 L-97.09 -1.5 L-97.09 -1.42 L-97.09 -1.25 L-97.09 -1.17 L-97 -0.92 L-97 -0.84 L-97 -0.76 L-96.92 -0.67 L-96.92 -0.43 L-96.83 -0.26 L-96.75 -0.18 L-96.75 -0.09 L-96.75 0.07 L-96.75 0.24 L-96.66 0.4 L-96.66 0.57 L-96.66 0.73 L-96.66 0.9 L-96.58 0.98 L-96.58 1.15 L-96.58 1.31 L-96.58 1.39 L-96.58 1.48 L-96.58 1.64 L-96.58 1.81 L-96.58 1.97 L-96.58 2.14 L-96.58 2.3 L-96.58 2.47 L-96.58 2.63 L-96.58 2.72 L-96.58 2.88 L-96.58 2.96 L-96.58 3.13 L-96.58 3.29 L-96.58 3.46 L-96.58 3.62 L-96.58 3.79 L-96.58 4.04 L-96.58 4.2 L-96.58 4.37 L-96.58 4.45 L-96.58 4.53 L-96.58 4.62 L-96.58 4.78 L-96.58 4.86 L-96.58 5.03 L-96.58 5.11 L-96.58 5.28 L-96.58 5.44 L-96.58 5.69 L-96.58 5.77 L-96.58 5.94 L-96.58 6.1 L-96.58 6.19 L-96.58 6.35 L-96.58 6.43 L-96.58 6.6 L-96.58 6.76 L-96.58 6.93 L-96.58 7.1 L-96.58 7.34 L-96.58 7.51 L-96.58 7.59 L-96.58 7.84 L-96.58 8.09 L-96.58 8.34 L-96.58 8.42 L-96.58 8.5 L-96.58 8.67 L-96.58 8.75 L-96.58 8.83 L-96.58 9 L-96.58 9.08 L-96.58 9.16 L-96.58 9.24 L-96.58 9.41 L-96.58 9.49 L-96.58 9.57 L-96.49 9.91 L-96.49 10.07 L-96.49 10.24 L-96.49 10.32 L-96.49 10.48 L-96.49 10.65 L-96.49 10.81 L-96.49 10.9 L-96.49 11.06 L-96.49 11.23 L-96.49 11.31 L-96.32 11.48 L-96.23 11.64 L-96.15 11.72 L-96.06 11.81 L-95.98 11.89 L-95.89 11.97 L-95.72 12.05 L-95.63 12.05 L-95.46 12.05 L-95.38 12.14 L-95.04 12.22 L-94.95 12.22 L-94.86 12.22 L-94.69 12.3 L-94.61 12.38 L-94.52 12.38 L-94.44 12.38 L-94.35 12.38 L-94.27 12.38 L-94.18 12.38 L-94.09 12.38 L-94.01 12.38 L-93.84 12.47 L-93.67 12.47 L-93.5 12.55 L-93.41 12.55 L-93.15 12.63 L-93.07 12.63 L-92.98 12.63 L-92.9 12.72 L-92.73 12.88 L-92.47 12.96 L-92.3 12.96 L-92.21 12.96 L-92.04 13.05 L-91.96 13.05 L-91.87 13.05 L-91.36 13.21 L-90.72 13.33 L-90.64 13.33 L-90.55 13.33 L-90.3 13.33 L-90.12 13.33 L-89.61 13.33 L-89.27 13.33 L-88.93 13.33 L-88.58 13.33 L-88.24 13.33 L-87.64 13.33 L-87.56 13.33 L-87.47 13.33 L-87.39 13.33 L-87.3 13.33 L-87.13 13.33 L-87.04 13.33 L-86.87 13.33 L-86.79 13.33 L-86.53 13.33 L-86.36 13.33 L-86.27 13.33 L-86.02 13.33 L-85.85 13.33 L-85.76 13.33 L-85.59 13.33 L-85.42 13.33 L-85.16 13.33 L-84.82 13.33 L-84.39 13.25 L-84.05 13.25 L-83.79 13.25 L-83.62 13.25 L-83.54 13.25 L-83.37 13.17 L-83.02 13.08 L-82.85 13 L-82.77 12.83 L-82.68 12.67 L-82.6 12.5 L-82.42 12.42 L-82.51 12.42 L-82.68 12.42 L-82.86 12.42 L-82.94 12.42 L-83.03 12.42 L-82.94 12.34 L-82.86 12.25 L-82.77 12.17 L-82.69 12 L-82.6 11.92 L-82.51 11.92 L-82.34 11.75 L-82.26 11.59 L-82.17 11.5 L-82 11.42 L-81.92 11.34 L-81.83 11.17 L-81.57 11.09 L-81.49 11.01 L-81.4 10.92 L-81.32 10.84 L-81.15 10.76 L-81.06 10.67 L-80.97 10.59 L-80.72 10.42 L-80.55 10.34 L-80.29 10.26 L-79.95 10.09 L-79.86 10.01 L-79.69 9.92 L-79.61 9.92 L-79.43 9.84 L-79.26 9.76 L-79.18 9.76 L-78.92 9.51 L-78.75 9.43 L-78.58 9.34 L-78.49 9.26 L-78.32 9.09 L-78.24 9.01 L-78.07 8.93 L-77.98 8.84 L-77.89 8.76 L-77.81 8.68 L-77.72 8.59 L-77.64 8.51 L-77.38 8.34 L-77.3 8.26 L-77.12 8.18 L-76.95 8.09 L-76.78 8.01 L-76.61 7.84 L-76.23 7.72 L-75.98 7.56 L-75.89 7.47 L-75.51 7.35 L-75.34 7.35 L-75.17 7.27 L-74.92 7.18 L-74.74 7.1 L-74.66 7.02 L-74.4 6.93 L-74.15 6.85 L-74.06 6.85 L-73.89 6.77 L-73.8 6.77 L-73.63 6.68 L-73.46 6.52 L-73.2 6.35 L-72.83 6.23 L-72.66 6.06 L-72.28 5.94 L-72.19 5.86 L-71.85 5.69 L-71.59 5.53 L-71.51 5.44 L-71.25 5.36 L-71.17 5.28 L-71 5.11 L-70.91 5.11 L-70.74 5.03 L-70.48 4.86 L-70.4 4.78 L-70.23 4.69 L-70.14 4.69 L-69.88 4.53 L-69.8 4.44 L-69.71 4.36 L-69.54 4.28 L-69.37 4.19 L-69.2 4.11 L-69.03 3.94 L-68.86 3.86 L-68.77 3.86 L-68.6 3.78 L-68.51 3.69 L-68.34 3.53 L-68.17 3.45 L-68 3.36 L-67.74 3.28 L-67.4 3.11 L-67.06 2.95 L-66.89 2.86 L-66.72 2.7 L-66.63 2.7 L-66.46 2.61 L-66.38 2.53 L-66.2 2.53 L-65.95 2.36 L-65.69 2.2 L-65.61 2.2 L-65.43 2.11 L-65.26 2.03 L-65.01 1.86 L-64.92 1.78 L-64.66 1.7 L-64.49 1.61 L-64.41 1.53 L-64.32 1.45 L-63.98 1.36 L-63.89 1.36 L-63.81 1.28 L-63.64 1.28 L-63.38 1.11 L-63.21 1.03 L-63.12 1.03 L-62.95 0.95 L-62.78 0.95 L-62.7 0.87 L-62.61 0.87 L-62.35 0.78 L-62.27 0.7 L-62.18 0.62 L-62.1 0.53 L-62.01 0.45 L-61.84 0.37 L-61.76 0.28 L-61.67 0.12 L-61.58 0.03 L-61.5 -0.05 L-61.41 -0.22 L-61.33 -0.3 L-61.24 -0.47 L-61.07 -0.71 L-61.07 -0.8 L-60.99 -0.96 L-60.9 -1.21 L-60.9 -1.3 L-60.81 -1.54 L-60.73 -1.79 L-60.64 -1.88 L-60.64 -1.96 L-60.64 -2.21 L-60.56 -2.38 L-60.56 -2.46 L-60.56 -2.63 L-60.56 -2.79 L-60.56 -3.04 L-60.47 -3.21 L-60.47 -3.29 L-60.39 -3.46 L-60.39 -3.71 L-60.39 -3.87 L-60.39 -3.96 L-60.39 -4.04 L-60.39 -4.2 L-60.39 -4.29 L-60.39 -4.37 L-60.39 -4.45 L-60.39 -4.54 L-60.39 -4.62 L-60.47 -4.79 L-60.47 -4.79" stroke="none" stroke-width="0" fill="#1e1e20" fill-rule="evenodd"></path><path fill="#1e1e20" d="M -60.01,-11.46 Q -60.01,-11.46 -59.99,-12.15 -59.97,-12.83 -59.46,-15.11 -58.95,-17.39 -57.59,-15.10 -56.22,-12.81 -58.21,-13.85 -60.20,-14.90 -60.21,-19.02 -60.22,-23.14 -58.46,-24.33 -56.69,-25.53 -55.62,-25.51 -54.55,-25.49 -53.81,-25.40 -53.08,-25.31 -52.39,-25.05 -51.70,-24.78 -51.09,-24.36 -50.48,-23.94 -49.99,-23.39 -49.50,-22.84 -49.16,-22.18 -48.82,-21.53 -48.64,-20.81 -48.46,-20.09 -48.46,-19.35 -48.46,-18.61 -48.64,-17.89 -48.82,-17.18 -49.16,-16.52 -49.51,-15.87 -50.00,-15.31 -50.49,-14.76 -51.10,-14.34 -51.71,-13.92 -52.40,-13.66 -53.09,-13.40 -53.82,-13.31 -54.56,-13.22 -56.91,-13.35 -59.26,-13.48 -61.81,-13.72 -64.36,-13.97 -67.15,-14.08 -69.93,-14.20 -72.16,-14.06 -74.40,-13.91 -76.57,-13.85 -78.74,-13.79 -80.91,-13.75 -83.08,-13.70 -85.22,-13.57 -87.36,-13.43 -89.54,-13.26 -91.71,-13.09 -93.89,-12.99 -96.08,-12.90 -98.24,-12.79 -100.39,-12.67 -102.80,-12.12 -105.21,-11.56 -103.22,-12.76 -101.23,-13.96 -102.07,-11.85 -102.90,-9.74 -103.24,-7.57 -103.57,-5.40 -103.86,-3.29 -104.15,-1.19 -103.76,1.21 -103.36,3.61 -103.06,5.79 -102.76,7.97 -103.79,6.09 -104.82,4.22 -102.88,5.49 -100.94,6.75 -98.63,6.68 -96.32,6.61 -94.18,6.51 -92.04,6.41 -89.82,6.40 -87.59,6.40 -85.36,6.39 -83.13,6.39 -80.90,6.39 -78.67,6.38 -76.41,6.38 -74.15,6.38 -71.33,6.59 -68.51,6.79 -66.34,6.76 -64.16,6.74 -61.85,7.09 -59.54,7.43 -60.28,5.38 -61.02,3.34 -61.10,1.11 -61.18,-1.11 -61.14,-3.25 -61.10,-5.39 -61.14,-7.61 -61.17,-9.83 -61.86,-12.02 -62.56,-14.21 -61.83,-12.16 -61.09,-10.10 -58.64,-8.87 -56.18,-7.64 -58.45,-7.67 -60.71,-7.70 -58.35,-9.03 -55.99,-10.36 -58.09,-8.78 -60.20,-7.21 -59.70,-9.45 -59.20,-11.70 -62.14,-7.26 -65.07,-2.82 -68.19,-2.77 -71.32,-2.72 -73.35,-3.83 -75.38,-4.94 -78.11,-6.56 -80.84,-8.18 -82.86,-9.16 -84.88,-10.13 -86.72,-11.22 -88.56,-12.31 -91.01,-12.05 -93.45,-11.80 -91.54,-12.98 -89.63,-14.17 -89.63,-16.47 -89.63,-18.78 -89.07,-16.66 -88.50,-14.54 -88.40,-12.37 -88.29,-10.21 -88.49,-7.78 -88.69,-5.36 -88.72,-3.08 -88.76,-0.81 -88.65,1.34 -88.54,3.50 -88.54,5.71 -88.54,7.92 -90.87,6.15 -93.20,4.39 -91.13,5.02 -89.06,5.65 -86.91,5.45 -84.77,5.25 -87.02,6.66 -89.26,8.08 -86.83,14.06 -84.39,20.05 -83.81,20.24 -83.23,20.44 -84.19,20.29 -85.14,20.14 -86.03,19.76 -86.93,19.39 -87.70,18.81 -88.48,18.23 -89.09,17.49 -89.71,16.74 -90.13,15.87 -90.55,15.00 -90.75,14.05 -90.95,13.11 -90.91,12.14 -90.88,11.17 -90.62,10.24 -90.35,9.31 -89.87,8.47 -89.39,7.63 -88.73,6.93 -88.06,6.23 -87.25,5.71 -86.43,5.18 -85.52,4.87 -84.60,4.56 -83.64,4.48 -82.67,4.39 -86.67,7.49 -90.67,10.58 -89.69,8.68 -88.71,6.78 -87.06,5.37 -85.42,3.96 -83.39,2.66 -81.37,1.36 -79.33,0.46 -77.28,-0.43 -75.03,-1.65 -72.78,-2.87 -70.47,-4.06 -68.16,-5.24 -68.07,-3.59 -67.97,-1.95 -68.23,-3.22 -68.49,-4.49 -68.32,-5.78 -68.16,-7.07 -67.59,-8.23 -67.03,-9.40 -66.12,-10.33 -65.21,-11.26 -64.05,-11.84 -62.89,-12.43 -61.61,-12.62 -60.32,-12.80 -59.05,-12.57 -57.77,-12.34 -56.63,-11.71 -55.50,-11.08 -54.62,-10.12 -53.75,-9.17 -53.22,-7.98 -52.70,-6.79 -52.58,-5.50 -52.46,-4.20 -52.77,-2.94 -53.07,-1.68 -53.76,-0.58 -54.45,0.51 -55.45,1.33 -56.46,2.16 -57.67,2.62 -58.88,3.07 -60.18,3.12 -61.48,3.17 -62.72,2.80 -63.97,2.43 -65.03,1.68 -66.09,0.93 -66.86,-0.10 -67.62,-1.15 -68.02,-2.39 -68.41,-3.63 -68.39,-4.92 -68.36,-6.22 -67.93,-7.45 -67.49,-8.67 -66.68,-9.69 -65.88,-10.71 -64.79,-11.42 -63.70,-12.12 -62.45,-12.45 -61.19,-12.77 -59.90,-12.68 -58.60,-12.59 -57.40,-12.08 -56.21,-11.58 -55.23,-10.72 -54.26,-9.86 -53.61,-8.74 -52.96,-7.62 -52.96,-7.62 -52.96,-7.62 -53.05,-3.43 -53.14,0.75 -54.19,2.84 -55.24,4.92 -57.23,6.50 -59.22,8.09 -61.20,8.88 -63.17,9.67 -65.10,10.88 -67.02,12.09 -69.28,13.15 -71.54,14.21 -73.58,15.19 -75.62,16.17 -77.24,17.61 -78.86,19.06 -77.04,16.60 -75.22,14.15 -79.22,17.29 -83.23,20.44 -84.18,20.29 -85.14,20.14 -86.03,19.76 -86.92,19.39 -87.70,18.81 -88.48,18.23 -89.09,17.49 -89.71,16.74 -90.13,15.87 -90.55,15.00 -90.75,14.05 -90.95,13.11 -90.91,12.14 -90.88,11.17 -90.62,10.24 -90.35,9.31 -89.87,8.47 -89.40,7.63 -88.73,6.93 -88.06,6.23 -87.25,5.71 -86.43,5.18 -85.52,4.87 -84.60,4.56 -83.64,4.48 -82.67,4.39 -81.66,4.62 -80.64,4.85 -79.02,11.82 -77.40,18.80 -80.52,20.02 -83.63,21.24 -86.41,21.30 -89.19,21.36 -91.31,21.13 -93.43,20.90 -95.82,20.27 -98.21,19.65 -100.61,17.78 -103.01,15.91 -103.81,12.33 -104.60,8.76 -104.60,6.61 -104.60,4.46 -104.66,2.30 -104.73,0.14 -104.90,-3.07 -105.07,-6.28 -104.48,-8.38 -103.88,-10.47 -103.43,-8.27 -102.97,-6.08 -103.48,-8.84 -103.99,-11.61 -104.46,-14.04 -104.93,-16.48 -104.60,-18.61 -104.28,-20.74 -103.02,-22.61 -101.76,-24.48 -99.41,-25.99 -97.06,-27.50 -94.26,-28.18 -91.47,-28.85 -89.30,-28.59 -87.14,-28.32 -85.03,-27.96 -82.92,-27.60 -80.82,-26.06 -78.72,-24.52 -76.58,-23.60 -74.45,-22.67 -72.59,-21.57 -70.73,-20.47 -68.78,-19.48 -66.84,-18.50 -64.65,-17.29 -62.46,-16.09 -65.43,-15.97 -68.41,-15.86 -71.63,-12.68 -74.86,-9.50 -74.91,-11.79 -74.96,-14.09 -73.91,-16.23 -72.85,-18.38 -70.76,-19.24 -68.68,-20.11 -66.80,-21.54 -64.92,-22.97 -62.81,-23.35 -60.71,-23.73 -58.52,-23.73 -56.34,-23.73 -54.22,-23.33 -52.09,-22.93 -49.98,-20.16 -47.87,-17.40 -46.86,-15.21 -45.85,-13.01 -45.48,-10.24 -45.10,-7.47 -45.34,-5.33 -45.58,-3.20 -45.34,-0.28 -45.11,2.63 -45.26,4.76 -45.42,6.88 -45.94,9.32 -46.47,11.75 -47.56,13.87 -48.65,16.00 -50.21,17.85 -51.76,19.71 -53.70,20.82 -55.63,21.93 -58.54,22.44 -61.46,22.94 -63.64,22.82 -65.82,22.70 -68.00,22.60 -70.17,22.50 -72.51,22.41 -74.86,22.32 -77.01,22.32 -79.16,22.31 -81.47,22.31 -83.77,22.31 -85.92,22.30 -88.07,22.30 -90.26,22.12 -92.44,21.93 -94.77,22.27 -97.09,22.61 -99.25,22.45 -101.41,22.29 -103.75,21.74 -106.10,21.18 -108.37,20.24 -110.65,19.29 -112.56,18.01 -114.48,16.72 -115.98,14.82 -117.49,12.92 -117.95,10.19 -118.41,7.46 -118.97,5.36 -119.54,3.27 -119.70,0.98 -119.87,-1.30 -119.74,-3.50 -119.60,-5.70 -118.94,-8.24 -118.28,-10.78 -117.95,-12.96 -117.62,-15.14 -116.58,-17.33 -115.54,-19.51 -114.53,-21.49 -113.51,-23.46 -111.70,-24.71 -109.89,-25.95 -107.51,-26.52 -105.13,-27.10 -102.71,-27.43 -100.28,-27.76 -98.06,-27.95 -95.83,-28.14 -93.61,-28.14 -91.38,-28.13 -89.07,-28.34 -86.77,-28.56 -84.58,-28.51 -82.39,-28.46 -79.99,-28.41 -77.59,-28.36 -75.32,-28.29 -73.05,-28.22 -70.87,-28.09 -68.69,-27.97 -66.32,-27.65 -63.96,-27.34 -61.74,-27.05 -59.53,-26.76 -57.04,-26.12 -54.55,-25.49 -53.81,-25.40 -53.08,-25.31 -52.39,-25.05 -51.70,-24.78 -51.09,-24.36 -50.48,-23.94 -49.99,-23.39 -49.50,-22.84 -49.16,-22.18 -48.82,-21.53 -48.64,-20.81 -48.46,-20.09 -48.46,-19.35 -48.46,-18.61 -48.64,-17.89 -48.82,-17.18 -49.16,-16.52 -49.51,-15.87 -50.00,-15.31 -50.49,-14.76 -51.10,-14.34 -51.71,-13.92 -52.40,-13.66 -53.09,-13.40 -53.82,-13.31 -54.56,-13.22 -55.77,-13.43 -56.97,-13.65 -54.92,-14.80 -52.87,-15.95 -52.62,-19.74 -52.38,-23.53 -50.47,-21.64 -48.57,-19.75 -48.46,-17.51 -48.36,-15.27 -49.32,-13.33 -50.27,-11.40 -50.44,-10.74 -50.62,-10.09 -50.77,-9.53 -50.92,-8.98 -51.20,-8.48 -51.48,-7.98 -51.87,-7.56 -52.26,-7.14 -52.74,-6.83 -53.22,-6.52 -53.76,-6.33 -54.30,-6.14 -54.87,-6.08 -55.44,-6.03 -56.00,-6.11 -56.57,-6.20 -57.10,-6.41 -57.63,-6.63 -58.09,-6.97 -58.55,-7.30 -58.92,-7.74 -59.29,-8.18 -59.54,-8.69 -59.80,-9.20 -59.92,-9.76 -60.04,-10.32 -60.03,-10.89 -60.01,-11.47 -60.01,-11.47 L -60.01,-11.46 Z"></path></g></svg>